<?xml version="1.0" encoding="utf-8"?>
<!-- Uploaded to: SVG Repo, www.svgrepo.com, Generator: SVG Repo Mixer Tools -->
<svg fill="#dddddd" width="800px" height="800px" viewBox="0 0 32 32" version="1.1" xmlns="http://www.w3.org/2000/svg">
<title>link</title>
<path d="M11.586 22.135c-0.82 0.783-1.934 1.265-3.16 1.265-1.225 0-2.338-0.481-3.159-1.265l0.002 0.002c-0.807-0.809-1.306-1.926-1.306-3.16s0.499-2.35 1.306-3.16l4.492-4.492c0.808-0.808 1.925-1.308 3.159-1.308 2.467 0 4.467 2 4.467 4.467 0 1.234-0.5 2.351-1.309 3.159v0c-0.226 0.226-0.366 0.539-0.366 0.884 0 0.69 0.56 1.25 1.25 1.25 0.345 0 0.658-0.14 0.884-0.366v0c1.261-1.261 2.041-3.003 2.041-4.927 0-3.848-3.119-6.967-6.967-6.967-1.924 0-3.665 0.78-4.926 2.040l-4.492 4.492c-1.256 1.26-2.033 2.999-2.033 4.919 0 3.848 3.119 6.968 6.968 6.968 1.92 0 3.658-0.776 4.918-2.032l-0 0c0.227-0.226 0.367-0.539 0.367-0.885 0-0.691-0.56-1.251-1.251-1.251-0.345 0-0.658 0.14-0.884 0.366v0zM28.5 8.097c-1.277-1.221-3.013-1.973-4.924-1.973s-3.646 0.752-4.927 1.976l0.003-0.003c-0.226 0.226-0.366 0.539-0.366 0.884 0 0.691 0.56 1.251 1.251 1.251 0.346 0 0.658-0.14 0.885-0.367v0c0.819-0.783 1.931-1.264 3.155-1.264s2.337 0.482 3.157 1.266l-0.002-0.002c0.807 0.808 1.307 1.923 1.307 3.155s-0.499 2.348-1.307 3.155l-4.486 4.487c-0.809 0.816-1.93 1.322-3.17 1.322-2.465 0-4.463-1.998-4.463-4.463 0-1.239 0.505-2.36 1.32-3.168l0-0c0.226-0.226 0.366-0.539 0.366-0.884 0-0.69-0.56-1.25-1.25-1.25-0.345 0-0.658 0.14-0.884 0.366v0c-1.26 1.26-2.039 3.001-2.039 4.923 0 3.846 3.117 6.963 6.963 6.963 1.923 0 3.664-0.779 4.924-2.040l4.488-4.489c1.257-1.261 2.034-3.001 2.034-4.922s-0.778-3.663-2.037-4.924l0 0z"></path>
</svg>