<?xml version="1.0" ?>
<!-- Uploaded to: SVG Repo, www.svgrepo.com, Generator: SVG Repo Mixer Tools -->
<svg fill="#000000" width="800px" height="800px" viewBox="0 0 64 64" id="Layer_1_1_" version="1.1" xml:space="preserve" xmlns="http://www.w3.org/2000/svg" xmlns:xlink="http://www.w3.org/1999/xlink">
<g>
<path d="M1,1v1v61h1c0.617,0,1.215-0.32,1.972-0.727C5.031,61.706,6.349,61,8,61c1.059,0,1.844,0.3,2.839,0.68   C12.382,62.268,14.301,63,18,63h1v-1c0-6.07-2.364-11.778-6.657-16.071L12,45.586v-3.028c8.646-5.181,14-14.576,14-24.681v-2.663   c2.714-1.855,4.835-4.516,6-7.643c1.165,3.127,3.286,5.788,6,7.643v2.663c0,10.106,5.354,19.5,14,24.681v3.028l-0.343,0.343   C47.364,50.222,45,55.93,45,62v1h1c3.699,0,5.618-0.732,7.161-1.32C54.156,61.3,54.941,61,56,61c1.651,0,2.969,0.706,4.028,1.273   C60.785,62.68,61.383,63,62,63h1V2V1H1z M14.981,17.858C14.79,26.27,11.807,34.445,6.519,41H3V9.729   C5.42,14.094,9.821,17.204,14.981,17.858z M3,45v-2h7v2H3z M3.028,60.511C3.019,60.516,3.009,60.521,3,60.525V47h2.485l0.632,0.885   c2.398,3.358,3.713,7.281,3.855,11.386C9.378,59.109,8.744,59,8,59C5.847,59,4.15,59.909,3.028,60.511z M16.976,60.979   c-2.363-0.101-3.777-0.552-4.976-0.999c-0.004-4.67-1.416-9.147-4.072-12.979h2.659l0.343,0.343   C14.603,51.017,16.727,55.825,16.976,60.979z M24,17.876C24,27.38,18.914,36.212,10.718,41H9.05   c4.939-6.646,7.72-14.713,7.928-23.001C16.986,17.999,16.993,18,17,18c2.51,0,4.884-0.586,7-1.62V17.876z M17,16   C9.617,16,3.55,10.255,3.035,3h3.014c0.176,1.959,0.863,3.818,2.023,5.427l1.622-1.17C8.783,5.993,8.247,4.534,8.077,3h3.013   c0.478,2.833,2.942,5,5.91,5c1.002,0,1.995-0.253,2.871-0.73l-0.958-1.756C18.33,5.832,17.668,6,17,6c-1.858,0-3.411-1.279-3.858-3   h7.72c-0.129,0.501-0.344,0.977-0.661,1.399l1.6,1.201C22.382,4.825,22.758,3.939,22.915,3h3.026c-0.5,4.493-4.317,8-8.941,8   c-2.271,0-4.439-0.848-6.106-2.388l-1.357,1.469C11.575,11.964,14.225,13,17,13c5.728,0,10.442-4.402,10.949-10h3.016   C30.45,10.255,24.383,16,17,16z M33.035,3h3.014c0.072,0.798,0.226,1.585,0.469,2.347l1.905-0.607   C38.244,4.175,38.142,3.59,38.077,3h3.014c0.478,2.833,2.942,5,5.91,5V6c-1.858,0-3.411-1.279-3.858-3h7.723   c-0.302,1.164-1.112,2.155-2.242,2.657l0.812,1.828C51.29,6.661,52.576,4.96,52.908,3h3.022c-0.148,1.329-0.576,2.611-1.285,3.75   l1.698,1.057C57.25,6.351,57.776,4.704,57.931,3h3.034C60.45,10.255,54.383,16,47,16S33.55,10.255,33.035,3z M40,17.876V16.38   c2.116,1.034,4.49,1.62,7,1.62c0.007,0,0.014-0.001,0.022-0.001C47.23,26.287,50.01,34.354,54.949,41h-1.667   C45.086,36.212,40,27.38,40,17.876z M54,45v-2h7v2H54z M53.071,47.343L53.414,47h2.659c-2.656,3.832-4.068,8.309-4.072,12.979   c-1.2,0.448-2.613,0.898-4.976,0.999C47.273,55.825,49.397,51.017,53.071,47.343z M60.972,60.511C59.85,59.909,58.153,59,56,59   c-0.744,0-1.378,0.109-1.972,0.271c0.141-4.105,1.457-8.028,3.855-11.386L58.515,47H61v13.525   C60.991,60.521,60.981,60.516,60.972,60.511z M61,41h-3.519c-5.288-6.555-8.271-14.73-8.462-23.142   c5.16-0.654,9.562-3.764,11.981-8.13V41z"/>
<path d="M55.074,9.471l-1.468-1.359C51.908,9.947,49.5,11,47,11c-3.22,0-6.215-1.737-7.816-4.535l-1.735,0.994   C39.405,10.877,43.065,13,47,13C50.055,13,52.998,11.714,55.074,9.471z"/>
</g>
</svg>