<?xml version="1.0" encoding="iso-8859-1"?>
<!-- Uploaded to: SVG Repo, www.svgrepo.com, Generator: SVG Repo Mixer Tools -->
<!DOCTYPE svg PUBLIC "-//W3C//DTD SVG 1.1//EN" "http://www.w3.org/Graphics/SVG/1.1/DTD/svg11.dtd">
<svg fill="#000000" version="1.1" id="Capa_1" xmlns="http://www.w3.org/2000/svg" xmlns:xlink="http://www.w3.org/1999/xlink"
	 width="800px" height="800px" viewBox="0 0 100.787 100.787"
	 xml:space="preserve">
<g>
	<g>
		<path d="M96.394,97.787h-8.167v-4.016c0-0.276-0.224-0.5-0.5-0.5s-0.5,0.224-0.5,0.5v4.016h-9v-4.016c0-0.276-0.224-0.5-0.5-0.5
			s-0.5,0.224-0.5,0.5v4.016h-9v-4.016c0-0.276-0.224-0.5-0.5-0.5s-0.5,0.224-0.5,0.5v4.016h-9v-4.016c0-0.276-0.224-0.5-0.5-0.5
			s-0.5,0.224-0.5,0.5v4.016h-9v-4.016c0-0.276-0.224-0.5-0.5-0.5s-0.5,0.224-0.5,0.5v4.016h-9v-4.016c0-0.276-0.224-0.5-0.5-0.5
			s-0.5,0.224-0.5,0.5v4.016h-9v-4.016c0-0.276-0.224-0.5-0.5-0.5s-0.5,0.224-0.5,0.5v4.016h-9v-4.016c0-0.276-0.224-0.5-0.5-0.5
			s-0.5,0.224-0.5,0.5v4.016H5.894V79.621h4.834c0.275,0,0.5-0.225,0.5-0.5s-0.225-0.5-0.5-0.5H5.894v-9h4.834
			c0.275,0,0.5-0.225,0.5-0.5s-0.225-0.5-0.5-0.5H5.894v-9h4.834c0.275,0,0.5-0.225,0.5-0.5s-0.225-0.5-0.5-0.5H5.894v-9h4.834
			c0.275,0,0.5-0.224,0.5-0.5s-0.225-0.5-0.5-0.5H5.894v-9h4.834c0.275,0,0.5-0.224,0.5-0.5s-0.225-0.5-0.5-0.5H5.894v-9h4.834
			c0.275,0,0.5-0.224,0.5-0.5s-0.225-0.5-0.5-0.5H5.894v-9h4.834c0.275,0,0.5-0.224,0.5-0.5s-0.225-0.5-0.5-0.5H5.894V1.5c0-0.828-0.672-1.5-1.5-1.5s-1.5,0.672-1.5,1.5v97.787
			c0,0.828,0.672,1.5,1.5,1.5h92c0.829,0,1.5-0.672,1.5-1.5S97.223,97.787,96.394,97.787z"/>
		<rect x="16.497" y="74.893" width="67.795" height="10.25" fill="#0000FF"/>
		<rect x="16.497" y="53.143" width="41.5" height="10.25" fill="#0000FF"/>
		<rect x="16.497" y="31.643" width="55.75" height="10.25" fill="#0000FF"/>
		<rect x="16.497" y="9.143" width="49" height="10.25" fill="#0000FF"/>
	</g>
</g>
</svg>
