<?xml version="1.0" encoding="UTF-8" standalone="no"?>
<!-- Created with Inkscape (http://www.inkscape.org/) -->

<svg
   width="15.470096mm"
   height="15.641986mm"
   viewBox="0 0 15.470096 15.641986"
   version="1.1"
   id="svg2790"
   inkscape:version="1.1.1 (3bf5ae0d25, 2021-09-20)"
   sodipodi:docname="clear_plot.svg"
   xmlns:inkscape="http://www.inkscape.org/namespaces/inkscape"
   xmlns:sodipodi="http://sodipodi.sourceforge.net/DTD/sodipodi-0.dtd"
   xmlns="http://www.w3.org/2000/svg"
   xmlns:svg="http://www.w3.org/2000/svg">
  <sodipodi:namedview
     id="namedview2792"
     pagecolor="#ffffff"
     bordercolor="#666666"
     borderopacity="1.0"
     inkscape:pageshadow="2"
     inkscape:pageopacity="0.0"
     inkscape:pagecheckerboard="0"
     inkscape:document-units="mm"
     showgrid="false"
     fit-margin-top="0"
     fit-margin-left="0"
     fit-margin-right="0"
     fit-margin-bottom="0"
     inkscape:zoom="0.64052329"
     inkscape:cx="-71.035669"
     inkscape:cy="539.40271"
     inkscape:window-width="1920"
     inkscape:window-height="1137"
     inkscape:window-x="-8"
     inkscape:window-y="-8"
     inkscape:window-maximized="1"
     inkscape:current-layer="layer1" />
  <defs
     id="defs2787" />
  <g
     inkscape:label="Layer 1"
     inkscape:groupmode="layer"
     id="layer1"
     transform="translate(-4.2440863,-5.7450145)">
    <g
       id="g2824"
       transform="matrix(0.12181178,0,0,0.12181178,1.1609277,3.4853694)"
       style="fill:#000000">
      <path
         style="fill:#000000;fill-opacity:1;stroke-width:0.282222"
         d="M 88.810842,146.96141 H 25.310841 V 104.49413 62.026854 l 7.82448,-7.979943 7.82448,-7.979944 9.108855,-9.240365 9.108852,-9.240365 v -0.254396 -0.254396 l 4.398736,-4.263572 4.398735,-4.263573 h 42.167931 42.16793 V 82.755856 146.96141 Z M 87.399731,125.2303 H 130.86195 V 81.485856 37.741411 h -20.32 -20.319997 V 58.202523 78.663634 H 67.079731 43.937508 v 23.283336 23.28333 z"
         id="path2838" />
      <path
         style="fill:#000000;fill-opacity:1;stroke-width:0.282222"
         d="M 88.810842,146.96141 H 25.310841 V 104.48742 62.013432 l 8.665164,-8.819899 8.665163,-8.819899 8.268172,-8.353327 8.268168,-8.353327 v -0.294767 -0.294768 l 4.398736,-4.263572 4.398735,-4.263573 h 42.167931 42.16793 V 82.755856 146.96141 Z M 87.399731,125.2303 H 130.86195 V 81.485856 37.741411 h -20.32 -20.319997 V 58.202523 78.663634 H 67.079731 43.937508 v 23.283336 23.28333 z"
         id="path2836" />
      <path
         style="fill:#000000;fill-opacity:1;stroke-width:0.282222"
         d="M 88.810842,146.96141 H 25.310841 V 104.48613 62.010852 l 9.382049,-9.524165 9.382049,-9.524164 7.551285,-7.626686 7.551284,-7.626686 V 27.390255 27.071359 L 63.58865,22.81083 67.999789,18.5503 h 42.155531 42.15552 V 82.755856 146.96141 Z M 87.399731,125.2303 H 130.86195 V 81.485856 37.741411 h -20.32 -20.319997 V 58.202523 78.663634 H 67.079731 43.937508 v 23.283336 23.28333 z"
         id="path2834" />
      <path
         style="fill:#000000;fill-opacity:1;stroke-width:0.282222"
         d="M 88.810842,146.96141 H 25.310841 V 104.48459 62.007767 L 30.88473,56.404835 36.458619,50.801902 47.818064,39.216697 59.177508,27.631493 V 27.351426 27.071359 L 63.58865,22.81083 67.999789,18.5503 h 42.155531 42.15552 V 82.755856 146.96141 Z M 87.399731,125.2303 H 130.86195 V 81.485856 37.741411 h -20.32 -20.319997 V 58.202523 78.663634 H 67.079731 43.937508 v 23.283336 23.28333 z"
         id="path2832" />
      <path
         style="fill:#000000;fill-opacity:1;stroke-width:0.282222"
         d="M 88.810842,146.96141 H 25.310841 V 104.50186 62.0423 L 30.890908,56.453524 36.470975,50.864745 47.824241,39.252048 59.177508,27.639349 V 27.355354 27.071359 L 63.58865,22.81083 67.999789,18.5503 h 42.155531 42.15552 V 82.755856 146.96141 Z M 87.399731,125.2303 H 130.86195 V 81.485856 37.741411 h -20.32 -20.319997 V 58.202523 78.663634 H 67.079731 43.937508 v 23.283336 23.28333 z"
         id="path2830" />
      <path
         style="fill:#000000;fill-opacity:1;stroke-width:0.282222"
         d="M 88.810842,146.96141 H 25.310841 V 104.59226 62.2231 L 36.685871,50.617256 48.060902,39.011411 58.026123,28.780856 67.991345,18.5503 H 110.1511 152.31084 V 82.755856 146.96141 Z M 87.399731,125.2303 H 130.86195 V 81.485856 37.741411 h -20.32 -20.319997 V 58.202523 78.663634 H 67.079731 43.937508 v 23.283336 23.28333 z"
         id="path2828" />
      <path
         style="fill:#000000;fill-opacity:1;stroke-width:0.282222"
         d="M 88.810842,146.96141 H 25.310841 V 104.59226 62.2231 L 36.811397,50.510212 48.311953,38.797323 58.137212,28.673812 67.962474,18.5503 h 42.174186 42.17418 V 82.755856 146.96141 Z M 87.399731,125.2303 H 130.86195 V 81.485856 37.741411 h -20.32 -20.319997 V 58.202523 78.663634 H 67.079731 43.937508 v 23.283336 23.28333 z"
         id="path2826" />
    </g>
  </g>
</svg>
