<?xml version="1.0" encoding="UTF-8" standalone="no"?>
<!-- Created with Inkscape (http://www.inkscape.org/) -->

<svg
   width="12.529938mm"
   height="12.529938mm"
   viewBox="0 0 12.529938 12.529938"
   version="1.1"
   id="svg25750"
   inkscape:version="1.1.1 (3bf5ae0d25, 2021-09-20)"
   sodipodi:docname="curtain_plot.svg"
   xmlns:inkscape="http://www.inkscape.org/namespaces/inkscape"
   xmlns:sodipodi="http://sodipodi.sourceforge.net/DTD/sodipodi-0.dtd"
   xmlns="http://www.w3.org/2000/svg"
   xmlns:svg="http://www.w3.org/2000/svg">
  <sodipodi:namedview
     id="namedview25752"
     pagecolor="#ffffff"
     bordercolor="#666666"
     borderopacity="1.0"
     inkscape:pageshadow="2"
     inkscape:pageopacity="0.0"
     inkscape:pagecheckerboard="0"
     inkscape:document-units="mm"
     showgrid="false"
     fit-margin-top="0"
     fit-margin-left="0"
     fit-margin-right="0"
     fit-margin-bottom="0"
     inkscape:zoom="5.1584703"
     inkscape:cx="-15.411545"
     inkscape:cy="44.102221"
     inkscape:window-width="1920"
     inkscape:window-height="1137"
     inkscape:window-x="-8"
     inkscape:window-y="-8"
     inkscape:window-maximized="1"
     inkscape:current-layer="layer1" />
  <defs
     id="defs25747" />
  <g
     inkscape:label="Layer 1"
     inkscape:groupmode="layer"
     id="layer1"
     transform="translate(-24.607555,-43.645511)">
    <g
       id="g25791"
       transform="matrix(1.1561828,0,0,1.1561828,9.3810312,-8.8329375)">
      <path
         style="fill:#b9b9b9;fill-opacity:1;stroke-width:0.0846667"
         d="m 13.169651,50.80807 v -5.418666 h 5.418666 5.418667 v 5.418666 5.418667 h -5.418667 -5.418666 z m 1.12265,3.925902 c -0.03752,-1.028113 -0.08788,-1.439035 -0.225643,-1.841499 -0.16405,-0.479243 -0.197962,-0.520058 -0.452507,-0.5446 l -0.275167,-0.02653 v 1.868031 1.868031 h 0.50081 0.50081 z m 1.332683,0.984765 c 0,-0.244593 0.03528,-0.338667 0.127,-0.338667 0.09172,0 0.127,0.09407 0.127,0.338667 v 0.338667 h 0.473109 0.473109 l -0.05694,-0.359834 c -0.20102,-1.270344 -0.637779,-2.255135 -1.303423,-2.938916 -0.251063,-0.257904 -0.398378,-0.392717 -0.327365,-0.299584 0.503754,0.660674 0.888527,2.413 0.529844,2.413 -0.07816,0 -0.127,-0.07938 -0.127,-0.206413 0,-0.310212 -0.246313,-1.310219 -0.395787,-1.606861 -0.204146,-0.405142 -0.545814,-0.726726 -0.772112,-0.726726 -0.161311,0 -0.192253,0.03151 -0.145488,0.148167 0.213512,0.532608 0.291885,1.038679 0.345222,2.229168 l 0.06039,1.347999 h 0.496219 0.496218 z m 4.599385,-0.105833 c 0.02809,-0.244475 0.07596,-0.530225 0.106386,-0.635 l 0.05531,-0.1905 h -1.755416 -1.755416 l 0.05531,0.1905 c 0.03042,0.104775 0.0783,0.390525 0.106386,0.635 l 0.05107,0.4445 h 1.542643 1.542643 z m 1.157948,0.105833 c 0,-0.244593 0.03528,-0.338667 0.127,-0.338667 0.09172,0 0.127,0.09407 0.127,0.338667 v 0.338667 h 0.495444 0.495443 l 0.05829,-1.251776 c 0.05239,-1.12508 0.168104,-1.902973 0.345906,-2.325391 0.04978,-0.118262 0.01959,-0.148167 -0.149588,-0.148167 -0.461346,0 -1.006134,0.979354 -1.12392,2.020446 -0.04318,0.381706 -0.0928,0.519554 -0.187003,0.519554 -0.296725,0 0.06435,-1.70206 0.493927,-2.328333 0.09582,-0.1397 -0.05664,-0.01067 -0.338803,0.286727 -0.282166,0.2974 -0.51303,0.58015 -0.51303,0.628333 0,0.04818 -0.04935,0.147757 -0.109674,0.221273 -0.148149,0.180559 -0.372338,0.853192 -0.524281,1.573 -0.177419,0.840501 -0.192601,0.804334 0.337622,0.804334 h 0.465666 z m 2.455334,-1.529623 v -1.868291 l -0.232834,0.02679 C 23.2185,52.392064 23.028441,53.105399 22.969,54.733972 l -0.0483,1.323432 h 0.458477 0.458477 z m -3.277468,0.09029 c 0.04335,-0.165757 0.0026,-0.169334 -1.929532,-0.169334 -1.93213,0 -1.972879,0.0036 -1.929532,0.169334 0.04261,0.162937 0.115486,0.169333 1.929532,0.169333 1.814045,0 1.886923,-0.0064 1.929532,-0.169333 z m 0.229468,-0.543409 c 0,-0.01947 0.02313,-0.09567 0.05139,-0.169333 0.04519,-0.117758 -0.07746,-0.133925 -1.015999,-0.133925 H 18.75765 l -0.0013,-3.323166 c -7.96e-4,-2.036264 -0.03358,-3.372348 -0.08467,-3.450167 -0.210836,-0.321172 -0.250146,0.218297 -0.251407,3.450167 l -0.0013,3.323166 h -1.016 c -0.5588,0 -1.016,0.01593 -1.016,0.03541 0,0.01947 0.02313,0.09567 0.05139,0.169333 0.045,0.117257 0.318972,0.133925 2.201333,0.133925 1.182468,0 2.149942,-0.01593 2.149942,-0.03541 z m -2.712734,-3.118424 -0.0034,-2.4765 -0.1871,0.425261 c -0.645626,1.467452 -1.811915,3.018989 -2.41271,3.209674 -0.245289,0.07785 -0.150672,0.340688 0.314086,0.872496 l 0.387525,0.443432 0.9525,0.0011 0.9525,0.0011 z m 3.355126,2.074291 c 0.412289,-0.479085 0.516922,-0.837767 0.267484,-0.916935 -0.597414,-0.189612 -1.765434,-1.745121 -2.409309,-3.208595 l -0.1871,-0.425261 -0.0034,2.4765 -0.0034,2.476499 0.994834,-4.1e-5 0.994833,-4.2e-5 z m -7.461905,-1.165199 c 0.534493,-0.912045 0.850252,-2.113608 0.948199,-3.608199 0.03034,-0.462939 0.0917,-0.864292 0.13637,-0.891897 0.164394,-0.101601 0.228052,0.200249 0.181475,0.860504 -0.09629,1.364962 -0.313045,2.334092 -0.754602,3.373883 -0.05931,0.139672 -0.04793,0.144967 0.105553,0.04911 0.180717,-0.11286 1.025178,-1.416354 1.408519,-2.174164 0.220419,-0.435738 0.475999,-0.592942 0.475999,-0.29278 0,0.296848 -0.906358,1.771204 -1.644222,2.674625 -0.3103,0.379922 -0.3208,0.408587 -0.129854,0.354512 0.311622,-0.08825 0.588743,-0.237227 0.588743,-0.316497 0,-0.0387 0.04972,-0.07036 0.110484,-0.07036 0.103947,0 0.990182,-0.873214 0.990182,-0.975633 0,-0.02613 0.03881,-0.09353 0.08624,-0.149774 0.325727,-0.386251 0.421764,-0.517142 0.421764,-0.574834 0,-0.03611 0.04806,-0.11601 0.10681,-0.177545 0.153916,-0.161224 0.701536,-1.365365 0.939746,-2.066371 0.215715,-0.634811 0.316236,-1.11909 0.343622,-1.655473 l 0.0167,-0.327037 h -0.557212 -0.557213 l -0.02402,0.5715 c -0.03985,0.948178 -0.367436,2.2225 -0.571333,2.2225 -0.160689,0 -0.15224,-0.14274 0.05143,-0.868905 0.09452,-0.337019 0.189047,-0.908036 0.210052,-1.268928 l 0.03819,-0.656167 -0.823885,-1.15e-4 -0.823886,-1.16e-4 0.02916,0.46855 c 0.03726,0.598617 -0.02209,0.778755 -0.206214,0.625942 -0.0995,-0.08257 -0.125736,-0.233338 -0.104832,-0.602356 l 0.02788,-0.492213 -0.8255,1.54e-4 -0.8255,1.54e-4 v 3.175 3.175 h 0.203622 c 0.151891,0 0.260506,-0.09707 0.427532,-0.382074 z m 8.369709,-0.02009 c -0.72947,-0.893767 -1.634863,-2.368794 -1.634863,-2.663446 0,-0.300162 0.25558,-0.142958 0.475999,0.29278 0.383341,0.75781 1.227803,2.061304 1.408519,2.174164 0.153485,0.09585 0.164866,0.09056 0.105553,-0.04911 -0.441557,-1.039791 -0.658313,-2.008921 -0.754602,-3.373883 -0.04658,-0.660255 0.01708,-0.962105 0.181475,-0.860504 0.04467,0.02761 0.106032,0.428958 0.13637,0.891897 0.09795,1.494591 0.413705,2.696154 0.948199,3.608199 0.167025,0.285007 0.275641,0.382074 0.427532,0.382074 h 0.203622 v -3.175 -3.175 l -0.8255,-1.54e-4 -0.8255,-1.54e-4 0.02788,0.492213 c 0.0209,0.369018 -0.0053,0.519781 -0.104832,0.602357 -0.184127,0.152812 -0.243473,-0.02733 -0.206214,-0.625942 l 0.02916,-0.468551 -0.823886,1.16e-4 -0.823885,1.15e-4 0.03819,0.656167 c 0.02101,0.360892 0.115528,0.931909 0.210052,1.268928 0.203667,0.726165 0.212116,0.868905 0.05143,0.868905 -0.203897,0 -0.531484,-1.274322 -0.571333,-2.2225 l -0.02402,-0.5715 H 19.43198 18.874768 l 0.0167,0.327037 c 0.02739,0.536383 0.127907,1.020662 0.343622,1.655473 0.23821,0.701006 0.78583,1.905147 0.939746,2.066371 0.05874,0.06153 0.10681,0.14143 0.10681,0.177545 0,0.05769 0.09604,0.188583 0.421764,0.574834 0.04743,0.05624 0.08624,0.123641 0.08624,0.149774 0,0.07622 0.872908,0.975633 0.94688,0.975633 0.03695,0 0.144669,0.06667 0.239371,0.148166 0.152449,0.131182 0.409891,0.241792 0.6208,0.266728 0.03926,0.0046 -0.07632,-0.172536 -0.256855,-0.393728 z"
         id="path25805" />
      <path
         style="fill:#a3a3a3;fill-opacity:1;stroke-width:0.0846667"
         d="m 13.169651,50.80807 v -5.418666 h 5.418666 5.418667 v 5.418666 5.418667 h -5.418667 -5.418666 z m 1.127773,3.924065 c -0.04185,-1.014153 -0.09617,-1.446457 -0.231396,-1.8415 -0.163389,-0.477316 -0.197453,-0.518231 -0.451877,-0.542762 l -0.275167,-0.02653 v 1.868031 1.868031 h 0.506562 0.506562 z m 1.32756,0.986602 c 0,-0.244593 0.03528,-0.338667 0.127,-0.338667 0.09172,0 0.127,0.09407 0.127,0.338667 v 0.338667 h 0.47528 0.47528 l -0.05789,-0.386018 C 16.592182,54.474557 16.14219,53.458242 15.487558,52.77122 l -0.458783,-0.481483 0.269307,0.445916 c 0.399174,0.660948 0.654179,2.136417 0.369236,2.136417 -0.08179,0 -0.127463,-0.08289 -0.1283,-0.232833 -0.0018,-0.32117 -0.316183,-1.541676 -0.439599,-1.706587 -0.298768,-0.399219 -0.542515,-0.60058 -0.727,-0.60058 -0.161396,0 -0.19223,0.03145 -0.145265,0.148167 0.2083,0.517662 0.292555,1.065477 0.345083,2.243667 l 0.05945,1.3335 h 0.496648 0.496648 z m 4.602944,-0.105833 c 0.02984,-0.244475 0.07763,-0.530225 0.106198,-0.635 l 0.05194,-0.1905 H 18.63065 16.875234 l 0.05194,0.1905 c 0.02857,0.104775 0.07636,0.390525 0.106199,0.635 l 0.05426,0.4445 h 1.543019 1.543019 z m 1.154389,0.105833 c 0,-0.244593 0.03528,-0.338667 0.127,-0.338667 0.09172,0 0.127,0.09407 0.127,0.338667 v 0.338667 h 0.496169 0.49617 l 0.0601,-1.2627 c 0.05415,-1.137502 0.166399,-1.895757 0.342641,-2.314467 0.04988,-0.118494 0.01948,-0.148167 -0.151761,-0.148167 -0.475746,0 -0.996509,0.950264 -1.125175,2.053167 -0.04096,0.351121 -0.09221,0.486833 -0.18383,0.486833 -0.281036,0 0.04843,-1.608728 0.459259,-2.242458 l 0.220328,-0.339875 -0.354385,0.338667 c -0.675692,0.645722 -1.114137,1.530544 -1.355077,2.734667 -0.141323,0.706281 -0.147791,0.694333 0.375891,0.694333 h 0.465666 z m 2.455334,-1.529623 v -1.868291 l -0.232834,0.02679 c -0.383066,0.04408 -0.573617,0.752994 -0.640939,2.384522 l -0.05469,1.325269 h 0.464229 0.464229 z m -3.277468,0.09029 c 0.04335,-0.165757 0.0026,-0.169334 -1.929532,-0.169334 -1.93213,0 -1.972879,0.0036 -1.929532,0.169334 0.04261,0.162937 0.115486,0.169333 1.929532,0.169333 1.814045,0 1.886923,-0.0064 1.929532,-0.169333 z m 0.229468,-0.543409 c 0,-0.01947 0.02313,-0.09567 0.05139,-0.169333 0.04519,-0.117754 -0.07738,-0.133925 -1.015039,-0.133925 h -1.066431 l -0.02213,-3.407833 c -0.01924,-2.962906 -0.03871,-3.407833 -0.149128,-3.407833 -0.110418,0 -0.129888,0.444927 -0.149127,3.407833 l -0.02213,3.407833 h -1.015039 c -0.558272,0 -1.01504,0.01593 -1.01504,0.03541 0,0.01947 0.02313,0.09567 0.05139,0.169333 0.045,0.117257 0.318972,0.133925 2.201333,0.133925 1.182468,0 2.149942,-0.01593 2.149942,-0.03541 z m -2.711062,-3.118424 -0.0017,-2.4765 -0.37002,0.774188 c -0.614403,1.285511 -1.616481,2.59631 -2.155511,2.819584 -0.322169,0.133447 -0.272733,0.328828 0.231448,0.914727 l 0.382503,0.4445 h 0.957519 0.957519 z m 3.361643,2.074333 c 0.186132,-0.221192 0.357832,-0.504687 0.381555,-0.629988 0.03596,-0.18992 0.0028,-0.24455 -0.199604,-0.328367 -0.536014,-0.222024 -1.539523,-1.535998 -2.152388,-2.81829 l -0.37002,-0.774188 -0.0017,2.4765 -0.0017,2.476499 h 1.002747 1.002747 z m -7.280572,-1.5335 c 0.441893,-0.881272 0.708577,-1.981872 0.767026,-3.1655 0.03399,-0.688363 0.07297,-0.910167 0.159955,-0.910167 0.08648,0 0.114594,0.152267 0.113333,0.613834 -0.003,1.108588 -0.269996,2.503005 -0.640414,3.344991 l -0.195839,0.445157 0.198187,-0.148824 c 0.23178,-0.174051 1.009634,-1.357225 1.391991,-2.117324 0.146984,-0.292195 0.322517,-0.529167 0.391971,-0.529167 0.06918,0 0.125781,0.04302 0.125781,0.0956 0,0.218859 -0.838675,1.662256 -1.380544,2.375978 -0.536696,0.706908 -0.564668,0.763576 -0.350361,0.709788 0.530538,-0.133156 1.339272,-0.864392 1.926664,-1.742037 0.171414,-0.256116 0.340782,-0.503766 0.376373,-0.550333 0.03559,-0.04657 0.247678,-0.476027 0.471304,-0.954357 0.412938,-0.883262 0.819231,-2.262896 0.819231,-2.781833 v -0.285477 h -0.592667 -0.592667 v 0.502465 c 0,0.875702 -0.369449,2.291535 -0.597956,2.291535 -0.115681,0 -0.0876,-0.193702 0.164597,-1.135377 0.09865,-0.36834 0.179359,-0.892215 0.179359,-1.164166 v -0.494457 h -0.826328 -0.826329 l 8.29e-4,0.521166 c 5.43e-4,0.341804 -0.0356,0.533633 -0.105005,0.557389 -0.07762,0.02657 -0.105833,-0.11238 -0.105833,-0.521166 v -0.557389 h -0.846667 -0.846667 v 3.180624 3.180624 l 0.232834,-0.02679 c 0.198543,-0.02285 0.285117,-0.131061 0.587842,-0.73479 z m 7.91733,-0.0067 c -0.535009,-0.704686 -1.372006,-2.1473 -1.372006,-2.364733 0,-0.05258 0.0566,-0.0956 0.125781,-0.0956 0.06945,0 0.244987,0.236972 0.391971,0.529167 0.382357,0.760099 1.16021,1.943273 1.391991,2.117324 l 0.198187,0.148824 -0.195839,-0.445157 c -0.370418,-0.841986 -0.637385,-2.236403 -0.640414,-3.344991 -0.0013,-0.461567 0.02685,-0.613834 0.113333,-0.613834 0.08698,0 0.125963,0.221804 0.159955,0.910167 0.05845,1.183628 0.325133,2.284228 0.767025,3.1655 0.302726,0.603729 0.389301,0.711945 0.587843,0.73479 l 0.232834,0.02679 v -3.180624 -3.180624 h -0.846667 -0.846667 v 0.557389 c 0,0.408786 -0.02822,0.547732 -0.105833,0.521166 -0.06941,-0.02376 -0.105548,-0.215585 -0.105004,-0.557389 l 8.29e-4,-0.521166 h -0.82633 -0.826328 v 0.494457 c 0,0.271951 0.08071,0.795826 0.179359,1.164166 0.252197,0.941675 0.280278,1.135377 0.164597,1.135377 -0.228507,0 -0.597956,-1.415833 -0.597956,-2.291535 v -0.502465 h -0.592667 -0.592667 v 0.285477 c 0,0.518937 0.406293,1.898571 0.819231,2.781833 0.223626,0.47833 0.435713,0.90779 0.471304,0.954357 0.03559,0.04657 0.202574,0.294217 0.371074,0.550333 0.547674,0.832457 1.623925,1.76843 2.042257,1.776072 0.05804,0.0011 -0.153095,-0.33872 -0.469193,-0.755068 z"
         id="path25803" />
      <path
         style="fill:#8c8c8c;fill-opacity:1;stroke-width:0.0846667"
         d="m 13.169651,50.80807 v -5.418666 h 5.418666 5.418667 v 5.418666 5.418667 h -5.418667 -5.418666 z m 1.143656,4.0005 c -0.07569,-1.8225 -0.266493,-2.4765 -0.722497,-2.4765 h -0.251826 v 1.862667 1.862667 h 0.513096 0.513096 z m 1.311677,0.910167 c 0,-0.244593 0.03528,-0.338667 0.127,-0.338667 0.09172,0 0.127,0.09407 0.127,0.338667 v 0.338667 h 0.47528 0.47528 l -0.05632,-0.402167 c -0.16314,-1.16491 -0.691,-2.33001 -1.337248,-2.951593 -0.309971,-0.29814 -0.38257,-0.342865 -0.259566,-0.159907 0.275298,0.409482 0.433262,0.812615 0.528611,1.34905 0.125776,0.707611 0.115317,0.979283 -0.0377,0.979283 -0.07524,0 -0.127029,-0.07764 -0.12707,-0.1905 -1.1e-4,-0.310472 -0.251408,-1.421736 -0.375769,-1.661705 -0.199504,-0.384966 -0.535497,-0.687795 -0.763119,-0.687795 -0.11864,0 -0.215709,0.01309 -0.215709,0.02908 0,0.01599 0.07519,0.247623 0.167089,0.514732 0.0919,0.26711 0.161072,0.511199 0.153716,0.542422 -0.0074,0.03122 0.01702,0.637792 0.05416,1.347934 l 0.06754,1.291167 h 0.498414 0.498413 z m 4.599494,-0.02117 c 0.02778,-0.197908 0.07582,-0.483658 0.106758,-0.635 l 0.05625,-0.275166 H 18.630653 16.87382 l 0.05625,0.275166 c 0.03094,0.151342 0.07898,0.437092 0.106759,0.635 l 0.05051,0.359834 h 1.543317 1.543317 z m 1.157839,0.02117 c 0,-0.244593 0.03528,-0.338667 0.127,-0.338667 0.09172,0 0.127,0.09407 0.127,0.338667 v 0.338667 h 0.492186 0.492185 l 0.09388,-1.4605 c 0.05715,-0.889034 0.146156,-1.605461 0.227481,-1.830978 0.167244,-0.463766 0.172904,-0.433856 -0.08211,-0.433856 -0.469789,0 -0.915768,0.772146 -1.07433,1.860042 -0.07114,0.488102 -0.133374,0.679958 -0.220558,0.679958 -0.281867,0 0.09125,-1.707403 0.504899,-2.310441 0.176527,-0.25735 0.167102,-0.253778 -0.176207,0.06677 -0.709128,0.662122 -1.238338,1.791206 -1.398858,2.9845 l -0.05979,0.4445 h 0.473612 0.473611 z m 2.455334,-1.524 V 52.33207 h -0.209493 c -0.409457,0 -0.607211,0.720032 -0.680163,2.4765 l -0.05187,1.248834 h 0.470763 0.470763 z m -3.277468,0.08467 c 0.04335,-0.165757 0.0026,-0.169334 -1.929532,-0.169334 -1.93213,0 -1.972879,0.0036 -1.929532,0.169334 0.04261,0.162937 0.115486,0.169333 1.929532,0.169333 1.814045,0 1.886923,-0.0064 1.929532,-0.169333 z m 0.229468,-0.543409 c 0,-0.01947 0.02313,-0.09567 0.05139,-0.169333 0.04519,-0.117754 -0.07738,-0.133925 -1.015039,-0.133925 h -1.066431 l -0.02213,-3.407833 c -0.01924,-2.962906 -0.03871,-3.407833 -0.149128,-3.407833 -0.110418,0 -0.129888,0.444927 -0.149127,3.407833 l -0.02213,3.407833 h -1.015039 c -0.558272,0 -1.01504,0.01593 -1.01504,0.03541 0,0.01947 0.02313,0.09567 0.05139,0.169333 0.045,0.117257 0.318972,0.133925 2.201333,0.133925 1.182468,0 2.149942,-0.01593 2.149942,-0.03541 z m -2.714125,-3.118424 -0.0048,-2.4765 -0.319615,0.679585 c -0.602293,1.280634 -1.669621,2.694583 -2.199791,2.914187 -0.322169,0.133447 -0.272733,0.328828 0.231448,0.914727 l 0.382503,0.4445 h 0.957519 0.957519 z m 3.364706,2.074333 c 0.186132,-0.221192 0.357832,-0.504687 0.381555,-0.629988 0.03596,-0.18992 0.0028,-0.24455 -0.199604,-0.328367 -0.527155,-0.218355 -1.595978,-1.635669 -2.196668,-2.912893 l -0.319615,-0.679585 -0.0048,2.4765 -0.0048,2.476499 h 1.002747 1.002747 z M 14.165265,51.14674 c 0.456088,-0.910201 0.68805,-1.83607 0.76454,-3.051638 0.04057,-0.644726 0.09467,-0.967794 0.166013,-0.991422 0.07779,-0.02576 0.105701,0.118244 0.105334,0.543505 -9.91e-4,1.148092 -0.287053,2.495189 -0.806074,3.795888 -0.237165,0.594353 1.102928,-1.289098 1.611308,-2.264632 0.225679,-0.433057 0.465265,-0.639011 0.465265,-0.399953 0,0.272954 -0.825681,1.660221 -1.510333,2.537585 -0.236199,0.302684 -0.394768,0.562461 -0.352376,0.577284 0.320866,0.112192 1.484639,-0.898146 2.127821,-1.847283 0.760143,-1.121737 1.475158,-2.914398 1.570758,-3.938152 l 0.05128,-0.549182 h -0.592377 -0.592378 l -0.05107,0.740834 c -0.05216,0.756698 -0.305088,1.825455 -0.471353,1.991721 -0.19382,0.193819 -0.198567,-0.0437 -0.01335,-0.667622 0.105663,-0.355928 0.212017,-0.966145 0.236342,-1.356037 l 0.04423,-0.708896 H 16.08059 15.242327 l 8.29e-4,0.521166 c 5.43e-4,0.341804 -0.0356,0.533633 -0.105005,0.557389 -0.07762,0.02657 -0.105833,-0.11238 -0.105833,-0.521166 V 45.55874 h -0.846667 -0.846667 v 3.180624 3.180624 l 0.232834,-0.02679 c 0.198924,-0.02289 0.285352,-0.131601 0.593447,-0.746457 z m 8.425814,0.656167 c -0.04509,-0.05821 -0.245127,-0.315384 -0.444538,-0.5715 -0.618387,-0.794235 -1.441557,-2.194922 -1.441557,-2.452919 0,-0.239058 0.239586,-0.0331 0.465265,0.399953 0.508381,0.975534 1.848474,2.858985 1.611308,2.264632 -0.519021,-1.300699 -0.805084,-2.647796 -0.806073,-3.795888 -3.39e-4,-0.425261 0.02754,-0.569269 0.105333,-0.543505 0.07135,0.02363 0.125444,0.346696 0.166013,0.991422 0.07649,1.215568 0.308452,2.141437 0.76454,3.051638 0.308095,0.614856 0.394523,0.723568 0.593447,0.746457 l 0.232834,0.02679 v -3.180624 -3.180624 h -0.846667 -0.846667 v 0.557389 c 0,0.408786 -0.02822,0.547732 -0.105833,0.521166 -0.06941,-0.02376 -0.105548,-0.215585 -0.105004,-0.557389 l 8.29e-4,-0.521166 h -0.838264 -0.838263 l 0.04423,0.708896 c 0.02433,0.389892 0.130679,1.000109 0.236342,1.356037 0.185222,0.623923 0.180475,0.861441 -0.01335,0.667622 -0.166265,-0.166266 -0.419194,-1.235023 -0.471353,-1.991721 l -0.05107,-0.740834 h -0.592378 -0.592377 l 0.05128,0.549182 c 0.0956,1.023754 0.810615,2.816415 1.570758,3.938152 0.637943,0.941405 1.675544,1.853414 2.116979,1.860738 0.0803,0.0013 0.09088,-0.03077 0.03423,-0.103905 z"
         id="path25801" />
      <path
         style="fill:#767676;fill-opacity:1;stroke-width:0.0846667"
         d="m 13.169651,50.80807 v -5.418666 h 5.418666 5.418667 v 5.418666 5.418667 h -5.418667 -5.418666 z m 1.144503,3.958167 c -0.04103,-0.930052 -0.105786,-1.451004 -0.231523,-1.862667 -0.170301,-0.557561 -0.181498,-0.5715 -0.459102,-0.5715 h -0.284545 v 1.862667 1.862667 h 0.516068 0.516068 z m 1.31083,0.9525 c 0,-0.244593 0.03528,-0.338667 0.127,-0.338667 0.09172,0 0.127,0.09407 0.127,0.338667 v 0.338667 h 0.465667 c 0.554675,0 0.56111,-0.02306 0.295831,-1.060296 -0.278734,-1.089839 -0.885892,-2.16874 -1.438159,-2.555563 l -0.206649,-0.144743 0.175751,0.250468 c 0.280098,0.399176 0.433035,0.802273 0.531321,1.400402 0.123201,0.749751 0.116507,0.924398 -0.03543,0.924398 -0.08453,0 -0.127,-0.08453 -0.127,-0.252785 0,-0.289478 -0.133876,-0.896019 -0.312742,-1.416916 -0.161537,-0.47043 -0.539166,-0.870299 -0.821894,-0.870299 -0.121017,0 -0.219619,0.0095 -0.219115,0.02117 5.08e-4,0.01164 0.06131,0.211667 0.135121,0.4445 0.155648,0.490977 0.162637,0.551098 0.243608,2.0955 l 0.06104,1.164167 h 0.499327 0.499326 z m 4.61719,0.0635 c 0.0016,-0.151342 0.0335,-0.437092 0.07094,-0.635 l 0.06809,-0.359833 H 18.630651 16.8801 l 0.06809,0.359833 c 0.03745,0.197908 0.06937,0.483658 0.07094,0.635 l 0.0029,0.275167 h 1.608667 1.608666 l 0.0029,-0.275167 z m 1.140143,-0.0635 c 0,-0.244593 0.03528,-0.338667 0.127,-0.338667 0.09172,0 0.127,0.09407 0.127,0.338667 v 0.338667 h 0.499327 0.499326 l 0.0584,-1.164167 c 0.05323,-1.061111 0.190683,-2.031746 0.341705,-2.413 0.04502,-0.113657 0.01585,-0.148167 -0.125266,-0.148167 -0.293458,0 -0.49103,0.146597 -0.716815,0.53187 -0.22512,0.384137 -0.468703,1.28082 -0.47076,1.732964 -8.97e-4,0.197331 -0.04027,0.275166 -0.139187,0.275166 -0.118808,0 -0.129819,-0.07175 -0.0794,-0.517371 0.07616,-0.673132 0.314375,-1.429291 0.558122,-1.771603 l 0.194043,-0.272507 -0.205149,0.134419 c -0.193732,0.126938 -0.644168,0.683567 -0.940008,1.161622 -0.184511,0.298154 -0.554823,1.495949 -0.624216,2.019061 l -0.05727,0.431713 h 0.476574 0.476574 z m 2.455334,-1.524 V 52.33207 H 23.59544 c -0.225342,0 -0.254369,0.03981 -0.416769,0.5715 -0.125737,0.411663 -0.190489,0.932615 -0.231523,1.862667 l -0.05697,1.291167 h 0.473734 0.473735 z m -3.277468,0.08467 c 0.04335,-0.165757 0.0026,-0.169334 -1.929532,-0.169334 -1.93213,0 -1.972879,0.0036 -1.929532,0.169334 0.04261,0.162937 0.115486,0.169333 1.929532,0.169333 1.814045,0 1.886923,-0.0064 1.929532,-0.169333 z m 0.229468,-0.543409 c 0,-0.01947 0.02313,-0.09567 0.05139,-0.169333 0.04519,-0.117758 -0.07746,-0.133925 -1.015999,-0.133925 H 18.75765 l -0.0013,-3.3655 c -7.96e-4,-2.064048 -0.03354,-3.414611 -0.08467,-3.4925 -0.211183,-0.321699 -0.250147,0.21958 -0.251407,3.4925 l -0.0013,3.3655 h -1.016 c -0.5588,0 -1.016,0.01593 -1.016,0.03541 0,0.01947 0.02313,0.09567 0.05139,0.169333 0.045,0.117257 0.318972,0.133925 2.201333,0.133925 1.182468,0 2.149942,-0.01593 2.149942,-0.03541 z m -2.71281,-3.160758 -0.0035,-2.518833 -0.216785,0.508 c -0.522268,1.223853 -1.554059,2.678643 -2.183034,3.078004 -0.420994,0.267305 -0.413448,0.363742 0.07844,1.002341 l 0.338667,0.439678 0.994833,0.0048 0.994834,0.0048 z m 3.390143,2.113365 c 0.450523,-0.606404 0.456013,-0.776349 0.0338,-1.046194 -0.628287,-0.40155 -1.660007,-1.857779 -2.180727,-3.078004 l -0.216785,-0.508 -0.0035,2.518833 -0.0035,2.518833 1.037167,-0.0033 1.037167,-0.0033 z m -7.486935,-1.128139 c 0.506379,-0.802155 0.850457,-1.989286 0.929727,-3.207726 0.06415,-0.986024 0.114177,-1.27 0.223729,-1.27 0.12951,0 0.03629,1.622404 -0.143515,2.497667 -0.07653,0.372533 -0.269902,1.001183 -0.429719,1.397 l -0.290576,0.719666 0.250659,-0.266666 c 0.311766,-0.331677 1.275112,-1.796893 1.536413,-2.336833 0.178275,-0.368381 0.414884,-0.541499 0.414884,-0.303557 0,0.26139 -1.050167,1.976663 -1.648483,2.692524 -0.350094,0.418872 -0.295136,0.512735 0.170763,0.291652 0.717599,-0.340524 1.792874,-1.599823 2.403009,-2.814267 0.393652,-0.783544 0.851152,-2.215603 0.910353,-2.849571 l 0.05151,-0.551615 h -0.60491 -0.60491 v 0.407784 c 0,0.854014 -0.356115,2.30155 -0.566216,2.30155 -0.0957,0 -0.115964,-0.05119 -0.07541,-0.1905 0.271069,-0.931112 0.387624,-1.527096 0.387624,-1.982044 V 45.55874 H 16.04159 15.188196 l 0.05724,0.260619 c 0.06744,0.307069 -0.01649,0.840048 -0.13229,0.840048 -0.04446,0 -0.08083,-0.24765 -0.08083,-0.550333 V 45.55874 h -0.846667 -0.846667 v 3.175 3.175 h 0.210605 c 0.154597,0 0.269072,-0.09262 0.43046,-0.348274 z m 8.576762,0.192025 c -0.06389,-0.08594 -0.315127,-0.419313 -0.558309,-0.740834 -0.454998,-0.601572 -1.293518,-2.040331 -1.293518,-2.219458 0,-0.239865 0.235873,-0.06853 0.414884,0.301375 0.261301,0.53994 1.224647,2.005156 1.536413,2.336833 l 0.25066,0.266666 -0.290577,-0.719666 c -0.159817,-0.395817 -0.353191,-1.024467 -0.429719,-1.397 -0.179803,-0.875263 -0.273026,-2.497667 -0.143514,-2.497667 0.109551,0 0.159578,0.283976 0.223728,1.27 0.108736,1.671337 0.829629,3.556 1.360187,3.556 h 0.210605 v -3.175 -3.175 h -0.846667 -0.846667 v 0.550334 c 0,0.302683 -0.03507,0.550333 -0.07794,0.550333 -0.11742,0 -0.199627,-0.482836 -0.138072,-0.810952 l 0.05435,-0.289715 h -0.850503 -0.850503 v 0.53679 c 0,0.454948 0.116555,1.050932 0.387624,1.982044 0.04056,0.13931 0.02029,0.1905 -0.07541,0.1905 -0.210101,0 -0.566216,-1.447536 -0.566216,-2.30155 V 45.55874 h -0.60491 -0.60491 l 0.05151,0.551615 c 0.0592,0.633968 0.516701,2.066027 0.910353,2.849571 0.733924,1.460838 2.124148,2.936049 2.777116,2.946886 0.09844,0.0016 0.09844,-0.02191 0,-0.154321 z"
         id="path25799" />
      <path
         style="fill:#606060;fill-opacity:1;stroke-width:0.0846667"
         d="m 13.169651,50.80807 v -5.418666 h 5.418666 5.418667 v 5.418666 5.418667 h -5.418667 -5.418666 z m 1.146218,3.919584 C 14.272648,53.797967 14.204528,53.237572 14.089448,52.864987 13.928927,52.34528 13.917586,52.33207 13.631916,52.33207 h -0.292932 v 1.862667 1.862667 h 0.519352 0.519352 z m 1.309115,0.991083 c 0,-0.244593 0.03528,-0.338667 0.127,-0.338667 0.09172,0 0.127,0.09407 0.127,0.338667 v 0.338667 h 0.465667 c 0.451871,0 0.465628,-0.0069 0.464367,-0.232834 -0.0055,-0.990672 -0.915656,-2.932225 -1.577926,-3.366161 l -0.214076,-0.140268 0.233897,0.409131 c 0.128643,0.225023 0.259761,0.447232 0.291372,0.493798 0.06321,0.09312 0.252033,1.199522 0.252033,1.47681 0,0.0958 -0.0523,0.17419 -0.116228,0.17419 -0.07517,0 -0.13395,-0.142059 -0.166399,-0.402166 -0.126763,-1.016138 -0.245513,-1.375914 -0.613302,-1.85811 -0.156404,-0.205056 -0.280006,-0.279724 -0.463047,-0.279724 -0.13733,0 -0.249279,0.0095 -0.248775,0.02117 5.08e-4,0.01164 0.06096,0.211667 0.134344,0.4445 0.136812,0.434071 0.150103,0.555514 0.247874,2.264833 l 0.0569,0.994834 h 0.499648 0.499647 z m 4.617287,0.105833 c 0.0016,-0.128058 0.03254,-0.413808 0.06869,-0.635 l 0.06573,-0.402166 h -1.746042 -1.746042 l 0.06573,0.402166 c 0.03615,0.221192 0.06706,0.506942 0.06869,0.635 l 0.003,0.232834 h 1.608667 1.608666 z m 1.140046,-0.105833 c 0,-0.244593 0.03528,-0.338667 0.127,-0.338667 0.09172,0 0.127,0.09407 0.127,0.338667 v 0.338667 h 0.508 c 0.497433,0 0.508027,-0.0048 0.509256,-0.232834 0.0044,-0.809382 0.183831,-2.671139 0.291774,-3.026833 0.07066,-0.232833 0.128883,-0.432858 0.129388,-0.4445 5.08e-4,-0.01164 -0.111445,-0.02117 -0.248776,-0.02117 -0.465722,0 -0.962274,0.918914 -1.071233,1.982414 -0.03956,0.386096 -0.09259,0.557586 -0.172434,0.557586 -0.260985,0 0.0041,-1.398888 0.397076,-2.09514 l 0.262916,-0.465861 -0.255581,0.18199 c -0.294131,0.20944 -0.937307,1.155237 -1.138103,1.673593 -0.168451,0.434859 -0.397616,1.405622 -0.397616,1.684339 0,0.193752 0.02856,0.206413 0.465667,0.206413 h 0.465666 z m 2.455334,-1.524 V 52.33207 h -0.250598 c -0.23371,0 -0.261691,0.03591 -0.4152,0.532917 -0.11508,0.372585 -0.1832,0.93298 -0.22642,1.862667 l -0.06182,1.32975 h 0.477018 0.477019 z m -3.302,0.218592 c 0,-0.01947 0.02313,-0.09567 0.05139,-0.169334 0.04597,-0.119791 -0.159543,-0.133925 -1.947334,-0.133925 -1.099299,0 -1.998725,0.01593 -1.998725,0.03541 0,0.01947 0.02313,0.09567 0.05139,0.169333 0.04474,0.116605 0.296587,0.133925 1.947333,0.133925 1.042768,0 1.895942,-0.01593 1.895942,-0.03541 z m 0.338666,-0.811259 c 0.08847,-0.165304 0.06439,-0.169333 -1.012071,-0.169333 H 18.75955 l -0.02212,-3.450166 c -0.01923,-3.000541 -0.03867,-3.450167 -0.149117,-3.450167 -0.110449,0 -0.129882,0.449626 -0.149116,3.450167 l -0.02212,3.450166 h -1.060363 c -1.034126,0 -1.05812,0.0042 -0.969738,0.169333 0.08698,0.162519 0.177277,0.169334 2.243667,0.169334 2.066389,0 2.156689,-0.0068 2.243666,-0.169334 z m -2.795728,-3.026833 -0.0017,-2.518833 -0.378088,0.791167 c -0.207948,0.435142 -0.547059,1.045336 -0.75358,1.355987 -0.36479,0.548724 -1.393342,1.620512 -1.555139,1.620512 -0.169739,0 0.01359,0.430536 0.328649,0.771805 0.181289,0.196371 0.329616,0.388798 0.329616,0.427616 0,0.03882 0.4572,0.07058 1.016,0.07058 h 1.016 z m 3.388395,2.113365 c 0.2994,-0.402993 0.47058,-0.864532 0.320645,-0.864532 -0.162664,0 -1.190243,-1.070053 -1.556186,-1.620512 -0.206521,-0.310651 -0.545632,-0.920845 -0.75358,-1.355987 l -0.378088,-0.791167 -0.0017,2.518833 -0.0017,2.518833 1.037167,-0.0033 1.037167,-0.0033 z m -7.494475,-1.097365 c 0.498598,-0.731889 0.973839,-2.481012 0.974802,-3.58775 4.29e-4,-0.494201 0.08394,-0.92075 0.180257,-0.92075 0.101681,0 0.09254,0.818522 -0.01939,1.735667 -0.102336,0.838572 -0.403303,1.885183 -0.730411,2.54 l -0.211472,0.423333 0.26727,-0.252117 c 0.333025,-0.314144 1.2667,-1.701274 1.582712,-2.351383 0.130155,-0.267758 0.285858,-0.486833 0.346007,-0.486833 0.136311,0 0.136339,-5.76e-4 -0.01804,0.368899 -0.212374,0.508282 -0.865213,1.564073 -1.3621,2.202829 -0.540946,0.695394 -0.467393,0.832383 0.21263,0.396013 0.848024,-0.544175 1.70822,-1.654617 2.356674,-3.04227 0.403032,-0.862465 0.782863,-2.187169 0.782863,-2.730327 v -0.327811 h -0.580569 -0.580568 l -0.04511,0.658204 c -0.05924,0.864355 -0.376641,2.05113 -0.548565,2.05113 -0.09348,0 -0.111716,-0.05093 -0.06819,-0.1905 0.225524,-0.723173 0.382451,-1.538373 0.383015,-1.989667 l 6.6e-4,-0.529167 h -0.856541 c -0.839258,0 -0.855565,0.0037 -0.808122,0.185157 0.06258,0.239287 -0.02964,0.91551 -0.124845,0.91551 -0.04024,0 -0.07316,-0.24765 -0.07316,-0.550333 v -0.550334 h -0.846667 -0.846667 v 3.175 3.175 h 0.208615 c 0.146168,0 0.273359,-0.09504 0.42491,-0.3175 z m 8.625717,0.211667 c -0.03525,-0.05821 -0.243997,-0.335653 -0.463888,-0.616545 -0.43451,-0.555044 -1.098764,-1.639755 -1.301954,-2.126056 -0.154376,-0.369476 -0.154348,-0.368899 -0.01804,-0.368899 0.06015,0 0.215852,0.219075 0.346007,0.486833 0.316012,0.650109 1.249687,2.037239 1.582712,2.351383 l 0.26727,0.252117 -0.211472,-0.423333 c -0.327108,-0.654817 -0.628075,-1.701428 -0.730411,-2.54 -0.111925,-0.917145 -0.121067,-1.735667 -0.01939,-1.735667 0.09632,0 0.179828,0.426549 0.180257,0.92075 0.0014,1.584798 0.83307,3.90525 1.399712,3.90525 h 0.208615 v -3.175 -3.175 H 22.990977 22.14431 v 0.550334 c 0,0.302683 -0.03292,0.550333 -0.07316,0.550333 -0.09521,0 -0.18742,-0.676223 -0.124845,-0.91551 0.04744,-0.18142 0.03114,-0.185157 -0.808122,-0.185157 h -0.856541 l 6.6e-4,0.529167 c 5.67e-4,0.451294 0.157491,1.266494 0.383014,1.989667 0.04353,0.139566 0.02529,0.1905 -0.06819,0.1905 -0.171924,0 -0.489321,-1.186775 -0.548565,-2.05113 l -0.04511,-0.658204 h -0.580568 -0.580569 v 0.327811 c 0,0.543158 0.379831,1.867862 0.782863,2.730327 0.641246,1.372228 1.453287,2.430903 2.30634,3.006822 0.424566,0.286635 0.791476,0.385258 0.666706,0.179207 z"
         id="path25797" />
      <path
         style="fill:#494949;fill-opacity:1;stroke-width:0.0846667"
         d="m 13.169651,50.80807 v -5.418666 h 5.418666 5.418667 v 5.418666 5.418667 h -5.418667 -5.418666 z m 1.161457,3.958176 c -0.04483,-0.874244 -0.120801,-1.475718 -0.235271,-1.862676 -0.166642,-0.563326 -0.173263,-0.5715 -0.462956,-0.5715 h -0.293897 v 1.862667 1.862667 l 0.529167,9e-6 0.529167,9e-6 z m 1.293876,0.952491 c 0,-0.244593 0.03528,-0.338667 0.127,-0.338667 0.09172,0 0.127,0.09407 0.127,0.338667 v 0.338667 h 0.465667 c 0.451859,0 0.465629,-0.0069 0.464415,-0.232834 -0.0054,-1.011577 -0.985109,-3.074785 -1.621795,-3.415529 -0.151424,-0.08104 -0.144334,-0.04555 0.06355,0.318073 0.128694,0.225109 0.259854,0.44739 0.291465,0.493956 0.06321,0.09312 0.252033,1.199522 0.252033,1.47681 0,0.0958 -0.05347,0.17419 -0.118829,0.17419 -0.07927,0 -0.133164,-0.133876 -0.161892,-0.402166 -0.100165,-0.935441 -0.319857,-1.574094 -0.669507,-1.946279 -0.173637,-0.184828 -0.658439,-0.272831 -0.658439,-0.119522 0,0.06816 0.128486,0.497973 0.231565,0.774634 0.02602,0.06985 0.06014,0.3937 0.07581,0.719667 0.01567,0.325966 0.05173,0.945091 0.08013,1.375833 l 0.05164,0.783167 h 0.500099 0.500098 z m 4.61944,0.148167 c 0.0028,-0.104775 0.03496,-0.390525 0.07145,-0.635 l 0.06634,-0.4445 h -1.751556 -1.751557 l 0.06634,0.4445 c 0.03649,0.244475 0.06864,0.530225 0.07145,0.635 l 0.0051,0.1905 h 1.608667 1.608666 z m 1.137893,-0.148167 c 0,-0.244593 0.03528,-0.338667 0.127,-0.338667 0.09172,0 0.127,0.09407 0.127,0.338667 v 0.338667 h 0.495758 0.495756 l 0.05398,-0.5715 c 0.02969,-0.314325 0.05491,-0.81915 0.05605,-1.121834 0.0018,-0.481401 0.125523,-1.235638 0.302045,-1.8415 0.0489,-0.167831 0.025,-0.1905 -0.200845,-0.1905 -0.486622,0 -0.991972,0.927453 -1.092618,2.005246 -0.03446,0.368975 -0.08551,0.534754 -0.164693,0.534754 -0.259339,0 0.0047,-1.398993 0.394423,-2.089462 0.199358,-0.353244 0.224479,-0.441194 0.108099,-0.378468 -0.630634,0.339896 -1.460698,1.986504 -1.600336,3.174607 l -0.05626,0.478657 H 20.905 21.382323 Z m 2.455334,-1.524 V 52.33207 h -0.251564 c -0.237429,0 -0.261061,0.03211 -0.420623,0.5715 -0.114469,0.386958 -0.19044,0.988432 -0.23527,1.862676 l -0.06621,1.291176 0.486833,-9e-6 0.486834,-9e-6 z m -3.302,0.218592 c 0,-0.01947 0.02313,-0.09567 0.05139,-0.169334 0.04597,-0.119791 -0.159543,-0.133925 -1.947334,-0.133925 -1.099299,0 -1.998725,0.01593 -1.998725,0.03541 0,0.01947 0.02313,0.09567 0.05139,0.169333 0.04474,0.116605 0.296587,0.133925 1.947333,0.133925 1.042768,0 1.895942,-0.01593 1.895942,-0.03541 z m 0.338666,-0.811259 c 0.08847,-0.165304 0.06439,-0.169333 -1.012071,-0.169333 H 18.75955 l -0.02212,-3.450166 c -0.01923,-3.000541 -0.03867,-3.450167 -0.149117,-3.450167 -0.110449,0 -0.129882,0.449626 -0.149116,3.450167 l -0.02212,3.450166 h -1.060363 c -1.034126,0 -1.05812,0.0042 -0.969738,0.169333 0.08698,0.162519 0.177277,0.169334 2.243667,0.169334 2.066389,0 2.156689,-0.0068 2.243666,-0.169334 z m -2.795728,-3.026833 -0.0017,-2.518833 -0.374466,0.783546 c -0.205957,0.43095 -0.569329,1.065424 -0.807494,1.409942 -0.419566,0.606924 -1.34486,1.574178 -1.505889,1.574178 -0.173172,0 0.0265,0.476219 0.333742,0.795963 0.179061,0.186348 0.325565,0.36924 0.325565,0.406426 0,0.03719 0.4572,0.06761 1.016,0.06761 h 1.016 z m 3.1348,2.455333 c 2.2e-4,-0.03492 0.128793,-0.203279 0.285714,-0.37412 0.268126,-0.291913 0.453566,-0.83238 0.285599,-0.83238 -0.158539,0 -1.086978,-0.972428 -1.502967,-1.574178 C 20.04357,49.905374 19.680198,49.2709 19.474241,48.83995 l -0.374466,-0.783546 -0.0017,2.518833 -0.0017,2.518833 h 1.058334 c 0.582083,0 1.058515,-0.02858 1.058738,-0.0635 z m -7.088913,-1.693333 c 0.51037,-0.977247 0.705849,-1.803755 0.871073,-3.683 0.05853,-0.665695 0.206102,-0.769397 0.206102,-0.144829 0,1.295345 -0.338724,2.877791 -0.82388,3.848996 l -0.211472,0.423333 0.268319,-0.253122 c 0.316047,-0.298147 1.147259,-1.495426 1.502979,-2.164893 0.349314,-0.65741 0.366618,-0.681139 0.456303,-0.625711 0.128165,0.07921 -0.628723,1.450737 -1.275085,2.310527 -0.326973,0.434941 -0.594497,0.806416 -0.594497,0.8255 0,0.109834 0.356783,0.0019 0.681923,-0.20636 1.383648,-0.886113 2.948251,-3.671037 3.103623,-5.52431 l 0.04901,-0.584631 H 17.76648 17.174082 l -0.05283,0.685145 c -0.06914,0.896626 -0.370465,2.024189 -0.540931,2.024189 -0.08664,0 -0.108218,-0.04692 -0.06816,-0.148167 0.188563,-0.476557 0.382824,-1.482332 0.382824,-1.982044 v -0.579123 h -0.846666 -0.846667 v 0.550334 c 0,0.310444 -0.03691,0.550333 -0.08467,0.550333 -0.04776,0 -0.08467,-0.239889 -0.08467,-0.550333 v -0.550334 h -0.846667 -0.846667 v 3.175 3.175 h 0.243513 c 0.21471,0 0.278815,-0.0676 0.541979,-0.5715 z m 8.527841,0.536801 c 0,-0.01908 -0.267523,-0.390559 -0.594498,-0.8255 -0.646361,-0.85979 -1.403249,-2.231316 -1.275084,-2.310527 0.08969,-0.05543 0.106989,-0.0317 0.456303,0.625711 0.35572,0.669467 1.186932,1.866746 1.502979,2.164893 l 0.268319,0.253122 -0.211472,-0.423333 c -0.485157,-0.971205 -0.82388,-2.553651 -0.82388,-3.848996 0,-0.624568 0.147574,-0.520866 0.206102,0.144829 0.165224,1.879245 0.360703,2.705753 0.871072,3.683 0.263165,0.503904 0.32727,0.5715 0.54198,0.5715 h 0.243513 v -3.175 -3.175 h -0.846667 -0.846667 v 0.550334 c 0,0.310444 -0.03691,0.550333 -0.08467,0.550333 -0.04776,0 -0.08467,-0.239889 -0.08467,-0.550333 V 45.558737 H 21.12831 20.281644 v 0.579123 c 0,0.499712 0.194261,1.505487 0.382824,1.982044 0.04006,0.101247 0.01848,0.148167 -0.06816,0.148167 -0.170466,0 -0.471788,-1.127563 -0.540931,-2.024189 l -0.05283,-0.685145 h -0.592398 -0.592397 l 0.04901,0.584631 c 0.155372,1.853273 1.719975,4.638197 3.103622,5.52431 0.325141,0.208225 0.681924,0.316194 0.681924,0.20636 z"
         id="path25795" />
      <path
         style="fill:#333333;fill-opacity:1;stroke-width:0.0846667"
         d="m 13.169651,50.80807 v -5.418666 h 5.418666 5.418667 v 5.418666 5.418667 h -5.418667 -5.418666 z m 1.233922,5.058834 c -0.02162,-0.104775 -0.06276,-0.6858 -0.09144,-1.291167 -0.05061,-1.0685 -0.121505,-1.528299 -0.310052,-2.010833 -0.07428,-0.190107 -0.143472,-0.232834 -0.377039,-0.232834 H 13.33898 v 1.862667 1.862667 h 0.551947 c 0.52759,0 0.550212,-0.0084 0.512642,-0.1905 z m 1.230383,0.08467 c 0.0049,-0.05821 0.0021,-0.210608 -0.0064,-0.338666 -0.01068,-0.161966 0.02524,-0.232834 0.118029,-0.232834 0.09917,0 0.133381,0.08687 0.133381,0.338667 v 0.338667 h 0.465667 0.465667 v -0.276869 c 0,-0.499466 -0.336751,-1.563326 -0.689564,-2.178465 -0.04006,-0.06985 -0.106639,-0.2032 -0.147948,-0.296333 -0.126357,-0.284879 -0.777257,-0.973667 -0.920109,-0.973667 -0.111232,0 -0.104362,0.03303 0.03962,0.1905 0.200171,0.218917 0.478473,0.72345 0.50205,0.910167 0.0088,0.06985 0.05742,0.332225 0.107991,0.583056 0.122666,0.608371 0.118169,0.879055 -0.01388,0.835397 -0.09171,-0.03032 -0.1447,-0.241595 -0.260208,-1.037453 -0.111307,-0.76691 -0.591194,-1.481667 -0.994789,-1.481667 -0.13631,0 -0.247836,0.03242 -0.247836,0.07203 0,0.06722 0.124592,0.485218 0.230893,0.774634 0.02566,0.06985 0.06015,0.4699 0.07665,0.889 0.0165,0.4191 0.05256,1.038225 0.08012,1.375833 l 0.05012,0.613834 h 0.500776 c 0.339392,0 0.503667,-0.03411 0.509748,-0.105834 z m 4.604147,0 c -0.02103,-0.05821 0.01181,-0.343958 0.07298,-0.635 l 0.111209,-0.529166 h -1.791637 -1.791638 l 0.11121,0.529166 c 0.06116,0.291042 0.094,0.576792 0.07298,0.635 -0.02975,0.08235 0.326957,0.105834 1.607452,0.105834 1.280495,0 1.637201,-0.02349 1.607452,-0.105834 z m 1.144214,-0.232833 c 0,-0.251794 0.03421,-0.338667 0.133381,-0.338667 0.09278,0 0.128708,0.07087 0.118029,0.232834 -0.02896,0.439202 -0.02287,0.4445 0.51059,0.4445 0.2794,0 0.509194,-0.02857 0.510654,-0.0635 0.057,-1.363921 0.189051,-2.785613 0.289005,-3.1115 0.170244,-0.555059 0.171241,-0.550334 -0.116162,-0.550334 -0.480783,0 -0.954468,0.862413 -1.088997,1.982682 -0.03724,0.31012 -0.105137,0.515978 -0.178194,0.540287 -0.09608,0.03197 -0.107542,-0.05332 -0.06164,-0.458682 0.09504,-0.839314 0.332361,-1.502351 0.670672,-1.873787 0.144334,-0.158465 0.150778,-0.1905 0.03832,-0.1905 -0.199854,0 -0.86457,0.80078 -1.154261,1.390531 -0.291968,0.594389 -0.60273,1.65544 -0.60273,2.057934 v 0.276869 h 0.465667 0.465666 z m 2.455334,-1.524 V 52.33207 h -0.243729 c -0.187386,0 -0.264759,0.05382 -0.334706,0.232834 -0.188547,0.482534 -0.259444,0.942333 -0.310051,2.010833 -0.02867,0.605367 -0.06982,1.186392 -0.09144,1.291167 -0.0373,0.180809 -0.01338,0.1905 0.470309,0.1905 h 0.509613 z m -3.302,0.218592 c 0,-0.01947 0.02313,-0.09567 0.05139,-0.169334 0.04597,-0.119791 -0.159543,-0.133925 -1.947334,-0.133925 -1.099299,0 -1.998725,0.01593 -1.998725,0.03541 0,0.01947 0.02313,0.09567 0.05139,0.169333 0.04474,0.116605 0.296587,0.133925 1.947333,0.133925 1.042768,0 1.895942,-0.01593 1.895942,-0.03541 z m 0.338666,-0.811259 c 0.08847,-0.165304 0.06439,-0.169333 -1.012081,-0.169333 h -1.102707 l -0.02211,-3.4925 c -0.01923,-3.038175 -0.03863,-3.4925 -0.149106,-3.4925 -0.110479,0 -0.129875,0.454325 -0.149105,3.4925 l -0.02211,3.4925 h -1.060373 c -1.034137,0 -1.058131,0.0042 -0.969749,0.169333 0.08698,0.162519 0.177277,0.169334 2.243667,0.169334 2.066389,0 2.156689,-0.0068 2.243666,-0.169334 z m -2.79629,-3.069166 -0.0023,-2.561167 -0.23859,0.559129 c -0.531614,1.245819 -1.709132,2.871356 -2.314767,3.195482 -0.288043,0.154156 -0.213706,0.467866 0.229605,0.968961 l 0.338667,0.382811 0.994833,0.008 0.994834,0.008 z m 3.368011,2.211322 c 0.174504,-0.192414 0.339374,-0.475194 0.366378,-0.6284 0.04155,-0.235702 0.01689,-0.295796 -0.160285,-0.390615 -0.603609,-0.323042 -1.781892,-1.950549 -2.312642,-3.194345 l -0.23859,-0.559129 -0.0023,2.561167 -0.0023,2.561166 h 1.016221 1.01622 z m -7.223096,-1.61866 c 0.387558,-0.791809 0.723804,-2.10281 0.725445,-2.828466 0.0013,-0.565692 0.104275,-1.214367 0.192816,-1.214367 0.113441,0 0.0096,1.719099 -0.1496,2.477531 -0.06611,0.314892 -0.257108,0.905442 -0.424432,1.312333 -0.167324,0.406892 -0.325622,0.796953 -0.351772,0.866803 -0.09098,0.24301 0.567807,-0.555215 1.078154,-1.306357 0.282514,-0.415812 0.626344,-0.979243 0.764065,-1.252067 0.137721,-0.272825 0.286841,-0.473525 0.331376,-0.446001 0.156534,0.09674 -0.750282,1.672724 -1.497335,2.602258 l -0.459307,0.5715 0.236483,-8.9e-4 c 0.283008,-0.0011 1.049615,-0.553585 1.527912,-1.101219 1.06023,-1.213929 2.009689,-3.312401 2.115845,-4.676391 l 0.04448,-0.5715 H 17.7652 17.17333 L 17.11781,46.2245 c -0.08587,1.029626 -0.431118,2.202165 -0.598991,2.034292 -0.02218,-0.02218 0.03828,-0.286338 0.134356,-0.587022 0.09666,-0.302526 0.194823,-0.896486 0.219781,-1.329866 l 0.0451,-0.783167 H 16.059853 15.20165 v 0.550334 c 0,0.310444 -0.03691,0.550333 -0.08467,0.550333 -0.04776,0 -0.08467,-0.239889 -0.08467,-0.550333 v -0.550334 h -0.846667 -0.846667 v 3.175 3.175 H 13.5893 c 0.231641,0 0.278912,-0.05843 0.633642,-0.783167 z m 8.062035,0.211667 c -0.747054,-0.929534 -1.65387,-2.505514 -1.497336,-2.602258 0.04453,-0.02752 0.193655,0.173176 0.331376,0.446001 0.137721,0.272824 0.481551,0.836255 0.764066,1.252067 0.510346,0.751142 1.169132,1.549367 1.078153,1.306357 -0.02615,-0.06985 -0.184448,-0.459911 -0.351772,-0.866803 -0.167324,-0.406891 -0.358318,-0.997441 -0.424432,-1.312333 -0.159237,-0.758432 -0.263041,-2.477531 -0.1496,-2.477531 0.08854,0 0.191537,0.648675 0.192816,1.214367 0.0016,0.725656 0.337886,2.036657 0.725445,2.828466 0.35473,0.724741 0.402001,0.783167 0.633642,0.783167 h 0.250316 v -3.175 -3.175 h -0.846667 -0.846667 v 0.550334 c 0,0.310444 -0.03691,0.550333 -0.08467,0.550333 -0.04776,0 -0.08467,-0.239889 -0.08467,-0.550333 v -0.550334 h -0.858203 -0.858203 l 0.0451,0.783167 c 0.02496,0.43338 0.12312,1.02734 0.219781,1.329866 0.09607,0.300684 0.156534,0.564844 0.134356,0.587022 -0.167873,0.167873 -0.513123,-1.004666 -0.598991,-2.034292 l -0.05552,-0.665763 h -0.59187 -0.59187 l 0.04448,0.5715 c 0.106156,1.36399 1.055615,3.462462 2.115845,4.676391 0.478297,0.547634 1.244904,1.100154 1.527912,1.101219 l 0.236482,8.9e-4 z"
         id="path25793" />
    </g>
  </g>
</svg>
