<?xml version="1.0" encoding="iso-8859-1"?>
<!-- Uploaded to: SVG Repo, www.svgrepo.com, Generator: SVG Repo Mixer Tools -->
<svg height="800px" width="800px" version="1.1" id="Layer_1" xmlns="http://www.w3.org/2000/svg" xmlns:xlink="http://www.w3.org/1999/xlink" 
	 viewBox="0 0 512 512" xml:space="preserve">
<path style="fill:#91C0F1;" d="M329.525,199.542l-15.38-128.17c2.612-2.196,4.893-4.839,6.722-7.875
	c5.646-9.372,5.962-20.835,0.847-30.502C310.949,12.643,289.968,0,266.957,0c-23.01,0-43.992,12.643-54.758,32.995
	c-5.114,9.668-4.798,21.13,0.847,30.502c1.829,3.036,4.109,5.679,6.722,7.875l-15.38,128.169c-0.561,4.675,0.907,9.366,4.032,12.888
	c3.125,3.522,7.609,5.537,12.316,5.537h92.441c4.708,0,9.191-2.015,12.316-5.537C328.619,208.909,330.086,204.218,329.525,199.542z"
	/>
<g>
	<path style="fill:#D7EDF3;" d="M267.04,0c-23.05,0-44.034,12.643-54.799,32.995c-5.114,9.668-4.818,21.13,0.828,30.502
		c1.829,3.036,4.098,5.679,6.712,7.875l-15.385,128.169c-0.561,4.675,0.904,9.366,4.029,12.888
		c3.125,3.522,7.605,5.537,12.313,5.537h46.303V0H267.04z"/>
	<path style="fill:#D7EDF3;" d="M320.271,122.424H213.644l-9.254,77.118c-0.561,4.675,0.907,9.366,4.031,12.888
		c3.125,3.522,7.609,5.537,12.316,5.537h92.441c4.708,0,9.191-2.015,12.316-5.537c3.125-3.521,4.592-8.212,4.031-12.888
		L320.271,122.424z"/>
</g>
<path style="fill:#FFFFFF;" d="M266.814,122.424h-53.17l-9.254,77.118c-0.561,4.675,0.907,9.366,4.031,12.888
	c3.125,3.522,7.609,5.537,12.316,5.537h46.303L266.814,122.424z"/>
<path style="fill:#007AB7;" d="M487.734,344.445c-15.566,0-30.843-4.955-44.181-14.163c-13.337,9.209-28.613,14.163-44.181,14.163
	c-9.093,0-16.464-7.372-16.464-16.464c0-9.093,7.372-16.464,16.464-16.464c14.899,0,26-7.771,32.691-14.289
	c6.392-6.23,16.584-6.23,22.979,0c6.691,6.519,17.793,14.29,32.691,14.29c9.093,0,16.464,7.372,16.464,16.464
	S496.826,344.445,487.734,344.445z"/>
<path style="fill:#91C0F1;" d="M389.971,187.235H44.226c-9.093,0-16.464,7.372-16.464,16.464v188.788
	c0,9.093,7.372,16.464,16.464,16.464h345.745c9.093,0,16.464-7.372,16.464-16.464V203.699
	C406.435,194.606,399.065,187.235,389.971,187.235z"/>
<path style="fill:#D7EDF3;" d="M215.452,187.235H44.226c-9.093,0-16.464,7.372-16.464,16.464v188.788
	c0,9.093,7.372,16.464,16.464,16.464h171.226V187.235z"/>
<path style="fill:#2A5637;" d="M323.702,151.014H210.214l-5.823,48.528c-0.561,4.675,0.907,9.366,4.032,12.888
	c3.125,3.522,7.609,5.537,12.316,5.537h92.441c4.708,0,9.191-2.015,12.316-5.537c3.125-3.521,4.592-8.212,4.031-12.888
	L323.702,151.014z"/>
<path style="fill:#4E7F4B;" d="M267.04,151.014h-56.827l-5.823,48.528c-0.561,4.675,0.907,9.366,4.031,12.888
	c3.125,3.522,7.609,5.537,12.316,5.537h46.303v-66.954H267.04z"/>
<path style="fill:#E56C1E;" d="M406.435,203.699c0-9.093-7.372-16.464-16.464-16.464H44.226c-9.093,0-16.464,7.372-16.464,16.464
	v50.49h378.673V203.699z"/>
<path style="fill:#F2BA57;" d="M215.452,187.235H44.226c-9.093,0-16.464,7.372-16.464,16.464v50.49h187.69V187.235z"/>
<path style="fill:#007AB7;" d="M24.265,437.363c25.475,0,50.489-8.958,71.774-25.479c21.295,16.523,46.311,25.479,71.788,25.479
	c25.475,0,50.489-8.958,71.774-25.479c21.295,16.523,46.311,25.479,71.788,25.479c25.469,0,50.482-8.953,71.772-25.467
	c21.29,16.513,46.303,25.467,71.772,25.467c9.093,0,16.464-7.371,16.464-16.464c0-9.093-7.372-16.464-16.464-16.464
	c-21.893,0-42.738-9.035-60.283-26.131c-6.392-6.229-16.586-6.229-22.979,0c-17.545,17.095-38.391,26.131-60.283,26.131
	c-21.898,0-42.749-9.041-60.298-26.145c-6.395-6.232-16.592-6.232-22.986,0.003c-17.537,17.103-38.381,26.142-60.277,26.142
	c-21.898,0-42.749-9.041-60.298-26.145c-6.395-6.232-16.592-6.232-22.986,0.003c-17.538,17.103-38.381,26.142-60.277,26.142
	c-9.093,0-16.464,7.372-16.464,16.464S15.173,437.363,24.265,437.363z"/>
<path style="fill:#0EABD9;" d="M24.265,437.363c25.475,0,50.489-8.958,71.774-25.479c21.295,16.523,46.311,25.479,71.788,25.479
	c25.475,0,50.489-8.958,71.774-25.479l0.16-38.268c-4.203-0.042-8.418,1.517-11.658,4.676
	c-17.538,17.103-38.381,26.142-60.277,26.142c-21.898,0-42.749-9.041-60.298-26.145c-6.395-6.232-16.592-6.232-22.986,0.003
	c-17.538,17.103-38.381,26.142-60.277,26.142c-9.093,0-16.464,7.371-16.464,16.464C7.802,429.99,15.173,437.363,24.265,437.363z"/>
<path style="fill:#007AB7;" d="M24.265,512c25.475,0,50.489-8.958,71.774-25.479C117.334,503.045,142.351,512,167.827,512
	c25.475,0,50.489-8.958,71.774-25.479C260.896,503.045,285.913,512,311.389,512c25.469,0,50.482-8.953,71.772-25.467
	C404.452,503.047,429.465,512,454.934,512c9.093,0,16.464-7.371,16.464-16.464c0-9.093-7.372-16.464-16.464-16.464
	c-21.893,0-42.738-9.035-60.283-26.131c-6.392-6.229-16.586-6.229-22.979,0c-17.545,17.095-38.391,26.131-60.283,26.131
	c-21.898,0-42.749-9.041-60.298-26.145c-6.395-6.232-16.592-6.232-22.986,0.003c-17.537,17.103-38.381,26.142-60.277,26.142
	c-21.898,0-42.749-9.041-60.298-26.145c-6.395-6.232-16.592-6.232-22.986,0.003c-17.538,17.103-38.381,26.142-60.277,26.142
	c-9.093,0-16.464,7.371-16.464,16.464C7.803,504.628,15.173,512,24.265,512z"/>
<path style="fill:#0EABD9;" d="M24.265,512c25.475,0,50.489-8.958,71.774-25.479C117.334,503.045,142.351,512,167.827,512
	c25.475,0,50.489-8.958,71.774-25.479l0.16-38.268c-4.203-0.042-8.418,1.517-11.658,4.676
	c-17.538,17.103-38.381,26.142-60.277,26.142c-21.898,0-42.749-9.041-60.298-26.145c-6.395-6.232-16.592-6.232-22.986,0.003
	c-17.538,17.103-38.381,26.142-60.277,26.142c-9.093,0-16.464,7.372-16.464,16.464C7.802,504.627,15.173,512,24.265,512z"/>
</svg>