<?xml version="1.0" encoding="UTF-8" standalone="no"?>
<!-- Created with Inkscape (http://www.inkscape.org/) -->

<svg
   width="18.712774mm"
   height="19.690653mm"
   viewBox="0 0 18.712774 19.690653"
   version="1.1"
   id="svg2971"
   inkscape:version="1.1.1 (3bf5ae0d25, 2021-09-20)"
   sodipodi:docname="freeze_xyaxis.svg"
   xmlns:inkscape="http://www.inkscape.org/namespaces/inkscape"
   xmlns:sodipodi="http://sodipodi.sourceforge.net/DTD/sodipodi-0.dtd"
   xmlns="http://www.w3.org/2000/svg"
   xmlns:svg="http://www.w3.org/2000/svg">
  <sodipodi:namedview
     id="namedview2973"
     pagecolor="#ffffff"
     bordercolor="#666666"
     borderopacity="1.0"
     inkscape:pageshadow="2"
     inkscape:pageopacity="0.0"
     inkscape:pagecheckerboard="0"
     inkscape:document-units="mm"
     showgrid="false"
     fit-margin-top="0"
     fit-margin-left="0"
     fit-margin-right="0"
     fit-margin-bottom="0"
     inkscape:zoom="0.64052329"
     inkscape:cx="-92.892797"
     inkscape:cy="514.42314"
     inkscape:window-width="1920"
     inkscape:window-height="1137"
     inkscape:window-x="-8"
     inkscape:window-y="-8"
     inkscape:window-maximized="1"
     inkscape:current-layer="layer1" />
  <defs
     id="defs2968" />
  <g
     inkscape:label="Layer 1"
     inkscape:groupmode="layer"
     id="layer1"
     transform="translate(-10.055741,-12.243859)">
    <g
       id="g3005"
       transform="matrix(0.15749442,0,0,0.15749442,3.6796836,10.575746)"
       style="fill:#000000">
      <path
         style="fill:#000000;fill-opacity:1;stroke-width:0.282222"
         d="m 120.73443,135.61602 h -6.62822 l 0.18387,-0.57935 0.18388,-0.57935 0.96403,-1.70554 0.96403,-1.70554 v -0.23159 -0.2316 l 0.21167,-0.0941 0.21166,-0.0941 0.66575,-1.27 0.66574,-1.27 1.12961,-2.11666 1.12961,-2.11667 0.20976,-0.28222 0.20975,-0.28222 1.06349,-1.97556 1.06349,-1.97555 0.94372,-1.70375 0.94373,-1.70374 -0.36302,-0.69514 -0.36302,-0.69515 -1.63745,-3.10445 -1.63746,-3.10444 -0.2076,-0.28222 -0.2076,-0.28223 -1.49183,-2.82222 -1.49183,-2.82222 -0.20687,-0.28222 -0.20686,-0.28222 -1.44611,-2.714311 -1.44611,-2.714309 v -0.460691 -0.460694 h 6.45461 6.45462 l 1.09483,1.909208 1.09483,1.909208 0.81363,1.576379 0.81363,1.57638 0.45637,0.60421 0.45637,0.60422 0.84542,-1.62036 0.84542,-1.620356 1.37478,-2.469444 1.37478,-2.469445 h 6.45813 6.45814 v 0.435252 0.435252 l -1.38322,2.598637 -1.38321,2.598634 -1.01568,1.79101 -1.01567,1.79099 v 0.10158 0.10158 l -0.79432,1.35298 -0.79432,1.35297 -1.36157,2.54 -1.36158,2.54 -0.82485,1.49772 -0.82485,1.49771 0.68628,1.1834 0.68628,1.1834 1.06232,1.97555 1.06231,1.97556 0.49206,0.84666 0.49207,0.84667 0.84843,1.55222 0.84844,1.55223 0.84401,1.55222 0.84401,1.55222 0.85088,1.55222 0.85087,1.55222 0.59566,1.12471 0.59565,1.12471 v 0.21585 0.21585 h -6.59767 -6.59766 l -0.27486,-0.35278 -0.27487,-0.35278 -1.28386,-2.39889 -1.28387,-2.39889 -0.52194,-0.91544 -0.52194,-0.91543 -0.1597,-0.002 -0.15969,-0.002 -0.58172,1.05833 -0.58171,1.05834 -0.9159,1.69333 -0.9159,1.69333 -0.55293,0.91723 -0.55293,0.91722 h -6.62822 z m -4.05019,-44.873338 h -1.97555 v -5.202739 -5.202738 l -0.26606,-0.699779 -0.26605,-0.699778 -0.51006,-0.1485 -0.51005,-0.148499 -10.51278,-0.196757 -10.512781,-0.196757 V 66.170947 54.09476 L 91.387293,53.509832 90.643677,52.924904 H 85.88396 81.124243 V 51.23157 49.538237 h 4.885673 4.885673 l 0.61766,-0.57544 0.61766,-0.575437 v -7.131733 -7.13173 l -0.400044,-0.54783 -0.400044,-0.54783 -5.103289,-0.08837 -5.103289,-0.08837 V 31.17598 29.500461 h 4.810604 4.810608 l 0.692726,-0.692729 0.692728,-0.692725 v -6.50394 -6.50394 L 91.566465,14.542681 91.00202,13.978236 H 86.063132 81.124243 V 12.284903 10.59157 h 16.933333 16.933334 v 1.693333 1.693333 h -5.64444 -5.64445 l -0.56444,0.564445 -0.56445,0.564444 v 6.583027 6.583027 l 0.65319,0.613641 0.65319,0.613639 h 5.5557 5.5557 v 1.677193 1.677193 l -5.80879,0.0867 -5.80878,0.0867 -0.4001,0.54783 -0.40011,0.54783 v 7.142725 7.142726 l 0.56445,0.564445 0.56444,0.564444 h 5.64445 5.64444 v 1.693333 1.693334 h -5.59525 -5.59525 l -0.61364,0.653189 -0.61364,0.653189 v 6.057347 6.05735 l 0.43934,0.627239 0.43934,0.627241 h 5.01005 5.01006 l 0.54783,-0.400033 0.54783,-0.400033 0.0887,-4.962189 0.0888,-4.962189 h 1.95737 1.95736 v 4.669494 4.669496 l 0.69273,0.692726 0.69272,0.692728 h 6.22172 6.22172 l 0.56444,-0.564444 0.56445,-0.564444 v -4.797778 -4.797778 h 1.97555 1.97556 v 4.670143 4.670143 l 0.74676,0.692079 0.74677,0.692079 h 7.95293 7.95292 l 0.61365,-0.653189 0.61363,-0.653189 v -4.709033 -4.709033 h 1.55223 1.55222 V 73.809356 90.74269 h -1.55222 -1.55223 v -5.454139 -5.454137 l -0.65318,-0.613641 -0.65319,-0.613639 h -7.99279 -7.99278 l -0.66736,0.720096 -0.66736,0.720096 V 85.395 90.742682 h -1.97556 -1.97555 v -5.503333 -5.503334 l -0.56445,-0.564444 -0.56444,-0.564445 h -6.30081 -6.3008 l -0.61364,0.65319 -0.61364,0.653189 v 5.414588 5.414589 z m -58.631664,-26.876821 -7.126112,0.0754 V 54.093103 44.244947 L 50.486209,43.293257 50.045954,42.34157 49.708293,41.777126 49.370632,41.212681 47.82202,38.390459 46.273408,35.568237 45.98938,35.068432 45.705353,34.568631 44.18859,31.681766 42.671827,28.794903 42.28359,28.349348 41.895353,27.903792 V 27.629681 27.35557 l -0.3296,-0.329602 -0.3296,-0.329599 -0.371707,-1.067401 -0.371705,-1.067398 -0.0042,-0.635 -0.0042,-0.635 h 6.588481 6.588482 l 0.467073,0.516111 0.467075,0.516111 v 0.296 0.295998 l 0.423334,0.351336 0.423333,0.351335 v 0.418403 0.418403 l 0.846667,1.254523 0.846666,1.25452 v 0.20528 0.205277 l 0.450534,0.64323 0.450537,0.643227 1.172241,-2.087536 1.172244,-2.087536 0.550466,-1.103452 0.550466,-1.103452 0.410498,-0.493889 0.410498,-0.493889 h 6.58848 6.588481 v 0.723032 0.723032 l -0.752625,1.605303 -0.752624,1.6053 -0.181875,0.141111 -0.181876,0.141111 -1.619504,3.050235 -1.619504,3.050238 -0.589884,1.041984 -0.589887,1.041987 -1.541887,2.822223 -1.54189,2.822222 -0.323666,0.395712 -0.323667,0.39571 -0.141111,10.469846 -0.141111,10.469843 z"
         id="path3019" />
      <path
         style="fill:#000000;fill-opacity:1;stroke-width:0.282222"
         d="m 120.73443,135.61602 h -6.62822 l 0.18387,-0.57935 0.18388,-0.57935 0.96403,-1.70554 0.96403,-1.70554 v -0.23159 -0.2316 l 0.21167,-0.0941 0.21166,-0.0941 0.66575,-1.27 0.66574,-1.27 1.12961,-2.11666 1.12961,-2.11667 0.20976,-0.28222 0.20975,-0.28222 1.06349,-1.97556 1.06349,-1.97555 0.94372,-1.70375 0.94373,-1.70374 -0.36302,-0.69514 -0.36302,-0.69515 -1.63745,-3.10445 -1.63746,-3.10444 -0.2076,-0.28222 -0.2076,-0.28223 -1.49183,-2.82222 -1.49183,-2.82222 -0.20687,-0.28222 -0.20686,-0.28222 -1.44611,-2.714311 -1.44611,-2.714309 v -0.460691 -0.460694 h 6.45461 6.45462 l 1.09483,1.909208 1.09483,1.909208 0.81363,1.576379 0.81363,1.57638 0.45637,0.60421 0.45637,0.60422 0.84542,-1.62036 0.84542,-1.620356 1.37478,-2.469444 1.37478,-2.469445 h 6.45813 6.45814 v 0.435252 0.435252 l -1.38322,2.598637 -1.38321,2.598634 -1.01568,1.79101 -1.01567,1.79099 v 0.10158 0.10158 l -0.79432,1.35298 -0.79432,1.35297 -1.36157,2.54 -1.36158,2.54 -0.82485,1.49772 -0.82485,1.49771 0.68628,1.1834 0.68628,1.1834 1.06232,1.97555 1.06231,1.97556 0.49206,0.84666 0.49207,0.84667 0.84843,1.55222 0.84844,1.55223 0.84401,1.55222 0.84401,1.55222 0.85088,1.55222 0.85087,1.55222 0.59566,1.12471 0.59565,1.12471 v 0.21585 0.21585 h -6.59767 -6.59766 l -0.27486,-0.35278 -0.27487,-0.35278 -1.28386,-2.39889 -1.28387,-2.39889 -0.52194,-0.91544 -0.52194,-0.91543 -0.1597,-0.002 -0.15969,-0.002 -0.58172,1.05833 -0.58171,1.05834 -0.9159,1.69333 -0.9159,1.69333 -0.55293,0.91723 -0.55293,0.91722 h -6.62822 z m -4.05019,-44.873338 h -1.97555 v -5.202739 -5.202738 l -0.26606,-0.699779 -0.26605,-0.699778 -0.51006,-0.1485 -0.51005,-0.148499 -10.51278,-0.196757 -10.512781,-0.196757 V 66.170947 54.09476 L 91.387293,53.509832 90.643677,52.924904 H 85.88396 81.124243 V 51.23157 49.538237 h 4.885673 4.885673 l 0.61766,-0.57544 0.61766,-0.575437 v -7.131733 -7.13173 l -0.400044,-0.54783 -0.400044,-0.54783 -5.103289,-0.08837 -5.103289,-0.08837 V 31.17598 29.500461 h 4.810604 4.810608 l 0.692726,-0.692729 0.692728,-0.692725 v -6.50394 -6.50394 L 91.566465,14.542681 91.00202,13.978236 H 86.063132 81.124243 V 12.284903 10.59157 h 16.933333 16.933334 v 1.693333 1.693333 h -5.64444 -5.64445 l -0.56444,0.564445 -0.56445,0.564444 v 6.583027 6.583027 l 0.65319,0.613641 0.65319,0.613639 h 5.5557 5.5557 v 1.677193 1.677193 l -5.80879,0.0867 -5.80878,0.0867 -0.4001,0.54783 -0.40011,0.54783 v 7.142725 7.142726 l 0.56445,0.564445 0.56444,0.564444 h 5.64445 5.64444 v 1.693333 1.693334 h -5.59525 -5.59525 l -0.61364,0.653189 -0.61364,0.653189 v 6.057347 6.05735 l 0.43934,0.627239 0.43934,0.627241 h 5.01005 5.01006 l 0.54783,-0.400033 0.54783,-0.400033 0.0887,-4.962189 0.0888,-4.962189 h 1.95737 1.95736 v 4.669494 4.669496 l 0.69273,0.692726 0.69272,0.692728 h 6.22172 6.22172 l 0.56444,-0.564444 0.56445,-0.564444 v -4.797778 -4.797778 h 1.97555 1.97556 v 4.670143 4.670143 l 0.74676,0.692079 0.74677,0.692079 h 7.95293 7.95292 l 0.61365,-0.653189 0.61363,-0.653189 v -4.709033 -4.709033 h 1.55223 1.55222 V 73.809356 90.74269 h -1.55222 -1.55223 v -5.454139 -5.454137 l -0.65318,-0.613641 -0.65319,-0.613639 h -7.99279 -7.99278 l -0.66736,0.720096 -0.66736,0.720096 V 85.395 90.742682 h -1.97556 -1.97555 v -5.503333 -5.503334 l -0.56445,-0.564444 -0.56444,-0.564445 h -6.30081 -6.3008 l -0.61364,0.65319 -0.61364,0.653189 v 5.414588 5.414589 z m -58.631664,-26.876821 -7.126112,0.0754 V 54.093103 44.244947 L 50.486209,43.293257 50.045954,42.34157 49.708293,41.777126 49.370632,41.212681 47.82202,38.390459 46.273408,35.568237 45.98938,35.068432 45.705353,34.568631 44.18859,31.681766 42.671827,28.794903 42.28359,28.349348 41.895353,27.903792 V 27.629681 27.35557 l -0.3296,-0.329602 -0.3296,-0.329599 -0.371707,-1.067401 -0.371705,-1.067398 -0.0042,-0.635 -0.0042,-0.635 h 6.588481 6.588482 l 0.467073,0.516111 0.467075,0.516111 v 0.296 0.295998 l 0.423334,0.351336 0.423333,0.351335 v 0.418403 0.418403 l 0.846667,1.254523 0.846666,1.25452 v 0.20528 0.205277 l 0.450534,0.64323 0.450537,0.643227 1.172241,-2.087536 1.172244,-2.087536 0.550466,-1.103452 0.550466,-1.103452 0.410498,-0.493889 0.410498,-0.493889 h 6.58848 6.588481 v 0.723032 0.723032 l -0.752625,1.605303 -0.752624,1.6053 -0.181875,0.141111 -0.181876,0.141111 -1.619504,3.050235 -1.619504,3.050238 -0.589884,1.041984 -0.589887,1.041987 -1.541887,2.822223 -1.54189,2.822222 -0.323666,0.395712 -0.323667,0.39571 -0.141111,10.469846 -0.141111,10.469843 z"
         id="path3017" />
      <path
         style="fill:#000000;fill-opacity:1;stroke-width:0.282222"
         d="m 120.73443,135.61602 h -6.62822 l 0.18387,-0.57935 0.18388,-0.57935 0.96403,-1.70554 0.96403,-1.70554 v -0.23159 -0.2316 l 0.21167,-0.0941 0.21166,-0.0941 0.66575,-1.27 0.66574,-1.27 1.12961,-2.11666 1.12961,-2.11667 0.20976,-0.28222 0.20975,-0.28222 1.06349,-1.97556 1.06349,-1.97555 0.94372,-1.70375 0.94373,-1.70374 -0.36302,-0.69514 -0.36302,-0.69515 -1.63745,-3.10445 -1.63746,-3.10444 -0.2076,-0.28222 -0.2076,-0.28223 -1.49183,-2.82222 -1.49183,-2.82222 -0.20687,-0.28222 -0.20686,-0.28222 -1.44611,-2.714311 -1.44611,-2.714309 v -0.460691 -0.460694 h 6.45461 6.45462 l 1.09483,1.909208 1.09483,1.909208 0.81363,1.576379 0.81363,1.57638 0.45637,0.60421 0.45637,0.60422 0.84542,-1.62036 0.84542,-1.620356 1.37478,-2.469444 1.37478,-2.469445 h 6.45813 6.45814 v 0.435252 0.435252 l -1.38322,2.598637 -1.38321,2.598634 -1.01568,1.79101 -1.01567,1.79099 v 0.10158 0.10158 l -0.79432,1.35298 -0.79432,1.35297 -1.36157,2.54 -1.36158,2.54 -0.82485,1.49772 -0.82485,1.49771 0.68628,1.1834 0.68628,1.1834 1.06232,1.97555 1.06231,1.97556 0.49206,0.84666 0.49207,0.84667 0.84843,1.55222 0.84844,1.55223 0.84401,1.55222 0.84401,1.55222 0.85088,1.55222 0.85087,1.55222 0.59566,1.12471 0.59565,1.12471 v 0.21585 0.21585 h -6.59767 -6.59766 l -0.27486,-0.35278 -0.27487,-0.35278 -1.28386,-2.39889 -1.28387,-2.39889 -0.52194,-0.91544 -0.52194,-0.91543 -0.1597,-0.002 -0.15969,-0.002 -0.58172,1.05833 -0.58171,1.05834 -0.9159,1.69333 -0.9159,1.69333 -0.55293,0.91723 -0.55293,0.91722 h -6.62822 z m -4.05019,-44.873338 h -1.97555 v -5.202739 -5.202738 l -0.26606,-0.699779 -0.26605,-0.699778 -0.51006,-0.1485 -0.51005,-0.148499 -10.51278,-0.196757 -10.512781,-0.196757 V 66.170947 54.09476 L 91.387293,53.509832 90.643677,52.924904 H 85.88396 81.124243 V 51.23157 49.538237 h 4.885673 4.885673 l 0.61766,-0.57544 0.61766,-0.575437 v -7.131733 -7.13173 l -0.400044,-0.54783 -0.400044,-0.54783 -5.103289,-0.08837 -5.103289,-0.08837 V 31.17598 29.500461 h 4.810604 4.810608 l 0.692726,-0.692729 0.692728,-0.692725 v -6.50394 -6.50394 L 91.566465,14.542681 91.00202,13.978236 H 86.063132 81.124243 V 12.284903 10.59157 h 16.933333 16.933334 v 1.693333 1.693333 h -5.64444 -5.64445 l -0.56444,0.564445 -0.56445,0.564444 v 6.583027 6.583027 l 0.65319,0.613641 0.65319,0.613639 h 5.5557 5.5557 v 1.677193 1.677193 l -5.80879,0.0867 -5.80878,0.0867 -0.4001,0.54783 -0.40011,0.54783 v 7.142725 7.142726 l 0.56445,0.564445 0.56444,0.564444 h 5.64445 5.64444 v 1.693333 1.693334 h -5.59525 -5.59525 l -0.61364,0.653189 -0.61364,0.653189 v 6.057347 6.05735 l 0.43934,0.627239 0.43934,0.627241 h 5.01005 5.01006 l 0.54783,-0.400033 0.54783,-0.400033 0.0887,-4.962189 0.0888,-4.962189 h 1.95737 1.95736 v 4.669494 4.669496 l 0.69273,0.692726 0.69272,0.692728 h 6.22172 6.22172 l 0.56444,-0.564444 0.56445,-0.564444 v -4.797778 -4.797778 h 1.97555 1.97556 v 4.670143 4.670143 l 0.74676,0.692079 0.74677,0.692079 h 7.95293 7.95292 l 0.61365,-0.653189 0.61363,-0.653189 v -4.709033 -4.709033 h 1.55223 1.55222 V 73.809356 90.74269 h -1.55222 -1.55223 v -5.454139 -5.454137 l -0.65318,-0.613641 -0.65319,-0.613639 h -7.99279 -7.99278 l -0.66736,0.720096 -0.66736,0.720096 V 85.395 90.742682 h -1.97556 -1.97555 v -5.503333 -5.503334 l -0.56445,-0.564444 -0.56444,-0.564445 h -6.30081 -6.3008 l -0.61364,0.65319 -0.61364,0.653189 v 5.414588 5.414589 z m -58.631664,-26.876821 -7.126112,0.0754 V 54.093103 44.244947 L 50.486209,43.293257 50.045954,42.34157 49.708293,41.777126 49.370632,41.212681 47.82202,38.390459 46.273408,35.568237 45.98938,35.068432 45.705353,34.568631 44.18859,31.681766 42.671827,28.794903 42.28359,28.349348 41.895353,27.903792 V 27.629681 27.35557 l -0.3296,-0.329602 -0.3296,-0.329599 -0.371707,-1.067401 -0.371705,-1.067398 -0.0042,-0.635 -0.0042,-0.635 h 6.588481 6.588482 l 0.467073,0.516111 0.467075,0.516111 v 0.296 0.295998 l 0.423334,0.351336 0.423333,0.351335 v 0.418403 0.418403 l 0.846667,1.254523 0.846666,1.25452 v 0.20528 0.205277 l 0.450534,0.64323 0.450537,0.643227 1.172241,-2.087536 1.172244,-2.087536 0.550466,-1.103452 0.550466,-1.103452 0.410498,-0.493889 0.410498,-0.493889 h 6.58848 6.588481 v 0.723032 0.723032 l -0.752625,1.605303 -0.752624,1.6053 -0.181875,0.141111 -0.181876,0.141111 -1.619504,3.050235 -1.619504,3.050238 -0.589884,1.041984 -0.589887,1.041987 -1.541887,2.822223 -1.54189,2.822222 -0.323666,0.395712 -0.323667,0.39571 -0.141111,10.469846 -0.141111,10.469843 z"
         id="path3015" />
      <path
         style="fill:#000000;fill-opacity:1;stroke-width:0.282222"
         d="m 120.73443,135.61602 h -6.62822 l 0.18387,-0.57935 0.18388,-0.57935 0.96403,-1.70554 0.96403,-1.70554 v -0.23159 -0.2316 l 0.21167,-0.0941 0.21166,-0.0941 0.66575,-1.27 0.66574,-1.27 1.12961,-2.11666 1.12961,-2.11667 0.20976,-0.28222 0.20975,-0.28222 1.06349,-1.97556 1.06349,-1.97555 0.94372,-1.70375 0.94373,-1.70374 -0.36302,-0.69514 -0.36302,-0.69515 -1.63745,-3.10445 -1.63746,-3.10444 -0.2076,-0.28222 -0.2076,-0.28223 -1.49183,-2.82222 -1.49183,-2.82222 -0.20687,-0.28222 -0.20686,-0.28222 -1.44611,-2.714311 -1.44611,-2.714309 v -0.460691 -0.460694 h 6.45461 6.45462 l 1.09483,1.909208 1.09483,1.909208 0.81363,1.576379 0.81363,1.57638 0.45637,0.60421 0.45637,0.60422 0.84542,-1.62036 0.84542,-1.620356 1.37478,-2.469444 1.37478,-2.469445 h 6.45813 6.45814 v 0.435252 0.435252 l -1.38322,2.598637 -1.38321,2.598634 -1.01568,1.79101 -1.01567,1.79099 v 0.10158 0.10158 l -0.79432,1.35298 -0.79432,1.35297 -1.36157,2.54 -1.36158,2.54 -0.82485,1.49772 -0.82485,1.49771 0.68628,1.1834 0.68628,1.1834 1.06232,1.97555 1.06231,1.97556 0.49206,0.84666 0.49207,0.84667 0.84843,1.55222 0.84844,1.55223 0.84401,1.55222 0.84401,1.55222 0.85088,1.55222 0.85087,1.55222 0.59566,1.12471 0.59565,1.12471 v 0.21585 0.21585 h -6.59767 -6.59766 l -0.27486,-0.35278 -0.27487,-0.35278 -1.28386,-2.39889 -1.28387,-2.39889 -0.52194,-0.91544 -0.52194,-0.91543 -0.1597,-0.002 -0.15969,-0.002 -0.58172,1.05833 -0.58171,1.05834 -0.9159,1.69333 -0.9159,1.69333 -0.55293,0.91723 -0.55293,0.91722 h -6.62822 z m -4.05019,-44.873338 h -1.97555 v -5.202739 -5.202738 l -0.26606,-0.699779 -0.26605,-0.699778 -0.51006,-0.1485 -0.51005,-0.148499 -10.51278,-0.196757 -10.512781,-0.196757 V 66.170947 54.09476 L 91.387293,53.509832 90.643677,52.924904 H 85.88396 81.124243 V 51.23157 49.538237 h 4.885673 4.885673 l 0.61766,-0.57544 0.61766,-0.575437 v -7.131733 -7.13173 l -0.400044,-0.54783 -0.400044,-0.54783 -5.103289,-0.08837 -5.103289,-0.08837 V 31.17598 29.500461 h 4.810604 4.810608 l 0.692726,-0.692729 0.692728,-0.692725 v -6.50394 -6.50394 L 91.566465,14.542681 91.00202,13.978236 H 86.063132 81.124243 V 12.284903 10.59157 h 16.933333 16.933334 v 1.693333 1.693333 h -5.64444 -5.64445 l -0.56444,0.564445 -0.56445,0.564444 v 6.583027 6.583027 l 0.65319,0.613641 0.65319,0.613639 h 5.5557 5.5557 v 1.677193 1.677193 l -5.80879,0.0867 -5.80878,0.0867 -0.4001,0.54783 -0.40011,0.54783 v 7.142725 7.142726 l 0.56445,0.564445 0.56444,0.564444 h 5.64445 5.64444 v 1.693333 1.693334 h -5.59525 -5.59525 l -0.61364,0.653189 -0.61364,0.653189 v 6.057347 6.05735 l 0.43934,0.627239 0.43934,0.627241 h 5.01005 5.01006 l 0.54783,-0.400033 0.54783,-0.400033 0.0887,-4.962189 0.0888,-4.962189 h 1.95737 1.95736 v 4.669494 4.669496 l 0.69273,0.692726 0.69272,0.692728 h 6.22172 6.22172 l 0.56444,-0.564444 0.56445,-0.564444 v -4.797778 -4.797778 h 1.97555 1.97556 v 4.670143 4.670143 l 0.74676,0.692079 0.74677,0.692079 h 7.95293 7.95292 l 0.61365,-0.653189 0.61363,-0.653189 v -4.709033 -4.709033 h 1.55223 1.55222 V 73.809356 90.74269 h -1.55222 -1.55223 v -5.454139 -5.454137 l -0.65318,-0.613641 -0.65319,-0.613639 h -7.99279 -7.99278 l -0.66736,0.720096 -0.66736,0.720096 V 85.395 90.742682 h -1.97556 -1.97555 v -5.503333 -5.503334 l -0.56445,-0.564444 -0.56444,-0.564445 h -6.30081 -6.3008 l -0.61364,0.65319 -0.61364,0.653189 v 5.414588 5.414589 z m -58.631664,-26.876821 -7.126112,0.0754 V 54.093103 44.244947 L 50.486209,43.293257 50.045954,42.34157 49.708293,41.777126 49.370632,41.212681 47.82202,38.390459 46.273408,35.568237 45.98938,35.068432 45.705353,34.568631 44.18859,31.681766 42.671827,28.794903 42.28359,28.349348 41.895353,27.903792 V 27.629681 27.35557 l -0.3296,-0.329602 -0.3296,-0.329599 -0.371707,-1.067401 -0.371705,-1.067398 -0.0042,-0.635 -0.0042,-0.635 h 6.588481 6.588482 l 0.467073,0.516111 0.467075,0.516111 v 0.296 0.295998 l 0.423334,0.351336 0.423333,0.351335 v 0.418403 0.418403 l 0.846667,1.254523 0.846666,1.25452 v 0.20528 0.205277 l 0.450534,0.64323 0.450537,0.643227 1.172241,-2.087536 1.172244,-2.087536 0.550466,-1.103452 0.550466,-1.103452 0.410498,-0.493889 0.410498,-0.493889 h 6.58848 6.588481 v 0.723032 0.723032 l -0.752625,1.605303 -0.752624,1.6053 -0.181875,0.141111 -0.181876,0.141111 -1.619504,3.050235 -1.619504,3.050238 -0.589884,1.041984 -0.589887,1.041987 -1.541887,2.822223 -1.54189,2.822222 -0.323666,0.395712 -0.323667,0.39571 -0.141111,10.469846 -0.141111,10.469843 z"
         id="path3013" />
      <path
         style="fill:#000000;fill-opacity:1;stroke-width:0.282222"
         d="m 120.73443,135.61602 h -6.62822 l 0.18387,-0.57935 0.18388,-0.57935 0.96403,-1.70554 0.96403,-1.70554 v -0.23159 -0.2316 l 0.21167,-0.0941 0.21166,-0.0941 0.66575,-1.27 0.66574,-1.27 1.12961,-2.11666 1.12961,-2.11667 0.20976,-0.28222 0.20975,-0.28222 1.06349,-1.97556 1.06349,-1.97555 0.94372,-1.70375 0.94373,-1.70374 -0.36302,-0.69514 -0.36302,-0.69515 -1.63745,-3.10445 -1.63746,-3.10444 -0.2076,-0.28222 -0.2076,-0.28223 -1.49183,-2.82222 -1.49183,-2.82222 -0.20687,-0.28222 -0.20686,-0.28222 -1.44611,-2.714311 -1.44611,-2.714309 v -0.460691 -0.460694 h 6.45461 6.45462 l 1.09483,1.909208 1.09483,1.909208 0.81363,1.576379 0.81363,1.57638 0.45637,0.60421 0.45637,0.60422 0.84542,-1.62036 0.84542,-1.620356 1.37478,-2.469444 1.37478,-2.469445 h 6.45813 6.45814 v 0.435252 0.435252 l -1.38322,2.598637 -1.38321,2.598634 -1.01568,1.79101 -1.01567,1.79099 v 0.10158 0.10158 l -0.79432,1.35298 -0.79432,1.35297 -1.36157,2.54 -1.36158,2.54 -0.82485,1.49772 -0.82485,1.49771 0.68628,1.1834 0.68628,1.1834 1.06232,1.97555 1.06231,1.97556 0.49206,0.84666 0.49207,0.84667 0.84843,1.55222 0.84844,1.55223 0.84401,1.55222 0.84401,1.55222 0.85088,1.55222 0.85087,1.55222 0.59566,1.12471 0.59565,1.12471 v 0.21585 0.21585 h -6.59767 -6.59766 l -0.27486,-0.35278 -0.27487,-0.35278 -1.28386,-2.39889 -1.28387,-2.39889 -0.52194,-0.91544 -0.52194,-0.91543 -0.1597,-0.002 -0.15969,-0.002 -0.58172,1.05833 -0.58171,1.05834 -0.9159,1.69333 -0.9159,1.69333 -0.55293,0.91723 -0.55293,0.91722 h -6.62822 z m -4.05019,-44.873338 h -1.97555 v -5.202739 -5.202738 l -0.26606,-0.699779 -0.26605,-0.699778 -0.51006,-0.1485 -0.51005,-0.148499 -10.51278,-0.196757 -10.512781,-0.196757 V 66.170947 54.09476 L 91.387293,53.509832 90.643677,52.924904 H 85.88396 81.124243 V 51.23157 49.538237 h 4.885673 4.885673 l 0.61766,-0.57544 0.61766,-0.575437 v -7.131733 -7.13173 l -0.400044,-0.54783 -0.400044,-0.54783 -5.103289,-0.08837 -5.103289,-0.08837 V 31.17598 29.500461 h 4.810604 4.810608 l 0.692726,-0.692729 0.692728,-0.692725 v -6.50394 -6.50394 L 91.566465,14.542681 91.00202,13.978236 H 86.063132 81.124243 V 12.284903 10.59157 h 16.933333 16.933334 v 1.693333 1.693333 h -5.64444 -5.64445 l -0.56444,0.564445 -0.56445,0.564444 v 6.583027 6.583027 l 0.65319,0.613641 0.65319,0.613639 h 5.5557 5.5557 v 1.677193 1.677193 l -5.80879,0.0867 -5.80878,0.0867 -0.4001,0.54783 -0.40011,0.54783 v 7.142725 7.142726 l 0.56445,0.564445 0.56444,0.564444 h 5.64445 5.64444 v 1.693333 1.693334 h -5.59525 -5.59525 l -0.61364,0.653189 -0.61364,0.653189 v 6.057347 6.05735 l 0.43934,0.627239 0.43934,0.627241 h 5.01005 5.01006 l 0.54783,-0.400033 0.54783,-0.400033 0.0887,-4.962189 0.0888,-4.962189 h 1.95737 1.95736 v 4.669494 4.669496 l 0.69273,0.692726 0.69272,0.692728 h 6.22172 6.22172 l 0.56444,-0.564444 0.56445,-0.564444 v -4.797778 -4.797778 h 1.97555 1.97556 v 4.670143 4.670143 l 0.74676,0.692079 0.74677,0.692079 h 7.95293 7.95292 l 0.61365,-0.653189 0.61363,-0.653189 v -4.709033 -4.709033 h 1.55223 1.55222 V 73.809356 90.74269 h -1.55222 -1.55223 v -5.454139 -5.454137 l -0.65318,-0.613641 -0.65319,-0.613639 h -7.99279 -7.99278 l -0.66736,0.720096 -0.66736,0.720096 V 85.395 90.742682 h -1.97556 -1.97555 v -5.503333 -5.503334 l -0.56445,-0.564444 -0.56444,-0.564445 h -6.30081 -6.3008 l -0.61364,0.65319 -0.61364,0.653189 v 5.414588 5.414589 z m -58.631664,-26.876821 -7.126112,0.0754 V 54.093103 44.244947 L 50.486209,43.293257 50.045954,42.34157 49.708293,41.777126 49.370632,41.212681 47.82202,38.390459 46.273408,35.568237 45.98938,35.068432 45.705353,34.568631 44.18859,31.681766 42.671827,28.794903 42.28359,28.349348 41.895353,27.903792 V 27.629681 27.35557 l -0.3296,-0.329602 -0.3296,-0.329599 -0.371707,-1.067401 -0.371705,-1.067398 -0.0042,-0.635 -0.0042,-0.635 h 6.588481 6.588482 l 0.467073,0.516111 0.467075,0.516111 v 0.296 0.295998 l 0.423334,0.351336 0.423333,0.351335 v 0.418403 0.418403 l 0.846667,1.254523 0.846666,1.25452 v 0.20528 0.205277 l 0.450534,0.64323 0.450537,0.643227 1.172241,-2.087536 1.172244,-2.087536 0.550466,-1.103452 0.550466,-1.103452 0.410498,-0.493889 0.410498,-0.493889 h 6.58848 6.588481 v 0.723032 0.723032 l -0.752625,1.605303 -0.752624,1.6053 -0.181875,0.141111 -0.181876,0.141111 -1.619504,3.050235 -1.619504,3.050238 -0.589884,1.041984 -0.589887,1.041987 -1.541887,2.822223 -1.54189,2.822222 -0.323666,0.395712 -0.323667,0.39571 -0.141111,10.469846 -0.141111,10.469843 z"
         id="path3011" />
      <path
         style="fill:#000000;fill-opacity:1;stroke-width:0.282222"
         d="m 120.73443,135.61602 h -6.62822 l 0.18387,-0.57935 0.18388,-0.57935 0.96403,-1.70554 0.96403,-1.70554 v -0.23159 -0.2316 l 0.21167,-0.0941 0.21166,-0.0941 0.66575,-1.27 0.66574,-1.27 1.12961,-2.11666 1.12961,-2.11667 0.20976,-0.28222 0.20975,-0.28222 1.06349,-1.97556 1.06349,-1.97555 0.94372,-1.70375 0.94373,-1.70374 -0.36302,-0.69514 -0.36302,-0.69515 -1.63745,-3.10445 -1.63746,-3.10444 -0.2076,-0.28222 -0.2076,-0.28223 -1.49183,-2.82222 -1.49183,-2.82222 -0.20687,-0.28222 -0.20686,-0.28222 -1.44611,-2.714311 -1.44611,-2.714309 v -0.460691 -0.460694 h 6.45461 6.45462 l 1.09483,1.909208 1.09483,1.909208 0.81363,1.576379 0.81363,1.57638 0.45637,0.60421 0.45637,0.60422 0.84542,-1.62036 0.84542,-1.620356 1.37478,-2.469444 1.37478,-2.469445 h 6.45813 6.45814 v 0.435252 0.435252 l -1.38322,2.598637 -1.38321,2.598634 -1.01568,1.79101 -1.01567,1.79099 v 0.10158 0.10158 l -0.79432,1.35298 -0.79432,1.35297 -1.36157,2.54 -1.36158,2.54 -0.82485,1.49772 -0.82485,1.49771 0.68628,1.1834 0.68628,1.1834 1.06232,1.97555 1.06231,1.97556 0.49206,0.84666 0.49207,0.84667 0.84843,1.55222 0.84844,1.55223 0.84401,1.55222 0.84401,1.55222 0.85088,1.55222 0.85087,1.55222 0.59566,1.12471 0.59565,1.12471 v 0.21585 0.21585 h -6.59767 -6.59766 l -0.27486,-0.35278 -0.27487,-0.35278 -1.28386,-2.39889 -1.28387,-2.39889 -0.52194,-0.91544 -0.52194,-0.91543 -0.1597,-0.002 -0.15969,-0.002 -0.58172,1.05833 -0.58171,1.05834 -0.9159,1.69333 -0.9159,1.69333 -0.55293,0.91723 -0.55293,0.91722 h -6.62822 z m -4.05019,-44.873338 h -1.97555 v -5.202739 -5.202738 l -0.26606,-0.699779 -0.26605,-0.699778 -0.51006,-0.1485 -0.51005,-0.148499 -10.51278,-0.196757 -10.512781,-0.196757 V 66.170947 54.09476 L 91.387293,53.509832 90.643677,52.924904 H 85.88396 81.124243 V 51.23157 49.538237 h 4.885673 4.885673 l 0.61766,-0.57544 0.61766,-0.575437 v -7.131733 -7.13173 l -0.400044,-0.54783 -0.400044,-0.54783 -5.103289,-0.08837 -5.103289,-0.08837 V 31.17598 29.500461 h 4.810604 4.810608 l 0.692726,-0.692729 0.692728,-0.692725 v -6.50394 -6.50394 L 91.566465,14.542681 91.00202,13.978236 H 86.063132 81.124243 V 12.284903 10.59157 h 16.933333 16.933334 v 1.693333 1.693333 h -5.64444 -5.64445 l -0.56444,0.564445 -0.56445,0.564444 v 6.583027 6.583027 l 0.65319,0.613641 0.65319,0.613639 h 5.5557 5.5557 v 1.677193 1.677193 l -5.80879,0.0867 -5.80878,0.0867 -0.4001,0.54783 -0.40011,0.54783 v 7.142725 7.142726 l 0.56445,0.564445 0.56444,0.564444 h 5.64445 5.64444 v 1.693333 1.693334 h -5.59525 -5.59525 l -0.61364,0.653189 -0.61364,0.653189 v 6.057347 6.05735 l 0.43934,0.627239 0.43934,0.627241 h 5.01005 5.01006 l 0.54783,-0.400033 0.54783,-0.400033 0.0887,-4.962189 0.0888,-4.962189 h 1.95737 1.95736 v 4.669494 4.669496 l 0.69273,0.692726 0.69272,0.692728 h 6.22172 6.22172 l 0.56444,-0.564444 0.56445,-0.564444 v -4.797778 -4.797778 h 1.97555 1.97556 v 4.670143 4.670143 l 0.74676,0.692079 0.74677,0.692079 h 7.95293 7.95292 l 0.61365,-0.653189 0.61363,-0.653189 v -4.709033 -4.709033 h 1.55223 1.55222 V 73.809356 90.74269 h -1.55222 -1.55223 v -5.454139 -5.454137 l -0.65318,-0.613641 -0.65319,-0.613639 h -7.99279 -7.99278 l -0.66736,0.720096 -0.66736,0.720096 V 85.395 90.742682 h -1.97556 -1.97555 v -5.503333 -5.503334 l -0.56445,-0.564444 -0.56444,-0.564445 h -6.30081 -6.3008 l -0.61364,0.65319 -0.61364,0.653189 v 5.414588 5.414589 z m -58.631664,-26.876821 -7.126112,0.0754 V 54.093103 44.244947 L 50.486209,43.293257 50.045954,42.34157 49.708293,41.777126 49.370632,41.212681 47.82202,38.390459 46.273408,35.568237 45.98938,35.068432 45.705353,34.568631 44.18859,31.681766 42.671827,28.794903 42.28359,28.349348 41.895353,27.903792 V 27.629681 27.35557 l -0.3296,-0.329602 -0.3296,-0.329599 -0.371707,-1.067401 -0.371705,-1.067398 -0.0042,-0.635 -0.0042,-0.635 h 6.588481 6.588482 l 0.467073,0.516111 0.467075,0.516111 v 0.296 0.295998 l 0.423334,0.351336 0.423333,0.351335 v 0.418403 0.418403 l 0.846667,1.254523 0.846666,1.25452 v 0.20528 0.205277 l 0.450534,0.64323 0.450537,0.643227 1.172241,-2.087536 1.172244,-2.087536 0.550466,-1.103452 0.550466,-1.103452 0.410498,-0.493889 0.410498,-0.493889 h 6.58848 6.588481 v 0.723032 0.723032 l -0.752625,1.605303 -0.752624,1.6053 -0.181875,0.141111 -0.181876,0.141111 -1.619504,3.050235 -1.619504,3.050238 -0.589884,1.041984 -0.589887,1.041987 -1.541887,2.822223 -1.54189,2.822222 -0.323666,0.395712 -0.323667,0.39571 -0.141111,10.469846 -0.141111,10.469843 z"
         id="path3009" />
      <path
         style="fill:#000000;fill-opacity:1;stroke-width:0.282222"
         d="m 120.73443,135.61602 h -6.62822 l 0.18387,-0.57935 0.18388,-0.57935 0.96403,-1.70554 0.96403,-1.70554 v -0.23159 -0.2316 l 0.21167,-0.0941 0.21166,-0.0941 0.66575,-1.27 0.66574,-1.27 1.12961,-2.11666 1.12961,-2.11667 0.20976,-0.28222 0.20975,-0.28222 1.06349,-1.97556 1.06349,-1.97555 0.94372,-1.70375 0.94373,-1.70374 -0.36302,-0.69514 -0.36302,-0.69515 -1.63745,-3.10445 -1.63746,-3.10444 -0.2076,-0.28222 -0.2076,-0.28223 -1.49183,-2.82222 -1.49183,-2.82222 -0.20687,-0.28222 -0.20686,-0.28222 -1.44611,-2.714311 -1.44611,-2.714309 v -0.460691 -0.460694 h 6.45461 6.45462 l 1.09483,1.909208 1.09483,1.909208 0.81363,1.576379 0.81363,1.57638 0.45637,0.60421 0.45637,0.60422 0.84542,-1.62036 0.84542,-1.620356 1.37478,-2.469444 1.37478,-2.469445 h 6.45813 6.45814 v 0.435252 0.435252 l -1.38322,2.598637 -1.38321,2.598634 -1.01568,1.79101 -1.01567,1.79099 v 0.10158 0.10158 l -0.79432,1.35298 -0.79432,1.35297 -1.36157,2.54 -1.36158,2.54 -0.82485,1.49772 -0.82485,1.49771 0.68628,1.1834 0.68628,1.1834 1.06232,1.97555 1.06231,1.97556 0.49206,0.84666 0.49207,0.84667 0.84843,1.55222 0.84844,1.55223 0.84401,1.55222 0.84401,1.55222 0.85088,1.55222 0.85087,1.55222 0.59566,1.12471 0.59565,1.12471 v 0.21585 0.21585 h -6.59767 -6.59766 l -0.27486,-0.35278 -0.27487,-0.35278 -1.28386,-2.39889 -1.28387,-2.39889 -0.52194,-0.91544 -0.52194,-0.91543 -0.1597,-0.002 -0.15969,-0.002 -0.58172,1.05833 -0.58171,1.05834 -0.9159,1.69333 -0.9159,1.69333 -0.55293,0.91723 -0.55293,0.91722 h -6.62822 z m -4.05019,-44.873338 h -1.97555 v -5.202739 -5.202738 l -0.26606,-0.699779 -0.26605,-0.699778 -0.51006,-0.1485 -0.51005,-0.148499 -10.51278,-0.196757 -10.512781,-0.196757 V 66.170947 54.09476 L 91.387293,53.509832 90.643677,52.924904 H 85.88396 81.124243 V 51.23157 49.538237 h 4.885673 4.885673 l 0.61766,-0.57544 0.61766,-0.575437 v -7.131733 -7.13173 l -0.400044,-0.54783 -0.400044,-0.54783 -5.103289,-0.08837 -5.103289,-0.08837 V 31.17598 29.500461 h 4.810604 4.810608 l 0.692726,-0.692729 0.692728,-0.692725 v -6.50394 -6.50394 L 91.566465,14.542681 91.00202,13.978236 H 86.063132 81.124243 V 12.284903 10.59157 h 16.933333 16.933334 v 1.693333 1.693333 h -5.64444 -5.64445 l -0.56444,0.564445 -0.56445,0.564444 v 6.583027 6.583027 l 0.65319,0.613641 0.65319,0.613639 h 5.5557 5.5557 v 1.677193 1.677193 l -5.80879,0.0867 -5.80878,0.0867 -0.4001,0.54783 -0.40011,0.54783 v 7.142725 7.142726 l 0.56445,0.564445 0.56444,0.564444 h 5.64445 5.64444 v 1.693333 1.693334 h -5.59525 -5.59525 l -0.61364,0.653189 -0.61364,0.653189 v 6.057347 6.05735 l 0.43934,0.627239 0.43934,0.627241 h 5.01005 5.01006 l 0.54783,-0.400033 0.54783,-0.400033 0.0887,-4.962189 0.0888,-4.962189 h 1.95737 1.95736 v 4.669494 4.669496 l 0.69273,0.692726 0.69272,0.692728 h 6.22172 6.22172 l 0.56444,-0.564444 0.56445,-0.564444 v -4.797778 -4.797778 h 1.97555 1.97556 v 4.670143 4.670143 l 0.74676,0.692079 0.74677,0.692079 h 7.95293 7.95292 l 0.61365,-0.653189 0.61363,-0.653189 v -4.709033 -4.709033 h 1.55223 1.55222 V 73.809356 90.74269 h -1.55222 -1.55223 v -5.454139 -5.454137 l -0.65318,-0.613641 -0.65319,-0.613639 h -7.99279 -7.99278 l -0.66736,0.720096 -0.66736,0.720096 V 85.395 90.742682 h -1.97556 -1.97555 v -5.503333 -5.503334 l -0.56445,-0.564444 -0.56444,-0.564445 h -6.30081 -6.3008 l -0.61364,0.65319 -0.61364,0.653189 v 5.414588 5.414589 z m -58.631664,-26.876821 -7.126112,0.0754 V 54.093103 44.244947 L 50.486209,43.293257 50.045954,42.34157 49.708293,41.777126 49.370632,41.212681 47.82202,38.390459 46.273408,35.568237 45.98938,35.068432 45.705353,34.568631 44.18859,31.681766 42.671827,28.794903 42.28359,28.349348 41.895353,27.903792 V 27.629681 27.35557 l -0.3296,-0.329602 -0.3296,-0.329599 -0.371707,-1.067401 -0.371705,-1.067398 -0.0042,-0.635 -0.0042,-0.635 h 6.588481 6.588482 l 0.467073,0.516111 0.467075,0.516111 v 0.296 0.295998 l 0.423334,0.351336 0.423333,0.351335 v 0.418403 0.418403 l 0.846667,1.254523 0.846666,1.25452 v 0.20528 0.205277 l 0.450534,0.64323 0.450537,0.643227 1.172241,-2.087536 1.172244,-2.087536 0.550466,-1.103452 0.550466,-1.103452 0.410498,-0.493889 0.410498,-0.493889 h 6.58848 6.588481 v 0.723032 0.723032 l -0.752625,1.605303 -0.752624,1.6053 -0.181875,0.141111 -0.181876,0.141111 -1.619504,3.050235 -1.619504,3.050238 -0.589884,1.041984 -0.589887,1.041987 -1.541887,2.822223 -1.54189,2.822222 -0.323666,0.395712 -0.323667,0.39571 -0.141111,10.469846 -0.141111,10.469843 z"
         id="path3007" />
    </g>
  </g>
</svg>
