<?xml version="1.0" encoding="UTF-8" standalone="no"?>
<!-- Created with Inkscape (http://www.inkscape.org/) -->

<svg
   width="26.222139mm"
   height="29.392132mm"
   viewBox="0 0 26.222139 29.392132"
   version="1.1"
   id="svg3333"
   inkscape:version="1.1.1 (3bf5ae0d25, 2021-09-20)"
   sodipodi:docname="freeze_yaxis.svg"
   xmlns:inkscape="http://www.inkscape.org/namespaces/inkscape"
   xmlns:sodipodi="http://sodipodi.sourceforge.net/DTD/sodipodi-0.dtd"
   xmlns="http://www.w3.org/2000/svg"
   xmlns:svg="http://www.w3.org/2000/svg">
  <sodipodi:namedview
     id="namedview3335"
     pagecolor="#ffffff"
     bordercolor="#666666"
     borderopacity="1.0"
     inkscape:pageshadow="2"
     inkscape:pageopacity="0.0"
     inkscape:pagecheckerboard="0"
     inkscape:document-units="mm"
     showgrid="false"
     fit-margin-top="0"
     fit-margin-left="0"
     fit-margin-right="0"
     fit-margin-bottom="0"
     inkscape:zoom="0.64052329"
     inkscape:cx="-105.38259"
     inkscape:cy="519.10681"
     inkscape:window-width="1920"
     inkscape:window-height="1137"
     inkscape:window-x="-8"
     inkscape:window-y="-8"
     inkscape:window-maximized="1"
     inkscape:current-layer="layer1" />
  <defs
     id="defs3330" />
  <g
     inkscape:label="Layer 1"
     inkscape:groupmode="layer"
     id="layer1"
     transform="translate(-13.04511,-11.235564)">
    <g
       id="g3367"
       transform="matrix(0.22713758,0,0,0.22713758,3.0452329,7.5576503)"
       style="fill:#000000">
      <path
         style="fill:#000000;fill-opacity:1;stroke-width:0.282222"
         d="m 66.682936,145.52248 -22.374316,0.0723 -0.14149,-0.36872 -0.141491,-0.36871 0.07914,-3.79577 0.07914,-3.79576 6.702778,-0.0757 6.702778,-0.0757 v -9.58534 -9.58534 l -6.702778,-0.0757 -6.702778,-0.0757 v -4.09222 -4.09223 l 6.702778,-0.0757 6.702778,-0.0757 V 98.460227 87.463776 l -6.702778,-0.07566 -6.702778,-0.07566 v -4.092222 -4.092223 l 6.702778,-0.07566 6.702778,-0.07566 V 68.826893 58.677109 l -6.702778,-0.07566 -6.702778,-0.07566 V 54.43356 50.341337 l 6.702778,-0.07566 6.702778,-0.07566 V 37.359115 24.528219 l -6.702778,-0.07566 -6.702778,-0.07566 V 20.28467 16.192448 h 22.436667 22.436667 v 4.092222 4.092222 l -7.549445,0.07517 -7.549444,0.07516 v 12.831892 12.831891 l 7.549444,0.07517 7.549445,0.07516 v 4.092223 4.092222 l -7.549445,0.07516 -7.549444,0.07517 v 10.15078 10.15078 l 7.549444,0.07517 7.549445,0.07516 v 4.092223 4.092222 l -7.549445,0.07516 -7.549444,0.07517 v 10.997447 10.997438 l 7.549444,0.0752 7.549445,0.0752 v 4.09223 4.09222 l -7.549445,0.0752 -7.549444,0.0752 v 9.58634 9.58633 l 7.549444,0.0752 7.549445,0.0752 v 4.09223 4.09222 z M 132.51947,107.77356 H 122.50059 V 92.31676 76.859956 l -8.60778,-15.754928 -8.60778,-15.754929 v -0.256046 -0.256049 h 8.7095 8.7095 l 1.23883,0.174289 1.23884,0.174289 3.52777,6.456556 3.52778,6.456553 0.16294,0.0014 0.16294,0.0014 3.53122,-6.420555 3.53122,-6.420556 0.8214,-0.178277 0.82139,-0.178274 9.10167,-0.03339 9.10167,-0.03345 v 0.212358 0.212361 l -8.46667,15.492648 -8.46667,15.492651 v 15.762769 15.762774 z"
         id="path3381" />
      <path
         style="fill:#000000;fill-opacity:1;stroke-width:0.282222"
         d="m 66.682936,145.52248 -22.374316,0.0723 -0.14149,-0.36872 -0.141491,-0.36871 0.07914,-3.79577 0.07914,-3.79576 6.702778,-0.0757 6.702778,-0.0757 v -9.58534 -9.58534 l -6.702778,-0.0757 -6.702778,-0.0757 v -4.09222 -4.09223 l 6.702778,-0.0757 6.702778,-0.0757 V 98.460227 87.463776 l -6.702778,-0.07566 -6.702778,-0.07566 v -4.092222 -4.092223 l 6.702778,-0.07566 6.702778,-0.07566 V 68.826893 58.677109 l -6.702778,-0.07566 -6.702778,-0.07566 V 54.43356 50.341337 l 6.702778,-0.07566 6.702778,-0.07566 V 37.359115 24.528219 l -6.702778,-0.07566 -6.702778,-0.07566 V 20.28467 16.192448 h 22.436667 22.436667 v 4.092222 4.092222 l -7.549445,0.07517 -7.549444,0.07516 v 12.831892 12.831891 l 7.549444,0.07517 7.549445,0.07516 v 4.092223 4.092222 l -7.549445,0.07516 -7.549444,0.07517 v 10.15078 10.15078 l 7.549444,0.07517 7.549445,0.07516 v 4.092223 4.092222 l -7.549445,0.07516 -7.549444,0.07517 v 10.997447 10.997438 l 7.549444,0.0752 7.549445,0.0752 v 4.09223 4.09222 l -7.549445,0.0752 -7.549444,0.0752 v 9.58634 9.58633 l 7.549444,0.0752 7.549445,0.0752 v 4.09223 4.09222 z M 132.51947,107.77356 H 122.50059 V 92.31676 76.859956 l -8.60778,-15.754928 -8.60778,-15.754929 v -0.256046 -0.256049 h 8.7095 8.7095 l 1.23883,0.174289 1.23884,0.174289 3.52777,6.456556 3.52778,6.456553 0.16294,0.0014 0.16294,0.0014 3.53122,-6.420555 3.53122,-6.420556 0.8214,-0.178277 0.82139,-0.178274 9.10167,-0.03339 9.10167,-0.03345 v 0.212358 0.212361 l -8.46667,15.492648 -8.46667,15.492651 v 15.762769 15.762774 z"
         id="path3379" />
      <path
         style="fill:#000000;fill-opacity:1;stroke-width:0.282222"
         d="m 66.682936,145.52248 -22.374316,0.0723 -0.14149,-0.36872 -0.141491,-0.36871 0.07914,-3.79577 0.07914,-3.79576 6.702778,-0.0757 6.702778,-0.0757 v -9.58534 -9.58534 l -6.702778,-0.0757 -6.702778,-0.0757 v -4.09222 -4.09223 l 6.702778,-0.0757 6.702778,-0.0757 V 98.460227 87.463776 l -6.702778,-0.07566 -6.702778,-0.07566 v -4.092222 -4.092223 l 6.702778,-0.07566 6.702778,-0.07566 V 68.826893 58.677109 l -6.702778,-0.07566 -6.702778,-0.07566 V 54.43356 50.341337 l 6.702778,-0.07566 6.702778,-0.07566 V 37.359115 24.528219 l -6.702778,-0.07566 -6.702778,-0.07566 V 20.28467 16.192448 h 22.436667 22.436667 v 4.092222 4.092222 l -7.549445,0.07517 -7.549444,0.07516 v 12.831892 12.831891 l 7.549444,0.07517 7.549445,0.07516 v 4.092223 4.092222 l -7.549445,0.07516 -7.549444,0.07517 v 10.15078 10.15078 l 7.549444,0.07517 7.549445,0.07516 v 4.092223 4.092222 l -7.549445,0.07516 -7.549444,0.07517 v 10.997447 10.997438 l 7.549444,0.0752 7.549445,0.0752 v 4.09223 4.09222 l -7.549445,0.0752 -7.549444,0.0752 v 9.58634 9.58633 l 7.549444,0.0752 7.549445,0.0752 v 4.09223 4.09222 z M 132.51947,107.77356 H 122.50059 V 92.31676 76.859956 l -8.60778,-15.754928 -8.60778,-15.754929 v -0.256046 -0.256049 h 8.7095 8.7095 l 1.23883,0.174289 1.23884,0.174289 3.52777,6.456556 3.52778,6.456553 0.16294,0.0014 0.16294,0.0014 3.53122,-6.420555 3.53122,-6.420556 0.8214,-0.178277 0.82139,-0.178274 9.10167,-0.03339 9.10167,-0.03345 v 0.212358 0.212361 l -8.46667,15.492648 -8.46667,15.492651 v 15.762769 15.762774 z"
         id="path3377" />
      <path
         style="fill:#000000;fill-opacity:1;stroke-width:0.282222"
         d="M 66.620585,145.30912 H 44.325029 v -3.94601 -3.946 l 6.702778,-0.0757 6.702778,-0.0757 v -9.73666 -9.73667 l -6.702778,-0.0757 -6.702778,-0.0757 v -3.94089 -3.9409 l 6.702778,-0.0757 6.702778,-0.0757 V 98.460227 87.312449 l -6.702778,-0.07566 -6.702778,-0.07566 V 83.220235 79.27934 l 6.702778,-0.07566 6.702778,-0.07566 V 68.826893 58.525782 l -6.702778,-0.07566 -6.702778,-0.07566 V 54.43356 50.492665 l 6.702778,-0.07566 6.702778,-0.07566 V 37.359115 24.376892 l -6.702778,-0.07566 -6.702778,-0.07566 v -3.946004 -3.946003 h 22.295556 22.295556 v 3.946502 3.946501 l -7.549445,0.07516 -7.549444,0.07517 v 12.982223 12.982222 l 7.549444,0.07516 7.549445,0.07517 v 3.941891 3.94189 l -7.549445,0.07517 -7.549444,0.07516 v 10.301111 10.301111 l 7.549444,0.07516 7.549445,0.07517 v 3.941891 3.941891 l -7.549445,0.07517 -7.549444,0.07516 V 98.460227 109.608 l 7.549444,0.0752 7.549445,0.0752 v 3.94189 3.94189 l -7.549445,0.0752 -7.549444,0.0752 v 9.73667 9.73666 l 7.549444,0.0752 7.549445,0.0752 v 3.9465 3.94651 z M 132.51947,107.77356 H 122.50059 V 92.31676 76.859956 l -8.60778,-15.754928 -8.60778,-15.754929 v -0.256046 -0.256049 h 8.7095 8.7095 l 1.23883,0.174289 1.23884,0.174289 3.52777,6.456556 3.52778,6.456553 0.16294,0.0014 0.16294,0.0014 3.53122,-6.420555 3.53122,-6.420556 0.8214,-0.178277 0.82139,-0.178274 9.10167,-0.03339 9.10167,-0.03345 v 0.212358 0.212361 l -8.46667,15.492648 -8.46667,15.492651 v 15.762769 15.762774 z"
         id="path3375" />
      <path
         style="fill:#000000;fill-opacity:1;stroke-width:0.282222"
         d="M 66.620585,145.30912 H 44.325029 v -3.94601 -3.946 l 6.702778,-0.0757 6.702778,-0.0757 v -9.73666 -9.73667 l -6.702778,-0.0757 -6.702778,-0.0757 v -3.94089 -3.9409 l 6.702778,-0.0757 6.702778,-0.0757 V 98.460227 87.312449 l -6.702778,-0.07566 -6.702778,-0.07566 V 83.220235 79.27934 l 6.702778,-0.07566 6.702778,-0.07566 V 68.826893 58.525782 l -6.702778,-0.07566 -6.702778,-0.07566 V 54.43356 50.492665 l 6.702778,-0.07566 6.702778,-0.07566 V 37.359115 24.376892 l -6.702778,-0.07566 -6.702778,-0.07566 v -3.946004 -3.946003 h 22.295556 22.295556 v 3.946502 3.946501 l -7.549445,0.07516 -7.549444,0.07517 v 12.982223 12.982222 l 7.549444,0.07516 7.549445,0.07517 v 3.941891 3.94189 l -7.549445,0.07517 -7.549444,0.07516 v 10.301111 10.301111 l 7.549444,0.07516 7.549445,0.07517 v 3.941891 3.941891 l -7.549445,0.07517 -7.549444,0.07516 V 98.460227 109.608 l 7.549444,0.0752 7.549445,0.0752 v 3.94189 3.94189 l -7.549445,0.0752 -7.549444,0.0752 v 9.73667 9.73666 l 7.549444,0.0752 7.549445,0.0752 v 3.9465 3.94651 z M 132.51947,107.77356 H 122.50059 V 92.31676 76.859956 l -8.60778,-15.754928 -8.60778,-15.754929 v -0.256046 -0.256049 h 8.7095 8.7095 l 1.23883,0.174289 1.23884,0.174289 3.52777,6.456556 3.52778,6.456553 0.16294,0.0014 0.16294,0.0014 3.53122,-6.420555 3.53122,-6.420556 0.8214,-0.178277 0.82139,-0.178274 9.10167,-0.03339 9.10167,-0.03345 v 0.212358 0.212361 l -8.46667,15.492648 -8.46667,15.492651 v 15.762769 15.762774 z"
         id="path3373" />
      <path
         style="fill:#000000;fill-opacity:1;stroke-width:0.282222"
         d="M 66.620585,145.30912 H 44.325029 v -3.94601 -3.946 l 6.702778,-0.0757 6.702778,-0.0757 v -9.73666 -9.73667 l -6.702778,-0.0757 -6.702778,-0.0757 v -3.94089 -3.9409 l 6.702778,-0.0757 6.702778,-0.0757 V 98.460227 87.312449 l -6.702778,-0.07566 -6.702778,-0.07566 V 83.220235 79.27934 l 6.702778,-0.07566 6.702778,-0.07566 V 68.826893 58.525782 l -6.702778,-0.07566 -6.702778,-0.07566 V 54.43356 50.492665 l 6.702778,-0.07566 6.702778,-0.07566 V 37.359115 24.376892 l -6.702778,-0.07566 -6.702778,-0.07566 v -3.946004 -3.946003 h 22.295556 22.295556 v 3.946502 3.946501 l -7.549445,0.07516 -7.549444,0.07517 v 12.982223 12.982222 l 7.549444,0.07516 7.549445,0.07517 v 3.941891 3.94189 l -7.549445,0.07517 -7.549444,0.07516 v 10.301111 10.301111 l 7.549444,0.07516 7.549445,0.07517 v 3.941891 3.941891 l -7.549445,0.07517 -7.549444,0.07516 V 98.460227 109.608 l 7.549444,0.0752 7.549445,0.0752 v 3.94189 3.94189 l -7.549445,0.0752 -7.549444,0.0752 v 9.73667 9.73666 l 7.549444,0.0752 7.549445,0.0752 v 3.9465 3.94651 z M 132.51947,107.77356 H 122.50059 V 92.31676 76.859956 l -8.60778,-15.754928 -8.60778,-15.754929 v -0.256046 -0.256049 h 8.7095 8.7095 l 1.23883,0.174289 1.23884,0.174289 3.52777,6.456556 3.52778,6.456553 0.16294,0.0014 0.16294,0.0014 3.53122,-6.420555 3.53122,-6.420556 0.8214,-0.178277 0.82139,-0.178274 9.10167,-0.03339 9.10167,-0.03345 v 0.212358 0.212361 l -8.46667,15.492648 -8.46667,15.492651 v 15.762769 15.762774 z"
         id="path3371" />
      <path
         style="fill:#000000;fill-opacity:1;stroke-width:0.282222"
         d="M 66.620585,145.30912 H 44.325029 v -3.95111 -3.95112 h 6.773333 6.773334 v -9.87777 -9.87778 h -6.773334 -6.773333 v -3.95111 -3.95111 h 6.773333 6.773334 V 98.460227 87.171338 h -6.773334 -6.773333 v -3.951111 -3.951112 h 6.773333 6.773334 V 68.826893 58.384671 H 51.098362 44.325029 V 54.43356 50.482448 h 6.773333 6.773334 V 37.359115 24.235781 H 51.098362 44.325029 V 20.28467 16.333559 h 22.295556 22.295556 v 3.951111 3.951111 h -7.62 -7.62 v 13.123334 13.123333 h 7.62 7.62 v 3.951112 3.951111 h -7.62 -7.62 v 10.442222 10.442222 h 7.62 7.62 v 3.951112 3.951111 h -7.62 -7.62 v 11.288889 11.288893 h 7.62 7.62 v 3.95111 3.95111 h -7.62 -7.62 v 9.87778 9.87777 h 7.62 7.62 v 3.95112 3.95111 z M 132.51947,107.77356 H 122.50059 V 92.31676 76.859956 l -8.60778,-15.754928 -8.60778,-15.754929 v -0.256046 -0.256049 h 8.7095 8.7095 l 1.23883,0.174289 1.23884,0.174289 3.52777,6.456556 3.52778,6.456553 0.16294,0.0014 0.16294,0.0014 3.53122,-6.420555 3.53122,-6.420556 0.8214,-0.178277 0.82139,-0.178274 9.10167,-0.03339 9.10167,-0.03345 v 0.212358 0.212361 l -8.46667,15.492648 -8.46667,15.492651 v 15.762769 15.762774 z"
         id="path3369" />
    </g>
  </g>
</svg>
