<?xml version="1.0" encoding="UTF-8" standalone="no"?>
<!-- Created with Inkscape (http://www.inkscape.org/) -->

<svg
   width="30.533157mm"
   height="29.133165mm"
   viewBox="0 0 30.533157 29.133165"
   version="1.1"
   id="svg3152"
   inkscape:version="1.1.1 (3bf5ae0d25, 2021-09-20)"
   sodipodi:docname="freeze_xaxis.svg"
   xmlns:inkscape="http://www.inkscape.org/namespaces/inkscape"
   xmlns:sodipodi="http://sodipodi.sourceforge.net/DTD/sodipodi-0.dtd"
   xmlns="http://www.w3.org/2000/svg"
   xmlns:svg="http://www.w3.org/2000/svg">
  <sodipodi:namedview
     id="namedview3154"
     pagecolor="#ffffff"
     bordercolor="#666666"
     borderopacity="1.0"
     inkscape:pageshadow="2"
     inkscape:pageopacity="0.0"
     inkscape:pagecheckerboard="0"
     inkscape:document-units="mm"
     showgrid="false"
     inkscape:zoom="0.64052329"
     inkscape:cx="-501.93335"
     inkscape:cy="522.22925"
     inkscape:window-width="1920"
     inkscape:window-height="1137"
     inkscape:window-x="-8"
     inkscape:window-y="-8"
     inkscape:window-maximized="1"
     inkscape:current-layer="layer1"
     fit-margin-top="0"
     fit-margin-left="0"
     fit-margin-right="0"
     fit-margin-bottom="0" />
  <defs
     id="defs3149" />
  <g
     inkscape:label="Layer 1"
     inkscape:groupmode="layer"
     id="layer1"
     transform="translate(-11.961635,-10.477858)">
    <g
       id="g3186"
       transform="matrix(0.23621912,0,0,0.23621912,1.329995,6.3480453)"
       style="fill:#000000">
      <path
         style="fill:#000000;fill-opacity:1;stroke-width:0.282222"
         d="M 49.099757,140.81408 H 45.007534 V 118.37742 95.94075 h 4.092223 4.092222 v 7.62 7.62 h 12.982222 12.982223 v -7.62 -7.62 h 4.092222 4.092222 v 7.62 7.62 h 10.301112 10.30111 v -7.62 -7.62 h 4.09222 4.09223 v 7.62 7.62 h 11.14777 11.14778 v -7.62 -7.62 h 4.09222 4.09223 v 7.62 7.62 h 9.73666 9.73667 v -7.62 -7.62 h 4.09222 4.09222 v 22.43667 22.43666 h -4.09222 -4.09222 v -6.77333 -6.77333 h -9.73667 -9.73666 v 6.77333 6.77333 h -4.09223 -4.09222 v -6.77333 -6.77333 h -11.14778 -11.14777 v 6.77333 6.77333 h -4.09223 -4.09222 v -6.77333 -6.77333 H 97.64198 87.340868 v 6.77333 6.77333 h -4.092222 -4.092222 v -6.77333 -6.77333 H 66.174201 53.191979 v 6.77333 6.77333 z m 40.955494,-61.026971 -10.083792,0.07414 0.982432,-1.76747 0.982433,-1.76747 7.383427,-13.405556 7.38343,-13.405556 -0.258419,-0.705555 -0.25842,-0.705556 -8.232735,-15.050375 -8.232739,-15.050373 v -0.260181 -0.260183 h 8.709499 8.7095 l 1.238834,0.174289 1.238834,0.174289 3.527775,6.456556 3.52778,6.456555 0.16294,0.0014 0.16294,0.0014 3.53122,-6.420556 3.53122,-6.420555 0.8214,-0.178276 0.82139,-0.178275 9.10167,-0.03339 9.10167,-0.03339 v 0.212359 0.212359 l -8.4928,15.52153 -8.49281,15.521531 0.26635,0.705555 0.26635,0.705556 8.08035,14.675556 8.08036,14.675555 -9.80063,0.07429 -9.80063,0.07429 -0.31241,-0.119882 -0.31241,-0.119883 -3.21697,-5.943123 -3.21698,-5.94312 -0.14111,-0.006 -0.14111,-0.006 -3.26702,5.994761 -3.26703,5.994761 -10.083789,0.07414 z"
         id="path3200" />
      <path
         style="fill:#000000;fill-opacity:1;stroke-width:0.282222"
         d="M 49.099757,140.81408 H 45.007534 V 118.37742 95.94075 h 4.092223 4.092222 v 7.62 7.62 h 12.982222 12.982223 v -7.62 -7.62 h 4.092222 4.092222 v 7.62 7.62 h 10.301112 10.30111 v -7.62 -7.62 h 4.09222 4.09223 v 7.62 7.62 h 11.14777 11.14778 v -7.62 -7.62 h 4.09222 4.09223 v 7.62 7.62 h 9.73666 9.73667 v -7.62 -7.62 h 4.09222 4.09222 v 22.43667 22.43666 h -4.09222 -4.09222 v -6.77333 -6.77333 h -9.73667 -9.73666 v 6.77333 6.77333 h -4.09223 -4.09222 v -6.77333 -6.77333 h -11.14778 -11.14777 v 6.77333 6.77333 h -4.09223 -4.09222 v -6.77333 -6.77333 H 97.64198 87.340868 v 6.77333 6.77333 h -4.092222 -4.092222 v -6.77333 -6.77333 H 66.174201 53.191979 v 6.77333 6.77333 z m 40.955494,-61.026971 -10.083792,0.07414 0.982432,-1.76747 0.982433,-1.76747 7.383427,-13.405556 7.38343,-13.405556 -0.258419,-0.705555 -0.25842,-0.705556 -8.232735,-15.050375 -8.232739,-15.050373 v -0.260181 -0.260183 h 8.709499 8.7095 l 1.238834,0.174289 1.238834,0.174289 3.527775,6.456556 3.52778,6.456555 0.16294,0.0014 0.16294,0.0014 3.53122,-6.420556 3.53122,-6.420555 0.8214,-0.178276 0.82139,-0.178275 9.10167,-0.03339 9.10167,-0.03339 v 0.212359 0.212359 l -8.4928,15.52153 -8.49281,15.521531 0.26635,0.705555 0.26635,0.705556 8.08035,14.675556 8.08036,14.675555 -9.80063,0.07429 -9.80063,0.07429 -0.31241,-0.119882 -0.31241,-0.119883 -3.21697,-5.943123 -3.21698,-5.94312 -0.14111,-0.006 -0.14111,-0.006 -3.26702,5.994761 -3.26703,5.994761 -10.083789,0.07414 z"
         id="path3198" />
      <path
         style="fill:#000000;fill-opacity:1;stroke-width:0.282222"
         d="M 49.099757,140.81408 H 45.007534 V 118.37742 95.94075 h 4.092223 4.092222 v 7.62 7.62 h 12.982222 12.982223 v -7.62 -7.62 h 4.092222 4.092222 v 7.62 7.62 h 10.301112 10.30111 v -7.62 -7.62 h 4.09222 4.09223 v 7.62 7.62 h 11.14777 11.14778 v -7.62 -7.62 h 4.09222 4.09223 v 7.62 7.62 h 9.73666 9.73667 v -7.62 -7.62 h 4.09222 4.09222 v 22.43667 22.43666 h -4.09222 -4.09222 v -6.77333 -6.77333 h -9.73667 -9.73666 v 6.77333 6.77333 h -4.09223 -4.09222 v -6.77333 -6.77333 h -11.14778 -11.14777 v 6.77333 6.77333 h -4.09223 -4.09222 v -6.77333 -6.77333 H 97.64198 87.340868 v 6.77333 6.77333 h -4.092222 -4.092222 v -6.77333 -6.77333 H 66.174201 53.191979 v 6.77333 6.77333 z m 40.955494,-61.026971 -10.083792,0.07414 0.982432,-1.76747 0.982433,-1.76747 7.383427,-13.405556 7.38343,-13.405556 -0.258419,-0.705555 -0.25842,-0.705556 -8.232735,-15.050375 -8.232739,-15.050373 v -0.260181 -0.260183 h 8.709499 8.7095 l 1.238834,0.174289 1.238834,0.174289 3.527775,6.456556 3.52778,6.456555 0.16294,0.0014 0.16294,0.0014 3.53122,-6.420556 3.53122,-6.420555 0.8214,-0.178276 0.82139,-0.178275 9.10167,-0.03339 9.10167,-0.03339 v 0.212359 0.212359 l -8.4928,15.52153 -8.49281,15.521531 0.26635,0.705555 0.26635,0.705556 8.08035,14.675556 8.08036,14.675555 -9.80063,0.07429 -9.80063,0.07429 -0.31241,-0.119882 -0.31241,-0.119883 -3.21697,-5.943123 -3.21698,-5.94312 -0.14111,-0.006 -0.14111,-0.006 -3.26702,5.994761 -3.26703,5.994761 -10.083789,0.07414 z"
         id="path3196" />
      <path
         style="fill:#000000;fill-opacity:1;stroke-width:0.282222"
         d="M 49.099757,140.81408 H 45.007534 V 118.37742 95.94075 h 4.092223 4.092222 v 7.62 7.62 h 12.982222 12.982223 v -7.62 -7.62 h 4.092222 4.092222 v 7.62 7.62 h 10.301112 10.30111 v -7.62 -7.62 h 4.09222 4.09223 v 7.62 7.62 h 11.14777 11.14778 v -7.62 -7.62 h 4.09222 4.09223 v 7.62 7.62 h 9.73666 9.73667 v -7.62 -7.62 h 4.09222 4.09222 v 22.43667 22.43666 h -4.09222 -4.09222 v -6.77333 -6.77333 h -9.73667 -9.73666 v 6.77333 6.77333 h -4.09223 -4.09222 v -6.77333 -6.77333 h -11.14778 -11.14777 v 6.77333 6.77333 h -4.09223 -4.09222 v -6.77333 -6.77333 H 97.64198 87.340868 v 6.77333 6.77333 h -4.092222 -4.092222 v -6.77333 -6.77333 H 66.174201 53.191979 v 6.77333 6.77333 z m 40.955494,-61.026971 -10.083792,0.07414 0.982432,-1.76747 0.982433,-1.76747 7.383427,-13.405556 7.38343,-13.405556 -0.258419,-0.705555 -0.25842,-0.705556 -8.232735,-15.050375 -8.232739,-15.050373 v -0.260181 -0.260183 h 8.709499 8.7095 l 1.238834,0.174289 1.238834,0.174289 3.527775,6.456556 3.52778,6.456555 0.16294,0.0014 0.16294,0.0014 3.53122,-6.420556 3.53122,-6.420555 0.8214,-0.178276 0.82139,-0.178275 9.10167,-0.03339 9.10167,-0.03339 v 0.212359 0.212359 l -8.4928,15.52153 -8.49281,15.521531 0.26635,0.705555 0.26635,0.705556 8.08035,14.675556 8.08036,14.675555 -9.80063,0.07429 -9.80063,0.07429 -0.31241,-0.119882 -0.31241,-0.119883 -3.21697,-5.943123 -3.21698,-5.94312 -0.14111,-0.006 -0.14111,-0.006 -3.26702,5.994761 -3.26703,5.994761 -10.083789,0.07414 z"
         id="path3194" />
      <path
         style="fill:#000000;fill-opacity:1;stroke-width:0.282222"
         d="M 49.099757,140.81408 H 45.007534 V 118.37742 95.94075 h 4.092223 4.092222 v 7.62 7.62 h 12.982222 12.982223 v -7.62 -7.62 h 4.092222 4.092222 v 7.62 7.62 h 10.301112 10.30111 v -7.62 -7.62 h 4.09222 4.09223 v 7.62 7.62 h 11.14777 11.14778 v -7.62 -7.62 h 4.09222 4.09223 v 7.62 7.62 h 9.73666 9.73667 v -7.62 -7.62 h 4.09222 4.09222 v 22.43667 22.43666 h -4.09222 -4.09222 v -6.77333 -6.77333 h -9.73667 -9.73666 v 6.77333 6.77333 h -4.09223 -4.09222 v -6.77333 -6.77333 h -11.14778 -11.14777 v 6.77333 6.77333 h -4.09223 -4.09222 v -6.77333 -6.77333 H 97.64198 87.340868 v 6.77333 6.77333 h -4.092222 -4.092222 v -6.77333 -6.77333 H 66.174201 53.191979 v 6.77333 6.77333 z m 40.955494,-61.026971 -10.083792,0.07414 0.982432,-1.76747 0.982433,-1.76747 7.383427,-13.405556 7.38343,-13.405556 -0.258419,-0.705555 -0.25842,-0.705556 -8.232735,-15.050375 -8.232739,-15.050373 v -0.260181 -0.260183 h 8.709499 8.7095 l 1.238834,0.174289 1.238834,0.174289 3.527775,6.456556 3.52778,6.456555 0.16294,0.0014 0.16294,0.0014 3.53122,-6.420556 3.53122,-6.420555 0.8214,-0.178276 0.82139,-0.178275 9.10167,-0.03339 9.10167,-0.03339 v 0.212359 0.212359 l -8.4928,15.52153 -8.49281,15.521531 0.26635,0.705555 0.26635,0.705556 8.08035,14.675556 8.08036,14.675555 -9.80063,0.07429 -9.80063,0.07429 -0.31241,-0.119882 -0.31241,-0.119883 -3.21697,-5.943123 -3.21698,-5.94312 -0.14111,-0.006 -0.14111,-0.006 -3.26702,5.994761 -3.26703,5.994761 -10.083789,0.07414 z"
         id="path3192" />
      <path
         style="fill:#000000;fill-opacity:1;stroke-width:0.282222"
         d="M 49.099757,140.81408 H 45.007534 V 118.37742 95.94075 h 4.092223 4.092222 v 7.62 7.62 h 12.982222 12.982223 v -7.62 -7.62 h 4.092222 4.092222 v 7.62 7.62 h 10.301112 10.30111 v -7.62 -7.62 h 4.09222 4.09223 v 7.62 7.62 h 11.14777 11.14778 v -7.62 -7.62 h 4.09222 4.09223 v 7.62 7.62 h 9.73666 9.73667 v -7.62 -7.62 h 4.09222 4.09222 v 22.43667 22.43666 h -4.09222 -4.09222 v -6.77333 -6.77333 h -9.73667 -9.73666 v 6.77333 6.77333 h -4.09223 -4.09222 v -6.77333 -6.77333 h -11.14778 -11.14777 v 6.77333 6.77333 h -4.09223 -4.09222 v -6.77333 -6.77333 H 97.64198 87.340868 v 6.77333 6.77333 h -4.092222 -4.092222 v -6.77333 -6.77333 H 66.174201 53.191979 v 6.77333 6.77333 z m 40.955494,-61.026971 -10.083792,0.07414 0.982432,-1.76747 0.982433,-1.76747 7.383427,-13.405556 7.38343,-13.405556 -0.258419,-0.705555 -0.25842,-0.705556 -8.232735,-15.050375 -8.232739,-15.050373 v -0.260181 -0.260183 h 8.709499 8.7095 l 1.238834,0.174289 1.238834,0.174289 3.527775,6.456556 3.52778,6.456555 0.16294,0.0014 0.16294,0.0014 3.53122,-6.420556 3.53122,-6.420555 0.8214,-0.178276 0.82139,-0.178275 9.10167,-0.03339 9.10167,-0.03339 v 0.212359 0.212359 l -8.4928,15.52153 -8.49281,15.521531 0.26635,0.705555 0.26635,0.705556 8.08035,14.675556 8.08036,14.675555 -9.80063,0.07429 -9.80063,0.07429 -0.31241,-0.119882 -0.31241,-0.119883 -3.21697,-5.943123 -3.21698,-5.94312 -0.14111,-0.006 -0.14111,-0.006 -3.26702,5.994761 -3.26703,5.994761 -10.083789,0.07414 z"
         id="path3190" />
      <path
         style="fill:#000000;fill-opacity:1;stroke-width:0.282222"
         d="M 49.099757,140.81408 H 45.007534 V 118.37742 95.94075 h 4.092223 4.092222 v 7.62 7.62 h 12.982222 12.982223 v -7.62 -7.62 h 4.092222 4.092222 v 7.62 7.62 h 10.301112 10.30111 v -7.62 -7.62 h 4.09222 4.09223 v 7.62 7.62 h 11.14777 11.14778 v -7.62 -7.62 h 4.09222 4.09223 v 7.62 7.62 h 9.73666 9.73667 v -7.62 -7.62 h 4.09222 4.09222 v 22.43667 22.43666 h -4.09222 -4.09222 v -6.77333 -6.77333 h -9.73667 -9.73666 v 6.77333 6.77333 h -4.09223 -4.09222 v -6.77333 -6.77333 h -11.14778 -11.14777 v 6.77333 6.77333 h -4.09223 -4.09222 v -6.77333 -6.77333 H 97.64198 87.340868 v 6.77333 6.77333 h -4.092222 -4.092222 v -6.77333 -6.77333 H 66.174201 53.191979 v 6.77333 6.77333 z m 40.955494,-61.026971 -10.083792,0.07414 0.982432,-1.76747 0.982433,-1.76747 7.383427,-13.405556 7.38343,-13.405556 -0.258419,-0.705555 -0.25842,-0.705556 -8.232735,-15.050375 -8.232739,-15.050373 v -0.260181 -0.260183 h 8.709499 8.7095 l 1.238834,0.174289 1.238834,0.174289 3.527775,6.456556 3.52778,6.456555 0.16294,0.0014 0.16294,0.0014 3.53122,-6.420556 3.53122,-6.420555 0.8214,-0.178276 0.82139,-0.178275 9.10167,-0.03339 9.10167,-0.03339 v 0.212359 0.212359 l -8.4928,15.52153 -8.49281,15.521531 0.26635,0.705555 0.26635,0.705556 8.08035,14.675556 8.08036,14.675555 -9.80063,0.07429 -9.80063,0.07429 -0.31241,-0.119882 -0.31241,-0.119883 -3.21697,-5.943123 -3.21698,-5.94312 -0.14111,-0.006 -0.14111,-0.006 -3.26702,5.994761 -3.26703,5.994761 -10.083789,0.07414 z"
         id="path3188" />
    </g>
  </g>
</svg>
