<?xml version="1.0" encoding="utf-8"?>

<!DOCTYPE svg PUBLIC "-//W3C//DTD SVG 1.1//EN" "http://www.w3.org/Graphics/SVG/1.1/DTD/svg11.dtd">
<!-- Uploaded to: SVG Repo, www.svgrepo.com, Generator: SVG Repo Mixer Tools -->
<svg height="800px" width="800px" version="1.1" id="_x32_" xmlns="http://www.w3.org/2000/svg" xmlns:xlink="http://www.w3.org/1999/xlink" 
	 viewBox="0 0 512 512"  xml:space="preserve">
<style type="text/css">
	.st0{fill:#000000;}
</style>
<g>
	<path class="st0" d="M177.657,342.774c-78.363-40.327-44.387-102.629,15.334-153.657l-30.429-34.018
		c-7.957-8.889-19.522-13.676-31.436-13.009c-11.907,0.666-22.873,6.718-29.771,16.445L5.264,293.771
		c-27.676,46.122,55.353,138.374,212.172,138.374c13.231,0,26.71-0.522,40.249-1.453
		C257.343,408.409,242.454,376.125,177.657,342.774z"/>
	<path class="st0" d="M503.415,293.771L354.75,95.557c-7.385-9.864-18.976-15.668-31.284-15.702
		c-12.317-0.034-23.924,5.718-31.36,15.539l-83.892,110.732c-21.908,25.95-42.661,53.626-9.796,70.926
		c30.796,16.205,145.118,35.454,186.427,131.732C473.421,383.502,535.544,340.508,503.415,293.771z"/>
</g>
</svg>