<?xml version="1.0" encoding="UTF-8" standalone="no"?>
<!-- Created with Inkscape (http://www.inkscape.org/) -->

<svg
   width="29.040668mm"
   height="29.802668mm"
   viewBox="0 0 29.040668 29.802668"
   version="1.1"
   id="svg3521"
   inkscape:version="1.1.1 (3bf5ae0d25, 2021-09-20)"
   sodipodi:docname="legend.svg"
   xmlns:inkscape="http://www.inkscape.org/namespaces/inkscape"
   xmlns:sodipodi="http://sodipodi.sourceforge.net/DTD/sodipodi-0.dtd"
   xmlns="http://www.w3.org/2000/svg"
   xmlns:svg="http://www.w3.org/2000/svg">
  <sodipodi:namedview
     id="namedview3523"
     pagecolor="#ffffff"
     bordercolor="#666666"
     borderopacity="1.0"
     inkscape:pageshadow="2"
     inkscape:pageopacity="0.0"
     inkscape:pagecheckerboard="0"
     inkscape:document-units="mm"
     showgrid="false"
     fit-margin-top="0"
     fit-margin-left="0"
     fit-margin-right="0"
     fit-margin-bottom="0"
     inkscape:zoom="0.64052329"
     inkscape:cx="-150.65807"
     inkscape:cy="88.209127"
     inkscape:window-width="1920"
     inkscape:window-height="1137"
     inkscape:window-x="-8"
     inkscape:window-y="-8"
     inkscape:window-maximized="1"
     inkscape:current-layer="layer1" />
  <defs
     id="defs3518" />
  <g
     inkscape:label="Layer 1"
     inkscape:groupmode="layer"
     id="layer1"
     transform="translate(-25.092409,-125.29999)">
    <g
       id="g3555"
       transform="translate(4.5438108,70.222531)"
       style="fill:#000000">
      <path
         style="fill:#000000;fill-opacity:1;stroke-width:0.0846667"
         d="M 35.068932,84.880125 H 20.548598 V 69.978791 55.077457 h 14.520334 14.520334 v 14.901334 14.901334 z m 0,-2.286 H 47.303265 V 69.978791 57.363458 H 35.068932 22.834598 v 12.615333 12.615334 z m -6.011334,-1.21031 -0.846667,0.02618 -0.381,-0.137581 -0.381,-0.137583 -0.443247,-0.293753 -0.443248,-0.293753 -0.25247,-0.318769 -0.25247,-0.31877 -0.235616,-0.456995 -0.235615,-0.456996 v -0.973667 -0.973667 l 0.254,-0.505 0.254,-0.505 0.426333,-0.426333 0.426333,-0.426333 0.505,-0.254 0.505,-0.254 h 0.973667 0.973667 l 0.505,0.254 0.505,0.254 0.426333,0.426333 0.426334,0.426333 0.254,0.505 0.254,0.505 v 0.973667 0.973667 l -0.254,0.505 -0.254,0.505 -0.426334,0.426333 -0.426333,0.426333 -0.505,0.24959 -0.505,0.24959 z m -0.169333,-1.587878 0.169333,0.0032 0.319814,-0.08881 0.319815,-0.08881 0.298344,-0.26195 0.298344,-0.26195 0.115416,-0.22319 0.115417,-0.223191 0.05649,-0.301093 0.05649,-0.301093 -0.09512,-0.35326 -0.09512,-0.353259 -0.263006,-0.299547 -0.263006,-0.299547 -0.22319,-0.115416 -0.223191,-0.115417 -0.301093,-0.05649 -0.301093,-0.05649 -0.353259,0.09512 -0.35326,0.09512 -0.299547,0.263006 -0.299547,0.263006 -0.115416,0.22319 -0.115417,0.223191 -0.05649,0.301093 -0.05648,0.301093 0.09739,0.361675 0.09739,0.361676 0.311671,0.332622 0.311671,0.332623 0.338667,0.1198 0.338666,0.1198 0.169334,0.0032 z m 10.668,-0.503812 h -4.868333 v -1.524 -1.524 h 4.868333 4.868334 v 1.524 1.524 z m -8.360833,-5.994873 -1.121834,0.02587 -2.310116,-0.02251 -2.310117,-0.02251 1.704117,-3.385322 1.704119,-3.385322 h 0.0595 0.0595 l 1.668328,3.289158 1.668329,3.289158 v 0.0928 0.0928 z m -2.222501,-1.455794 h 1.312334 v -0.09415 -0.09415 l -0.563849,-1.095505 -0.563849,-1.095505 -0.203403,0.02549 -0.203403,0.02549 -0.545081,1.041076 -0.545082,1.041078 v 0.123089 0.12309 z m 10.752667,-0.169333 h -4.868333 v -1.524 -1.524 h 4.868333 4.868334 v 1.524 1.524 z m -10.879694,-6.246015 -3.471363,0.02302 2.9e-5,-0.0585 2.8e-5,-0.0585 0.08467,-0.05233 0.08467,-0.05233 v -3.297004 -3.297003 h 3.386667 3.386667 v 3.384819 3.384819 z m 0.08469,-1.712652 h 1.693334 v -1.693334 -1.693333 h -1.693334 -1.693333 v 1.693333 1.693334 z m 10.710334,-0.508 h -4.868334 v -1.524 -1.524 h 4.868334 4.868333 v 1.524 1.524 z"
         id="path3569" />
      <path
         style="fill:#000000;fill-opacity:1;stroke-width:0.0846667"
         d="M 35.068932,84.880125 H 20.548598 V 69.978791 55.077457 h 14.520334 14.520334 v 14.901334 14.901334 z m 0,-2.286 H 47.303265 V 69.978791 57.363458 H 35.068932 22.834598 v 12.615333 12.615334 z m -6.011334,-1.21031 -0.846667,0.02618 -0.381,-0.137581 -0.381,-0.137583 -0.443247,-0.293753 -0.443248,-0.293753 -0.25247,-0.318769 -0.25247,-0.31877 -0.235616,-0.456995 -0.235615,-0.456996 v -0.973667 -0.973667 l 0.254,-0.505 0.254,-0.505 0.426333,-0.426333 0.426333,-0.426333 0.505,-0.254 0.505,-0.254 h 0.973667 0.973667 l 0.505,0.254 0.505,0.254 0.426333,0.426333 0.426334,0.426333 0.254,0.505 0.254,0.505 v 0.973667 0.973667 l -0.254,0.505 -0.254,0.505 -0.426334,0.426333 -0.426333,0.426333 -0.505,0.24959 -0.505,0.24959 z m -0.127,-1.58369 h 0.319331 l 0.451259,-0.235742 0.451261,-0.23574 0.235741,-0.451261 0.235742,-0.45126 v -0.31933 -0.319331 L 30.38819,77.336201 30.152449,76.884941 29.701188,76.6492 29.249929,76.413458 h -0.319331 -0.31933 l -0.45126,0.235742 -0.451261,0.235741 -0.235741,0.45126 -0.235741,0.45126 v 0.319331 0.31933 l 0.235741,0.45126 0.235741,0.451261 0.451261,0.23574 0.45126,0.235742 z m 10.625667,-0.508 h -4.868333 v -1.524 -1.524 h 4.868333 4.868334 v 1.524 1.524 z m -8.360833,-5.994873 -1.121834,0.02587 -2.310116,-0.02251 -2.310117,-0.02251 1.704117,-3.385322 1.704119,-3.385322 h 0.0595 0.0595 l 1.668328,3.289158 1.668329,3.289158 v 0.0928 0.0928 z m -2.222501,-1.455794 h 1.312334 v -0.09415 -0.09415 l -0.563849,-1.095505 -0.563849,-1.095505 -0.203403,0.02549 -0.203403,0.02549 -0.545081,1.041076 -0.545082,1.041078 v 0.123089 0.12309 z m 10.752667,-0.169333 h -4.868333 v -1.524 -1.524 h 4.868333 4.868334 v 1.524 1.524 z m -10.879694,-6.246015 -3.471363,0.02302 2.9e-5,-0.0585 2.8e-5,-0.0585 0.08467,-0.05233 0.08467,-0.05233 v -3.297004 -3.297003 h 3.386667 3.386667 v 3.384819 3.384819 z m 0.08469,-1.712652 h 1.693334 v -1.693334 -1.693333 h -1.693334 -1.693333 v 1.693333 1.693334 z m 10.710334,-0.508 h -4.868334 v -1.524 -1.524 h 4.868334 4.868333 v 1.524 1.524 z"
         id="path3567" />
      <path
         style="fill:#000000;fill-opacity:1;stroke-width:0.0846667"
         d="M 35.068932,84.880125 H 20.548598 V 69.978791 55.077457 h 14.520334 14.520334 v 14.901334 14.901334 z m 0,-2.286 H 47.303265 V 69.978791 57.363458 H 35.068932 22.834598 v 12.615333 12.615334 z m -6.011334,-1.21031 -0.846667,0.02618 -0.381,-0.137581 -0.381,-0.137583 -0.443247,-0.293753 -0.443248,-0.293753 -0.25247,-0.318769 -0.25247,-0.31877 -0.235616,-0.456995 -0.235615,-0.456996 v -0.973667 -0.973667 l 0.254,-0.505 0.254,-0.505 0.426333,-0.426333 0.426333,-0.426333 0.505,-0.254 0.505,-0.254 h 0.973667 0.973667 l 0.505,0.254 0.505,0.254 0.426333,0.426333 0.426334,0.426333 0.254,0.505 0.254,0.505 v 0.973667 0.973667 l -0.254,0.505 -0.254,0.505 -0.426334,0.426333 -0.426333,0.426333 -0.505,0.24959 -0.505,0.24959 z m -0.179156,-1.592334 0.244177,0.0086 0.346457,-0.103801 0.346458,-0.103802 0.30425,-0.304249 0.30425,-0.304251 0.110999,-0.396451 0.111,-0.396451 -0.04736,-0.291838 -0.04736,-0.291839 -0.14494,-0.305439 -0.14494,-0.305437 -0.264785,-0.201961 -0.264785,-0.201962 -0.400634,-0.107153 -0.400633,-0.107153 -0.400633,0.107153 -0.400634,0.107153 -0.264784,0.201962 -0.264786,0.201961 -0.144939,0.305437 -0.14494,0.305439 -0.04736,0.291839 -0.04736,0.291838 0.111,0.396451 0.110999,0.396451 0.306212,0.306212 0.306212,0.306212 0.292339,0.0932 0.29234,0.0932 z m 10.677823,-0.499356 h -4.868333 v -1.524 -1.524 h 4.868333 4.868334 v 1.524 1.524 z m -8.360833,-5.994873 -1.121834,0.02587 -2.310116,-0.02251 -2.310117,-0.02251 1.704117,-3.385322 1.704119,-3.385322 h 0.0595 0.0595 l 1.668328,3.289158 1.668329,3.289158 v 0.0928 0.0928 z m -2.222501,-1.455794 h 1.312334 v -0.09415 -0.09415 l -0.563849,-1.095505 -0.563849,-1.095505 -0.203403,0.02549 -0.203403,0.02549 -0.545081,1.041076 -0.545082,1.041078 v 0.123089 0.12309 z m 10.752667,-0.169333 h -4.868333 v -1.524 -1.524 h 4.868333 4.868334 v 1.524 1.524 z m -10.879694,-6.246015 -3.471363,0.02302 2.9e-5,-0.0585 2.8e-5,-0.0585 0.08467,-0.05233 0.08467,-0.05233 v -3.297004 -3.297003 h 3.386667 3.386667 v 3.384819 3.384819 z m 0.08469,-1.712652 h 1.693334 v -1.693334 -1.693333 h -1.693334 -1.693333 v 1.693333 1.693334 z m 10.710334,-0.508 h -4.868334 v -1.524 -1.524 h 4.868334 4.868333 v 1.524 1.524 z"
         id="path3565" />
      <path
         style="fill:#000000;fill-opacity:1;stroke-width:0.0846667"
         d="M 35.068932,84.880125 H 20.548598 V 69.978791 55.077457 h 14.520334 14.520334 v 14.901334 14.901334 z m 0,-2.286 H 47.303265 V 69.978791 57.363458 H 35.068932 22.834598 v 12.615333 12.615334 z m -6.011334,-1.21031 -0.846667,0.02618 -0.381,-0.137581 -0.381,-0.137583 -0.443247,-0.293753 -0.443248,-0.293753 -0.25247,-0.318769 -0.25247,-0.31877 -0.235616,-0.456995 -0.235615,-0.456996 v -0.973667 -0.973667 l 0.254,-0.505 0.254,-0.505 0.426333,-0.426333 0.426333,-0.426333 0.505,-0.254 0.505,-0.254 h 0.973667 0.973667 l 0.505,0.254 0.505,0.254 0.426333,0.426333 0.426334,0.426333 0.254,0.505 0.254,0.505 v 0.973667 0.973667 l -0.254,0.505 -0.254,0.505 -0.426334,0.426333 -0.426333,0.426333 -0.505,0.24959 -0.505,0.24959 z m -0.02073,-1.603623 0.487272,-0.03327 0.352895,-0.248565 0.352894,-0.248566 0.203668,-0.381 0.203668,-0.381 -0.03327,-0.487272 -0.03327,-0.487272 -0.248566,-0.352895 -0.248566,-0.352894 -0.381,-0.203668 -0.381,-0.203669 -0.487272,0.03327 -0.487272,0.03327 -0.352895,0.248565 -0.352894,0.248567 -0.203668,0.381 -0.203668,0.381 0.03327,0.487272 0.03327,0.487271 0.248565,0.352895 0.248566,0.352894 0.381,0.203669 0.381,0.203668 z M 39.556263,79.292125 H 34.68793 v -1.524 -1.524 h 4.868333 4.868334 v 1.524 1.524 z m -8.360833,-5.994873 -1.121834,0.02587 -2.310116,-0.02251 -2.310117,-0.02251 1.704117,-3.385322 1.704119,-3.385322 h 0.0595 0.0595 l 1.668328,3.289158 1.668329,3.289158 v 0.0928 0.0928 z m -2.222501,-1.455794 h 1.312334 v -0.09415 -0.09415 l -0.563849,-1.095505 -0.563849,-1.095505 -0.203403,0.02549 -0.203403,0.02549 -0.545081,1.041076 -0.545082,1.041078 v 0.123089 0.12309 z m 10.752667,-0.169333 h -4.868333 v -1.524 -1.524 h 4.868333 4.868334 v 1.524 1.524 z m -10.879694,-6.246015 -3.471363,0.02302 2.9e-5,-0.0585 2.8e-5,-0.0585 0.08467,-0.05233 0.08467,-0.05233 v -3.297004 -3.297003 h 3.386667 3.386667 v 3.384819 3.384819 z m 0.08469,-1.712652 h 1.693334 v -1.693334 -1.693333 h -1.693334 -1.693333 v 1.693333 1.693334 z m 10.710334,-0.508 h -4.868334 v -1.524 -1.524 h 4.868334 4.868333 v 1.524 1.524 z"
         id="path3563" />
      <path
         style="fill:#000000;fill-opacity:1;stroke-width:0.0846667"
         d="M 35.068932,84.880125 H 20.548598 V 69.978791 55.077457 h 14.520334 14.520334 v 14.901334 14.901334 z m 0,-2.286 H 47.303265 V 69.978791 57.363458 H 35.068932 22.834598 v 12.615333 12.615334 z m -6.011334,-1.21031 -0.846667,0.02618 -0.381,-0.137581 -0.381,-0.137583 -0.443247,-0.293753 -0.443248,-0.293753 -0.25247,-0.318769 -0.25247,-0.31877 -0.235616,-0.456995 -0.235615,-0.456996 v -0.973667 -0.973667 l 0.254,-0.505 0.254,-0.505 0.426333,-0.426333 0.426333,-0.426333 0.505,-0.254 0.505,-0.254 h 0.973667 0.973667 l 0.505,0.254 0.505,0.254 0.426333,0.426333 0.426334,0.426333 0.254,0.505 0.254,0.505 v 0.973667 0.973667 l -0.254,0.505 -0.254,0.505 -0.426334,0.426333 -0.426333,0.426333 -0.505,0.24959 -0.505,0.24959 z m -0.145447,-1.585549 0.362553,0.0019 0.313625,-0.131041 0.313625,-0.131041 0.202824,-0.186459 0.202825,-0.186459 0.156305,-0.338666 0.156305,-0.338667 v -0.381 -0.381 L 30.463908,77.387166 30.307603,77.0485 30.104778,76.862041 29.901954,76.675582 29.588329,76.544541 29.274704,76.413496 h -0.344106 -0.344106 l -0.313624,0.131041 -0.313626,0.131042 -0.202824,0.186458 -0.202825,0.186459 -0.156305,0.338667 -0.156305,0.338667 -0.0019,0.362552 -0.0019,0.362553 0.131041,0.313625 0.131041,0.313626 0.186459,0.202824 0.186459,0.202825 0.338667,0.156305 0.338666,0.156304 0.362553,0.0019 z m 10.644114,-0.506141 h -4.868333 v -1.524 -1.524 h 4.868333 4.868334 v 1.524 1.524 z m -8.360833,-5.994873 -1.121834,0.02587 -2.310116,-0.02251 -2.310117,-0.02251 1.704117,-3.385322 1.704119,-3.385322 h 0.0595 0.0595 l 1.668328,3.289158 1.668329,3.289158 v 0.0928 0.0928 z m -2.222501,-1.455794 h 1.312334 v -0.09415 -0.09415 l -0.563849,-1.095505 -0.563849,-1.095505 -0.203403,0.02549 -0.203403,0.02549 -0.545081,1.041076 -0.545082,1.041078 v 0.123089 0.12309 z m 10.752667,-0.169333 h -4.868333 v -1.524 -1.524 h 4.868333 4.868334 v 1.524 1.524 z m -10.879694,-6.246015 -3.471363,0.02302 2.9e-5,-0.0585 2.8e-5,-0.0585 0.08467,-0.05233 0.08467,-0.05233 v -3.297004 -3.297003 h 3.386667 3.386667 v 3.384819 3.384819 z m 0.08469,-1.712652 h 1.693334 v -1.693334 -1.693333 h -1.693334 -1.693333 v 1.693333 1.693334 z m 10.710334,-0.508 h -4.868334 v -1.524 -1.524 h 4.868334 4.868333 v 1.524 1.524 z"
         id="path3561" />
      <path
         style="fill:#000000;fill-opacity:1;stroke-width:0.0846667"
         d="M 35.068932,84.880125 H 20.548598 V 69.978791 55.077457 h 14.520334 14.520334 v 14.901334 14.901334 z m 0,-2.286 H 47.303265 V 69.978791 57.363458 H 35.068932 22.834598 v 12.615333 12.615334 z m -6.011334,-1.21031 -0.846667,0.02618 -0.381,-0.137581 -0.381,-0.137583 -0.443247,-0.293753 -0.443248,-0.293753 -0.25247,-0.318769 -0.25247,-0.31877 -0.235616,-0.456995 -0.235615,-0.456996 v -0.973667 -0.973667 l 0.254,-0.505 0.254,-0.505 0.426333,-0.426333 0.426333,-0.426333 0.505,-0.254 0.505,-0.254 h 0.973667 0.973667 l 0.505,0.254 0.505,0.254 0.426333,0.426333 0.426334,0.426333 0.254,0.505 0.254,0.505 v 0.973667 0.973667 l -0.254,0.505 -0.254,0.505 -0.426334,0.426333 -0.426333,0.426333 -0.505,0.24959 -0.505,0.24959 z m -0.145447,-1.585549 0.362553,0.0019 0.313625,-0.131041 0.313625,-0.131041 0.202824,-0.186459 0.202825,-0.186459 0.156305,-0.338666 0.156305,-0.338667 v -0.381 -0.381 L 30.463908,77.387166 30.307603,77.0485 30.104778,76.862041 29.901954,76.675582 29.588329,76.544541 29.274704,76.413496 h -0.344106 -0.344106 l -0.313624,0.131041 -0.313626,0.131042 -0.202824,0.186458 -0.202825,0.186459 -0.156305,0.338667 -0.156305,0.338667 -0.0019,0.362552 -0.0019,0.362553 0.131041,0.313625 0.131041,0.313626 0.186459,0.202824 0.186459,0.202825 0.338667,0.156305 0.338666,0.156304 0.362553,0.0019 z m 10.644114,-0.506141 h -4.868333 v -1.524 -1.524 h 4.868333 4.868334 v 1.524 1.524 z m -8.360833,-5.994873 -1.121834,0.02587 -2.310116,-0.02251 -2.310117,-0.02251 1.704117,-3.385322 1.704119,-3.385322 h 0.0595 0.0595 l 1.668328,3.289158 1.668329,3.289158 v 0.0928 0.0928 z m -2.222501,-1.455794 h 1.312334 v -0.09415 -0.09415 l -0.563849,-1.095505 -0.563849,-1.095505 -0.203403,0.02549 -0.203403,0.02549 -0.545081,1.041076 -0.545082,1.041078 v 0.123089 0.12309 z m 10.752667,-0.169333 h -4.868333 v -1.524 -1.524 h 4.868333 4.868334 v 1.524 1.524 z m -10.879694,-6.246015 -3.471363,0.02302 2.9e-5,-0.0585 2.8e-5,-0.0585 0.08467,-0.05233 0.08467,-0.05233 v -3.297004 -3.297003 h 3.386667 3.386667 v 3.384819 3.384819 z m 0.08469,-1.712652 h 1.693334 v -1.693334 -1.693333 h -1.693334 -1.693333 v 1.693333 1.693334 z m 10.710334,-0.508 h -4.868334 v -1.524 -1.524 h 4.868334 4.868333 v 1.524 1.524 z"
         id="path3559" />
      <path
         style="fill:#000000;fill-opacity:1;stroke-width:0.0846667"
         d="M 35.068932,84.880125 H 20.548598 V 69.978791 55.077457 h 14.520334 14.520334 v 14.901334 14.901334 z m 0,-2.286 H 47.303265 V 69.978791 57.363458 H 35.068932 22.834598 v 12.615333 12.615334 z m -6.011334,-1.21031 -0.846667,0.02618 -0.381,-0.137581 -0.381,-0.137583 -0.443247,-0.293753 -0.443248,-0.293753 -0.25247,-0.318769 -0.25247,-0.31877 -0.235616,-0.456995 -0.235615,-0.456996 v -0.973667 -0.973667 l 0.254,-0.505 0.254,-0.505 0.426333,-0.426333 0.426333,-0.426333 0.505,-0.254 0.505,-0.254 h 0.973667 0.973667 l 0.505,0.254 0.505,0.254 0.426333,0.426333 0.426334,0.426333 0.254,0.505 0.254,0.505 v 0.973667 0.973667 l -0.254,0.505 -0.254,0.505 -0.426334,0.426333 -0.426333,0.426333 -0.505,0.24959 -0.505,0.24959 z m -0.144793,-1.58708 0.447873,0.0034 0.314127,-0.161094 0.314126,-0.161094 0.180597,-0.198739 0.180596,-0.19874 0.136904,-0.270962 0.136904,-0.270959 v -0.431742 -0.431743 l -0.136904,-0.270962 -0.136904,-0.270962 -0.180596,-0.19874 -0.180597,-0.19874 -0.314126,-0.161093 -0.314127,-0.161094 h -0.43008 -0.430079 l -0.314127,0.161094 -0.314127,0.161093 -0.180597,0.19874 -0.180596,0.19874 -0.136904,0.270962 -0.136903,0.270962 v 0.430911 0.430911 l 0.161093,0.314127 0.161094,0.314127 0.19874,0.180205 0.198739,0.180205 0.254,0.133905 0.254,0.133905 0.447874,0.0034 z m 10.64346,-0.50461 h -4.868333 v -1.524 -1.524 h 4.868333 4.868334 v 1.524 1.524 z m -8.360833,-5.994873 -1.121834,0.02587 -2.310116,-0.02251 -2.310117,-0.02251 1.704117,-3.385322 1.704119,-3.385322 h 0.0595 0.0595 l 1.668328,3.289158 1.668329,3.289158 v 0.0928 0.0928 z m -2.222501,-1.455794 h 1.312334 v -0.09415 -0.09415 l -0.563849,-1.095505 -0.563849,-1.095505 -0.203403,0.02549 -0.203403,0.02549 -0.545081,1.041076 -0.545082,1.041078 v 0.123089 0.12309 z m 10.752667,-0.169333 h -4.868333 v -1.524 -1.524 h 4.868333 4.868334 v 1.524 1.524 z m -10.879694,-6.246015 -3.471363,0.02302 2.9e-5,-0.0585 2.8e-5,-0.0585 0.08467,-0.05233 0.08467,-0.05233 v -3.297004 -3.297003 h 3.386667 3.386667 v 3.384819 3.384819 z m 0.08469,-1.712652 h 1.693334 v -1.693334 -1.693333 h -1.693334 -1.693333 v 1.693333 1.693334 z m 10.710334,-0.508 h -4.868334 v -1.524 -1.524 h 4.868334 4.868333 v 1.524 1.524 z"
         id="path3557" />
    </g>
  </g>
</svg>
