<?xml version="1.0" encoding="utf-8"?>
<!-- Uploaded to: SVG Repo, www.svgrepo.com, Generator: SVG Repo Mixer Tools -->
<svg fill="#000000" width="800px" height="800px" viewBox="0 0 32 32" version="1.1" xmlns="http://www.w3.org/2000/svg">
<title>link-slash</title>
<path d="M11.587 22.236c-0.807 0.801-1.919 1.296-3.147 1.296-2.467 0-4.467-2-4.467-4.467 0-1.227 0.495-2.339 1.296-3.146l3.036-3.036c0.226-0.226 0.366-0.539 0.366-0.884 0-0.69-0.56-1.25-1.25-1.25-0.345 0-0.658 0.14-0.884 0.366l-3.036 3.036c-1.261 1.261-2.041 3.003-2.041 4.927 0 3.848 3.119 6.967 6.967 6.967 1.924 0 3.665-0.78 4.926-2.040v0c0.227-0.226 0.367-0.539 0.367-0.885 0-0.691-0.56-1.251-1.251-1.251-0.345 0-0.658 0.14-0.884 0.366v0zM18.236 21.992c-1.97-0.394-3.455-2.043-3.598-4.062l-0.001-0.014c-0.044-0.655-0.585-1.169-1.247-1.169-0.69 0-1.25 0.56-1.25 1.25 0 0.031 0.001 0.061 0.003 0.091l-0-0.004c0.221 3.176 2.543 5.75 5.575 6.354l0.044 0.007c0.071 0.014 0.153 0.023 0.237 0.023 0.69 0 1.249-0.559 1.249-1.249 0-0.606-0.432-1.111-1.004-1.225l-0.008-0.001zM30.885 29.115l-6.726-6.725 4.343-4.345c1.26-1.26 2.039-3.001 2.039-4.923 0-3.846-3.117-6.963-6.963-6.963-1.923 0-3.664 0.779-4.924 2.040v0c-0.224 0.226-0.363 0.537-0.363 0.881 0 0.691 0.56 1.251 1.251 1.251 0.344 0 0.656-0.139 0.882-0.364l-0 0c0.807-0.807 1.923-1.306 3.154-1.306 2.464 0 4.462 1.998 4.462 4.462 0 1.232-0.5 2.348-1.308 3.156l-4.343 4.343-3.144-3.143c0.402-0.852 0.636-1.851 0.636-2.904 0-3.837-3.111-6.948-6.948-6.948-1.053 0-2.052 0.234-2.947 0.654l0.043-0.018-7.146-7.145c-0.226-0.225-0.537-0.363-0.881-0.363-0.69 0-1.25 0.56-1.25 1.25 0 0.344 0.139 0.655 0.363 0.881l27.999 28.001c0.226 0.226 0.539 0.366 0.884 0.366 0.691 0 1.251-0.56 1.251-1.251 0-0.345-0.14-0.658-0.366-0.884l0 0zM16.079 11.428c0.803 0.81 1.299 1.925 1.299 3.156 0 0.329-0.035 0.65-0.103 0.958l0.005-0.030-1.232-1.232c0.151-0.201 0.242-0.455 0.242-0.73 0-0.675-0.547-1.221-1.221-1.221-0.275 0-0.529 0.091-0.733 0.245l0.003-0.002-2.346-2.345c0.279-0.062 0.6-0.097 0.929-0.097 1.231 0 2.346 0.496 3.157 1.299l-0-0z"></path>
</svg>