<?xml version="1.0" encoding="UTF-8" standalone="no"?>
<!-- Created with Inkscape (http://www.inkscape.org/) -->

<svg
   width="36.576mm"
   height="36.491333mm"
   viewBox="0 0 36.576 36.491333"
   version="1.1"
   id="svg160"
   inkscape:version="1.1.1 (3bf5ae0d25, 2021-09-20)"
   sodipodi:docname="mesh_grid.svg"
   xmlns:inkscape="http://www.inkscape.org/namespaces/inkscape"
   xmlns:sodipodi="http://sodipodi.sourceforge.net/DTD/sodipodi-0.dtd"
   xmlns="http://www.w3.org/2000/svg"
   xmlns:svg="http://www.w3.org/2000/svg">
  <sodipodi:namedview
     id="namedview162"
     pagecolor="#ffffff"
     bordercolor="#666666"
     borderopacity="1.0"
     inkscape:pageshadow="2"
     inkscape:pageopacity="0.0"
     inkscape:pagecheckerboard="0"
     inkscape:document-units="mm"
     showgrid="false"
     fit-margin-top="0"
     fit-margin-left="0"
     fit-margin-right="0"
     fit-margin-bottom="0"
     inkscape:zoom="2.6882408"
     inkscape:cx="18.413529"
     inkscape:cy="148.23821"
     inkscape:window-width="1920"
     inkscape:window-height="1137"
     inkscape:window-x="-8"
     inkscape:window-y="-8"
     inkscape:window-maximized="1"
     inkscape:current-layer="layer1" />
  <defs
     id="defs157" />
  <g
     inkscape:label="Layer 1"
     inkscape:groupmode="layer"
     id="layer1"
     transform="translate(-69.395238,-44.001466)">
    <path
       style="fill:#000000;stroke-width:0.0846667"
       d="M 69.395238,62.247132 V 44.001466 H 87.683237 105.97124 V 62.247132 80.492798 H 87.683237 69.395238 Z m 6.688666,13.97 v -2.582334 h -2.497667 -2.497666 v 2.582334 2.582333 h 2.497666 2.497667 z m 7.196666,0 v -2.582334 h -2.751666 -2.751667 v 2.582334 2.582333 h 2.751667 2.751666 z m 7.196667,0 V 73.634798 H 87.72557 84.973904 v 2.582334 2.582333 h 2.751666 2.751667 z m 7.112,0 V 73.634798 H 94.879903 92.17057 v 2.582334 2.582333 h 2.709333 2.709334 z m 6.688663,0 v -2.582334 h -2.49766 -2.49767 v 2.582334 2.582333 h 2.49767 2.49766 z M 76.083904,69.274465 v -2.751666 h -2.497667 -2.497666 v 2.751666 2.751667 h 2.497666 2.497667 z m 7.196666,0 v -2.751666 h -2.751666 -2.751667 v 2.751666 2.751667 h 2.751667 2.751666 z m 7.196667,0 V 66.522799 H 87.72557 84.973904 v 2.751666 2.751667 h 2.751666 2.751667 z m 7.112,0 V 66.522799 H 94.879903 92.17057 v 2.751666 2.751667 h 2.709333 2.709334 z m 6.688663,0 v -2.751666 h -2.49766 -2.49767 v 2.751666 2.751667 h 2.49767 2.49766 z M 76.083904,62.120132 v -2.794 h -2.497667 -2.497666 v 2.794 2.794 h 2.497666 2.497667 z m 7.196666,0 v -2.794 h -2.751666 -2.751667 v 2.794 2.794 h 2.751667 2.751666 z m 7.196667,0 v -2.794 H 87.72557 84.973904 v 2.794 2.794 h 2.751666 2.751667 z m 7.112,0 v -2.794 H 94.879903 92.17057 v 2.794 2.794 h 2.709333 2.709334 z m 6.688663,0 v -2.794 h -2.49766 -2.49767 v 2.794 2.794 h 2.49767 2.49766 z M 76.083904,54.923466 v -2.794 h -2.497667 -2.497666 v 2.794 2.793999 h 2.497666 2.497667 z m 7.196666,0 v -2.794 h -2.751666 -2.751667 v 2.794 2.793999 h 2.751667 2.751666 z m 7.196667,0 v -2.794 H 87.72557 84.973904 v 2.794 2.793999 h 2.751666 2.751667 z m 7.112,0 v -2.794 H 94.879903 92.17057 v 2.794 2.793999 h 2.709333 2.709334 z m 6.688663,0 v -2.794 h -2.49766 -2.49767 v 2.794 2.793999 h 2.49767 2.49766 z M 76.083904,48.107799 v -2.413 h -2.497667 -2.497666 v 2.413 2.413 h 2.497666 2.497667 z m 7.196666,0 v -2.413 h -2.751666 -2.751667 v 2.413 2.413 h 2.751667 2.751666 z m 7.196667,0 v -2.413 H 87.72557 84.973904 v 2.413 2.413 h 2.751666 2.751667 z m 7.112,0 v -2.413 H 94.879903 92.17057 v 2.413 2.413 h 2.709333 2.709334 z m 6.688663,0 v -2.413 h -2.49766 -2.49767 v 2.413 2.413 h 2.49767 2.49766 z"
       id="path194" />
  </g>
</svg>
