<?xml version="1.0" encoding="utf-8"?><!-- Uploaded to: SVG Repo, www.svgrepo.com, Generator: SVG Repo Mixer Tools -->
<svg version="1.1" id="designs" xmlns="http://www.w3.org/2000/svg" xmlns:xlink="http://www.w3.org/1999/xlink" 
	 width="800px" height="800px" viewBox="0 0 32 32" xml:space="preserve">
<style type="text/css">
	.sketchy_een{fill:#111918;}
</style>
<path class="sketchy_een" d="M28.721,27.501c-0.032-0.357-0.027-0.719-0.04-1.076c-0.015-0.387-0.05-0.774-0.072-1.162
	c-0.023-0.378-0.042-0.755-0.048-1.135c-0.006-0.38,0.008-0.759,0.008-1.139c-0.002-0.378-0.021-0.755-0.034-1.131
	c-0.013-0.368-0.013-0.738-0.021-1.106c-0.011-0.759-0.055-1.516-0.082-2.275c-0.027-0.771-0.031-1.541-0.057-2.312
	c-0.027-0.755-0.061-1.51-0.09-2.264c-0.029-0.782-0.076-1.56-0.135-2.34c-0.029-0.385-0.044-0.772-0.065-1.158
	c-0.021-0.347-0.048-0.694-0.053-1.041c-0.008-0.446-0.004-0.891-0.006-1.335c-0.004-0.399-0.015-0.799-0.011-1.198
	c0.01-0.946,0.031-1.89,0.04-2.836c0.006-0.418-0.343-0.764-0.754-0.784c-0.134-0.116-0.304-0.193-0.493-0.198
	C26.438,3.003,26.071,3,25.704,3c-0.367,0-0.734,0.003-1.102,0.006c-0.45,0.004-0.898,0.004-1.347,0.002c-0.299,0-0.599,0-0.898,0
	c-1.553,0.002-3.105,0.01-4.658,0.044C16.163,3.084,14.63,3.12,13.094,3.13c-0.822,0.008-1.644,0-2.466-0.006
	C9.877,3.118,9.123,3.113,8.37,3.115C6.978,3.122,5.585,3.147,4.193,3.122c-0.431-0.008-0.792,0.366-0.792,0.79
	c0,0.03,0.014,0.055,0.017,0.084C3.367,4.099,3.332,4.212,3.331,4.334c0,0.839,0.019,1.678,0.006,2.518
	C3.326,7.63,3.327,8.408,3.318,9.189c-0.017,1.577-0.006,3.157-0.011,4.736c-0.004,1.562-0.023,3.126-0.029,4.688
	c-0.002,0.776,0.006,1.554,0.04,2.331c0.032,0.769,0.032,1.539,0.063,2.31c0.031,0.788,0.069,1.573,0.086,2.361
	c0.017,0.759-0.004,1.53,0.069,2.287c0.019,0.194,0.075,0.359,0.195,0.506c0.074,0.327,0.36,0.616,0.71,0.591
	c0.805-0.057,1.608-0.107,2.413-0.126c0.729-0.019,1.457-0.006,2.186,0.01c0.748,0.013,1.495,0.025,2.245,0.059
	c0.725,0.032,1.455,0.034,2.182,0.029c1.52-0.01,3.042-0.071,4.564-0.059c0.731,0.006,1.463,0.008,2.195,0.002
	c0.74-0.008,1.48-0.042,2.22-0.055c1.72-0.032,3.445,0,5.15-0.275c0.172-0.027,0.338-0.181,0.422-0.324
	c0.001-0.001,0.001-0.003,0.001-0.004c0.179-0.016,0.35-0.085,0.477-0.212C28.627,27.911,28.738,27.694,28.721,27.501z M21.148,7.98
	c0.001-0.073,0.004-0.147,0.005-0.22c0.147,0.01,0.293,0.019,0.439,0.032c0.094,0.017,0.186,0.038,0.278,0.068
	c0.032,0.017,0.063,0.035,0.093,0.054c0.005,0.005,0.01,0.01,0.015,0.015c0.056,0.082,0.107,0.167,0.152,0.255
	c0.063,0.179,0.104,0.36,0.136,0.547c0.009,0.143,0.011,0.285,0.006,0.428c-0.01,0.042-0.02,0.083-0.033,0.125
	c-0.025,0.049-0.053,0.096-0.083,0.143c-0.025,0.026-0.05,0.051-0.077,0.076c-0.153,0.106-0.316,0.199-0.485,0.277
	c-0.128,0.043-0.257,0.078-0.39,0.103c-0.019,0.001-0.037-0.002-0.055-0.002C21.145,9.247,21.141,8.613,21.148,7.98z M16.085,27.431
	c-0.755,0.006-1.509,0.04-2.264,0.048c-1.486,0.019-2.972-0.029-4.457-0.031c-1.415-0.002-2.832-0.011-4.247,0.047
	c-0.042-0.592-0.033-1.189-0.052-1.779c-0.023-0.767-0.08-1.53-0.105-2.295c-0.025-0.759-0.029-1.52-0.069-2.277
	c-0.042-0.782-0.052-1.56-0.057-2.344c-0.011-1.551-0.013-3.101,0.002-4.652c0.015-1.583,0.002-3.168,0.019-4.751
	C4.871,7.829,4.882,6.26,4.901,4.691C5.53,4.686,6.159,4.682,6.789,4.657c0.793-0.031,1.587-0.036,2.38-0.04
	c1.577-0.008,3.155-0.004,4.73-0.036c0.771-0.015,1.539-0.017,2.31-0.03c0.755-0.013,1.509-0.046,2.264-0.057
	c0.407-0.006,0.814-0.005,1.222-0.007c-0.009,1.582-0.088,3.161-0.108,4.743c-0.021,1.617,0.015,3.237,0.059,4.852
	c0.042,1.648,0.097,3.298,0.13,4.946c0.017,0.82,0.01,1.64,0.01,2.46c0,0.843,0.021,1.684,0.027,2.527
	c0.004,0.597,0,1.194,0.027,1.791c0.023,0.543,0.04,1.084,0.042,1.626c-0.501-0.002-1.002-0.004-1.502-0.005
	C17.613,27.423,16.85,27.425,16.085,27.431z M22.818,27.415c-0.385-0.002-0.769,0.004-1.152,0.01c-0.043,0.001-0.085,0-0.128,0.001
	c-0.04-0.75-0.082-1.501-0.1-2.252c-0.019-0.837-0.023-1.673-0.034-2.51c-0.023-1.638,0.008-3.279-0.048-4.917
	c-0.027-0.826-0.032-1.654-0.069-2.478c-0.034-0.822-0.061-1.644-0.086-2.466c-0.014-0.444-0.02-0.89-0.029-1.334
	c0.311-0.015,0.604-0.126,0.889-0.254c0.214-0.097,0.423-0.208,0.622-0.334c0.21-0.135,0.42-0.278,0.58-0.471
	c0.202-0.242,0.347-0.515,0.433-0.818c0.116-0.406,0.076-0.856,0.017-1.266c-0.031-0.223-0.073-0.439-0.145-0.654
	c-0.059-0.174-0.135-0.347-0.233-0.502c-0.151-0.24-0.326-0.433-0.559-0.595c-0.457-0.315-1.038-0.364-1.586-0.4
	c0.001-0.017,0-0.034,0.001-0.05c0.029-0.547,0.055-1.094,0.068-1.642c0.625,0.002,1.25,0.005,1.875,0.006
	c1.115,0,2.228,0.015,3.343,0.033c0.006,1.464,0.045,2.926,0.067,4.39c0.021,1.516,0.206,3.023,0.277,4.537
	c0.072,1.532,0.143,3.063,0.179,4.597c0.019,0.767,0.069,1.533,0.095,2.3c0.014,0.431,0.018,0.864,0.026,1.296
	c-0.306-0.222-0.632-0.414-0.976-0.583c-0.132-0.065-0.264-0.105-0.403-0.105c-0.064,0-0.129,0.009-0.196,0.027
	c-0.119,0.033-0.229,0.094-0.32,0.177c-0.187-0.007-0.366,0-0.544,0.104c-0.315,0.185-0.416,0.523-0.42,0.864
	c-0.002,0.307,0.013,0.614,0.021,0.921c0.01,0.363-0.002,0.723-0.002,1.085c0,0.156,0.006,0.311,0.013,0.465
	c0.023,0.359,0.057,0.755,0.322,1.026c0.235,0.24,0.545,0.307,0.868,0.276c0.233-0.023,0.464-0.051,0.696-0.086
	c0.156-0.025,0.309-0.057,0.464-0.094c0.171-0.041,0.329-0.112,0.484-0.19c0.012,0.252,0.024,0.504,0.031,0.758
	c0.009,0.311,0.008,0.624,0.017,0.938c-0.018,0.003-0.035,0.006-0.053,0.009C25.695,27.403,24.256,27.423,22.818,27.415z
	 M26.737,23.987c-0.004,0.016-0.009,0.033-0.014,0.049c-0.01,0.019-0.021,0.037-0.032,0.056c-0.026,0.029-0.053,0.056-0.082,0.083
	c-0.045,0.028-0.091,0.053-0.138,0.077c-0.158,0.051-0.318,0.087-0.481,0.115c-0.054,0.006-0.108,0.011-0.163,0.016
	c-0.012-0.357,0-0.716-0.005-1.074c-0.004-0.232-0.013-0.464-0.022-0.695c0.172,0.086,0.341,0.178,0.5,0.287
	c0.081,0.07,0.158,0.144,0.229,0.223c0.033,0.052,0.064,0.104,0.091,0.158c0.047,0.14,0.08,0.281,0.105,0.427
	C26.734,23.801,26.739,23.893,26.737,23.987z M25.458,17.775c0.2-0.185,0.332-0.435,0.433-0.683c0.086-0.214,0.12-0.431,0.149-0.66
	c0.042-0.345-0.032-0.668-0.212-0.969c-0.16-0.275-0.462-0.492-0.719-0.667c-0.097-0.046-0.196-0.09-0.298-0.13
	c-0.076-0.025-0.149-0.048-0.227-0.069c-0.076-0.021-0.153-0.036-0.231-0.052c-0.179-0.034-0.36-0.056-0.54-0.078
	c-0.097-0.015-0.193-0.031-0.289-0.048c-0.078-0.014-0.153-0.022-0.226-0.022c-0.132,0-0.258,0.027-0.384,0.102
	c-0.14,0.082-0.252,0.206-0.32,0.353c-0.242,0.136-0.41,0.396-0.409,0.688c0.004,0.687,0.023,1.375,0.053,2.06
	c0.01,0.25,0.036,0.523,0.189,0.731c0.105,0.141,0.214,0.276,0.381,0.351c0.2,0.09,0.401,0.135,0.62,0.113
	c0.216-0.025,0.408-0.055,0.608-0.135c0.175-0.069,0.347-0.151,0.511-0.246C24.868,18.229,25.183,18.027,25.458,17.775z
	 M24.521,16.29c-0.016,0.08-0.036,0.158-0.061,0.237c-0.019,0.036-0.039,0.071-0.06,0.105c-0.035,0.037-0.071,0.072-0.109,0.106
	c-0.167,0.12-0.342,0.229-0.522,0.327c-0.001-0.104,0-0.207-0.001-0.31c-0.001-0.244-0.002-0.489-0.001-0.733
	c0.084,0.004,0.168,0.008,0.252,0.014c0.109,0.021,0.215,0.048,0.321,0.08c0.026,0.014,0.051,0.029,0.076,0.045
	c0.037,0.033,0.072,0.068,0.107,0.104C24.522,16.273,24.522,16.282,24.521,16.29z M8.414,11.237c0-0.419,0.358-0.849,0.797-0.849
	c0.017,0,0.033,0.001,0.05,0.002c0.902,0.071,1.812,0.153,2.718,0.147c0.353,0,0.708,0,1.062,0.002c0.486,0,0.973,0.002,1.461-0.004
	c0.452-0.004,0.828,0.381,0.828,0.83c0,0.45-0.376,0.828-0.828,0.828c-0.439,0-0.877-0.006-1.316-0.006
	c-0.132,0-0.263,0-0.395,0.002c-0.284,0-0.566,0.002-0.851-0.01c-0.893-0.032-1.789-0.04-2.68-0.095
	C8.8,12.055,8.414,11.721,8.414,11.237z M8.445,14.13c0-0.46,0.383-0.847,0.843-0.845c0.942,0.002,1.879,0.059,2.821,0.092
	c0.431,0.015,0.862,0.025,1.293,0.038c0.408,0.013,0.814,0.008,1.223,0.019c0.454,0.011,0.832,0.368,0.832,0.832
	c0,0.454-0.378,0.83-0.832,0.832c-0.837,0.002-1.68-0.027-2.516-0.074c-0.94-0.055-1.879-0.051-2.821-0.05
	C8.828,14.975,8.445,14.588,8.445,14.13z M15.813,17.203c0,0.444-0.381,0.858-0.841,0.841c-0.565-0.021-1.129-0.015-1.694-0.011
	c-0.355,0.002-0.71,0.004-1.064,0c-0.959-0.01-1.921-0.013-2.88-0.027C8.867,18,8.478,17.62,8.478,17.149
	c0-0.452,0.379-0.859,0.837-0.859c0.006,0,0.013,0,0.019,0c0.492,0.013,0.984,0.052,1.476,0.059c0.467,0.008,0.936,0.01,1.404,0.006
	c0.919-0.006,1.841-0.008,2.758,0.006C15.432,16.367,15.813,16.739,15.813,17.203z"/>
</svg>