<?xml version="1.0" encoding="UTF-8" standalone="no"?>
<!-- Created with Inkscape (http://www.inkscape.org/) -->

<svg
   width="26.703718mm"
   height="26.670778mm"
   viewBox="0 0 26.703718 26.670778"
   version="1.1"
   id="svg2609"
   inkscape:version="1.1.1 (3bf5ae0d25, 2021-09-20)"
   sodipodi:docname="refresh_plot_black.svg"
   xmlns:inkscape="http://www.inkscape.org/namespaces/inkscape"
   xmlns:sodipodi="http://sodipodi.sourceforge.net/DTD/sodipodi-0.dtd"
   xmlns="http://www.w3.org/2000/svg"
   xmlns:svg="http://www.w3.org/2000/svg">
  <sodipodi:namedview
     id="namedview2611"
     pagecolor="#ffffff"
     bordercolor="#666666"
     borderopacity="1.0"
     inkscape:pageshadow="2"
     inkscape:pageopacity="0.0"
     inkscape:pagecheckerboard="0"
     inkscape:document-units="mm"
     showgrid="false"
     fit-margin-top="0"
     fit-margin-left="0"
     fit-margin-right="0"
     fit-margin-bottom="0"
     inkscape:zoom="0.64052329"
     inkscape:cx="-113.1887"
     inkscape:cy="480.07622"
     inkscape:window-width="1920"
     inkscape:window-height="1137"
     inkscape:window-x="-8"
     inkscape:window-y="-8"
     inkscape:window-maximized="1"
     inkscape:current-layer="layer1" />
  <defs
     id="defs2606" />
  <g
     inkscape:label="Layer 1"
     inkscape:groupmode="layer"
     id="layer1"
     transform="translate(-15.244117,-21.638396)">
    <g
       id="g2643"
       transform="matrix(0.20677155,0,0,0.20677155,10.065358,17.043414)"
       style="fill:#000000">
      <path
         style="fill:#000000;fill-opacity:1;stroke-width:0.282222"
         d="m 100.79503,151.17252 -5.221112,-0.0299 -2.542238,-0.20949 -2.542241,-0.20949 -2.396648,-0.47436 -2.396651,-0.47435 -3.668889,-0.95369 -3.668889,-0.95368 -3.668889,-1.24987 -3.668889,-1.24987 -2.257777,-0.90216 -2.257778,-0.90216 -4.515556,-2.21214 -4.515555,-2.21214 -5.95978,-3.55364 -5.959777,-3.55364 h -0.396844 -0.396842 l -2.129953,2.18722 -2.129954,2.18722 -4.999588,5.41492 -4.999589,5.41491 -1.36967,1.14675 -1.369671,1.14676 h -0.26831 -0.26831 l -0.392366,-0.77611 -0.392366,-0.77612 -0.149085,-29.49222 -0.149085,-29.49222 0.08645,-0.309609 0.08645,-0.309609 1.044704,-0.374557 1.044704,-0.374557 27.16389,-0.111882 27.163889,-0.111884 v 0.948318 0.948317 l -2.575052,3.093286 -2.575052,3.093288 -4.974393,5.602049 -4.974392,5.60205 -0.224302,0.39269 -0.224302,0.39269 1.917635,1.23773 1.917635,1.23773 4.279364,2.29718 4.279367,2.29719 3.199522,1.36523 3.199525,1.36524 4.00039,1.44772 4.000393,1.44772 2.772941,0.74807 2.772943,0.74806 5.080003,0.0327 5.08,0.0327 1.97555,-0.6224 1.97556,-0.62239 1.7691,-1.07094 1.76911,-1.07094 1.56041,-1.54481 1.56041,-1.54481 0.83514,-1.70075 0.83514,-1.70074 0.42517,-2.23145 0.42517,-2.23145 0.68042,-6.62866 0.68042,-6.628651 0.34422,-0.212737 0.34421,-0.212736 0.79504,0.277151 0.79504,0.277153 4.03272,2.783301 4.03273,2.783304 4.83715,3.296645 4.83716,3.29665 0.31767,-0.19634 0.31768,-0.19633 0.38385,-0.9187 0.38386,-0.91869 0.57396,-2.51923 0.57396,-2.51923 0.16936,-1.27 0.16935,-1.27 0.2542,-3.213162 0.2542,-3.213162 0.37824,-0.239737 0.37824,-0.239739 1.64134,-0.0043 1.64133,-0.0043 0.52231,0.279535 0.52232,0.279536 0.43239,1.343242 0.43238,1.343242 0.29674,1.674611 0.29675,1.674611 -2.8e-4,9.049833 -2.8e-4,9.04984 -0.68475,2.82222 -0.68475,2.82222 -0.76161,2.11667 -0.76162,2.11667 -1.13118,2.25777 -1.13119,2.25778 -1.58486,2.38816 -1.58487,2.38815 -2.52073,2.64003 -2.52073,2.64004 -2.55927,1.90755 -2.55927,1.90755 -1.75555,1.0524 -1.75554,1.05241 -2.7571,1.2884 -2.7571,1.2884 -3.6718,1.22608 -3.6718,1.22608 -2.11667,0.44886 -2.11666,0.44887 -4.51556,0.25658 -4.51555,0.25659 -5.22111,-0.03 z m 24.27111,-66.101227 -27.234444,0.0294 -0.893202,-0.116047 -0.893203,-0.11605 -0.138735,-0.36154 -0.138734,-0.361538 0.405028,-0.836295 0.405031,-0.836298 1.755795,-1.988713 1.755794,-1.988713 5.92667,-6.266945 5.92667,-6.266945 v -0.466908 -0.466908 l -1.33638,-1.010037 -1.33637,-1.010034 -3.74363,-2.015419 -3.74362,-2.01542 -4.092225,-1.820562 -4.092222,-1.820562 -2.717595,-1.01379 -2.717594,-1.01379 -3.040778,-0.87864 -3.04078,-0.878637 -2.788855,-0.540619 -2.788858,-0.540619 H 73.45461 70.40532 l -2.232369,0.567309 -2.232367,0.567312 -2.346737,1.121847 -2.346734,1.121848 -1.624214,1.626954 -1.624215,1.626952 -0.892567,1.834445 -0.892567,1.834444 -0.445203,1.951953 -0.445203,1.951957 -0.200914,5.342624 -0.200914,5.342625 -0.533518,0.390119 -0.533519,0.390118 -2.564624,-0.02306 -2.564626,-0.02306 -1.128889,0.194048 -1.128889,0.194047 -4.938889,0.944276 -4.938889,0.944276 -1.411111,0.191197 -1.411111,0.191195 -0.600546,0.376673 -0.600546,0.376671 -0.192206,1.281724 -0.192206,1.28172 -0.6106,0.427683 -0.6106,0.427654 -1.559982,-0.0043 -1.559981,-0.0043 -0.313399,-0.207343 -0.313398,-0.207346 -0.456846,-0.891861 -0.456845,-0.891862 -0.466317,-2.494805 -0.466316,-2.494805 -0.135392,-6.807093 -0.135391,-6.807093 0.330128,-2.50624 0.330129,-2.506241 0.705083,-2.795524 0.705084,-2.795524 0.97648,-2.425587 0.97648,-2.425587 1.304081,-2.257778 1.304079,-2.257778 1.759485,-2.257778 1.759484,-2.257778 2.505584,-2.410183 2.505585,-2.410184 2.116666,-1.584301 2.116667,-1.584302 2.822222,-1.568971 2.822223,-1.568972 2.822222,-1.125913 2.822222,-1.125913 3.479792,-1.001186 3.479794,-1.001186 h 14.256507 14.256506 l 4.135925,0.995618 4.135921,0.995617 3.197001,0.996518 3.19701,0.996517 4.55163,1.824799 4.55164,1.8248 4.2458,2.203035 4.24581,2.203035 4.23333,2.529944 4.23334,2.529945 1.36813,0.791478 1.36814,0.791481 8.66557,-8.635838 8.66557,-8.635838 h 0.44452 0.44451 l 0.3492,0.420763 0.3492,0.420762 0.27624,4.729793 0.27625,4.729794 -0.17847,23.847778 -0.17847,23.847778 -0.15906,1.34607 -0.15905,1.346067 -0.60614,0.347266 -0.60614,0.347264 z"
         id="path2657" />
      <path
         style="fill:#000000;fill-opacity:1;stroke-width:0.282222"
         d="m 104.26928,151.05308 -7.848695,0.13242 -2.930299,-0.2461 -2.9303,-0.24611 -3.560812,-0.74176 -3.560812,-0.74176 -3.401559,-0.95364 -3.40156,-0.95365 -3.089551,-1.10517 -3.089552,-1.10518 -2.522474,-1.04737 -2.522474,-1.04737 -4.120233,-2.06277 -4.12023,-2.06276 -5.217202,-3.09743 -5.217203,-3.09743 -0.870401,-0.4501 -0.870405,-0.45011 -2.800274,2.87922 -2.800276,2.87921 -4.46247,4.83944 -4.462469,4.83945 -1.449843,1.17939 -1.449843,1.1794 -0.454873,-0.56175 -0.454873,-0.56174 -0.185086,-4.04598 -0.185085,-4.04599 -0.001,-26.00067 -10e-4,-26.000667 1.199444,-0.356252 1.199444,-0.356249 27.022779,-0.125586 27.022778,-0.125586 v 0.808045 0.808044 l -0.480004,0.697795 -0.480003,0.697797 -2.178502,2.602921 -2.178502,2.602922 -5.03205,5.666336 -5.032051,5.66634 v 0.33076 0.33076 l 1.563475,1.03461 1.563477,1.0346 3.911843,2.13498 3.911843,2.13498 3.414683,1.53727 3.41468,1.53726 4.512059,1.60375 4.512058,1.60375 2.543497,0.69384 2.543497,0.69384 4.092219,0.16588 4.09222,0.16588 2.11667,-0.32893 2.11666,-0.32893 2.62281,-1.272 2.62281,-1.27199 1.61053,-1.61419 1.61052,-1.61419 0.88834,-1.68967 0.88834,-1.68967 0.43759,-2.14668 0.43759,-2.14668 0.43777,-4.20332 0.43777,-4.203318 0.31416,-2.751667 0.31416,-2.751666 h 0.60773 0.60773 l 1.82997,1.07326 1.82996,1.073257 6.3251,4.444934 6.32509,4.44492 1.22982,0.72073 1.22981,0.72072 0.41697,-0.34606 0.41698,-0.34605 0.55636,-1.80131 0.55637,-1.80131 0.42747,-2.327658 0.42746,-2.327656 0.2876,-3.645904 0.2876,-3.645905 0.11086,-0.110865 0.11087,-0.110863 1.55684,-0.16068 1.55684,-0.160681 0.67418,0.169209 0.67419,0.16921 0.45074,0.94521 0.45074,0.94521 0.46949,2.301895 0.4695,2.301892 -0.10179,9.532246 -0.1018,9.53225 -0.63563,2.22877 -0.63564,2.22877 -0.57702,1.72234 -0.57702,1.72234 -1.23274,2.57723 -1.23274,2.57724 -1.76511,2.64388 -1.7651,2.64387 -2.97204,2.96873 -2.97202,2.96873 -2.68112,1.88785 -2.68111,1.88785 -3.38666,1.67807 -3.38667,1.67808 -2.71942,1.00733 -2.71942,1.00733 -2.70763,0.7035 -2.70763,0.7035 -2.24647,0.28169 -2.24648,0.28168 z m 20.95058,-65.984606 -26.82372,0.02659 -1.199444,-0.113368 -1.199445,-0.113369 0.0011,-0.618772 0.0011,-0.618773 0.517768,-0.846666 0.51777,-0.846667 1.527286,-1.676473 1.527285,-1.676474 5.99722,-6.359082 5.99723,-6.359082 v -0.311361 -0.311359 l -0.635,-0.571303 -0.635,-0.571299 -1.33448,-0.898381 -1.33448,-0.898382 -4.30997,-2.22717 -4.309962,-2.227171 -3.951111,-1.679217 -3.951111,-1.679214 -4.090018,-1.333418 -4.090016,-1.333418 -3.388873,-0.710421 -3.388871,-0.710418 -3.104445,-0.01925 -3.104444,-0.01925 -2.398889,0.634074 -2.398889,0.634077 -2.022597,0.969623 -2.022599,0.969625 -1.585854,1.449383 -1.585855,1.449381 -0.723099,1.233875 -0.723098,1.233873 -0.552512,1.454096 -0.552515,1.4541 -0.285609,1.437239 -0.285609,1.437239 -0.206618,5.324704 -0.206617,5.324706 -0.510142,0.373025 -0.510142,0.373024 -2.862456,-0.01211 -2.862456,-0.01211 -2.398889,0.45512 -2.398889,0.45512 -5.191382,0.964224 -5.191383,0.964221 -0.227534,0.368159 -0.227533,0.368156 -0.175382,1.038075 -0.175382,1.038075 -0.368805,0.504374 -0.368805,0.504371 -1.824429,0.116171 -1.824429,0.116171 -0.588934,-0.74871 -0.588935,-0.748708 -0.42844,-1.891916 -0.428586,-1.891927 -0.333117,-3.19858 -0.333116,-3.198583 0.155206,-6.114751 0.155205,-6.114753 0.565916,-2.54 0.565916,-2.54 0.754465,-2.398889 0.754465,-2.398889 1.372253,-2.755765 1.372252,-2.755764 0.908917,-1.336458 0.908917,-1.336458 1.603631,-1.975555 1.603631,-1.975556 2.171032,-2.060667 2.171032,-2.060666 2.45327,-1.815234 2.453271,-1.815233 3.245555,-1.678115 3.245556,-1.678114 2.257778,-0.869074 2.257777,-0.869073 3.417418,-0.997159 3.417421,-0.997159 14.785913,0.09693 14.785916,0.09693 4.374444,1.170131 4.37444,1.170132 3.70376,1.271239 3.70376,1.27124 4.05735,1.73076 4.05736,1.730761 3.24555,1.717793 3.24556,1.717792 4.89117,2.919627 4.89117,2.919625 0.83435,0.431456 0.83434,0.431456 1.38299,-1.21213 1.38298,-1.212131 6.82708,-6.996441 6.82709,-6.996441 0.77312,-0.399799 0.77313,-0.399798 0.48923,0.357737 0.48924,0.357738 0.28213,5.768502 0.28214,5.768502 -0.1664,22.295556 -0.1664,22.295556 -0.18528,1.784277 -0.18529,1.784279 -0.72245,0.473498 -0.72246,0.473502 z"
         id="path2655" />
      <path
         style="fill:#000000;fill-opacity:1;stroke-width:0.282222"
         d="m 100.3717,151.17139 -2.540004,-0.034 -3.386667,-0.20494 -3.386667,-0.20494 -3.81,-0.7696 -3.81,-0.7696 -3.849624,-1.10266 -3.849621,-1.10266 -2.923712,-1.08715 -2.92371,-1.08714 -2.47692,-1.02794 -2.476921,-1.02793 -3.717024,-1.86261 -3.717028,-1.8626 -5.094944,-3.03785 -5.094941,-3.03785 -1.206119,-0.61029 -1.206119,-0.6103 -2.761214,2.90192 -2.761215,2.90192 -3.408316,3.66889 -3.408317,3.66889 -2.397088,2.32833 -2.397089,2.32834 h -0.168347 -0.168348 l -0.426826,-0.8254 -0.426827,-0.82539 -0.191133,-29.61991 -0.191132,-29.619922 0.681267,-0.364676 0.681268,-0.36468 4.797777,-0.21748 4.797778,-0.217483 22.820854,-0.01696 22.820853,-0.01699 -0.196399,1.058334 -0.196401,1.058333 -0.34765,0.423333 -0.34765,0.423334 -2.97936,3.527778 -2.979361,3.527777 -4.269108,4.794972 -4.269111,4.79498 0.0035,0.28502 0.0035,0.28503 1.05484,0.6863 1.054839,0.68631 2.398889,1.39057 2.398889,1.39057 3.921865,1.96737 3.921861,1.96737 3.557028,1.42462 3.557024,1.42463 3.733507,1.23143 3.733503,1.23142 2.441798,0.42581 2.441793,0.42582 h 3.5934 3.5934 l 1.52019,-0.27934 1.52019,-0.27934 2.55143,-1.25581 2.55143,-1.25582 1.30141,-1.14555 1.30141,-1.14554 0.96872,-1.48208 0.96872,-1.48208 0.43864,-1.12889 0.43865,-1.12888 0.44469,-2.68112 0.44469,-2.68111 0.58102,-5.77792 0.58102,-5.777912 0.25509,-0.255084 0.25508,-0.255086 0.736,0.184722 0.73599,0.184723 4.153,2.835419 4.15301,2.835416 4.65666,3.212922 4.65667,3.21292 0.45914,0.0116 0.45913,0.0116 0.58198,-1.35286 0.58199,-1.35285 0.56391,-2.80992 0.56392,-2.809924 0.33205,-3.951111 0.33204,-3.951111 0.0613,-0.0699 0.0613,-0.0699 1.6937,-0.177027 1.69371,-0.177027 0.63566,0.340197 0.63566,0.340196 0.42133,1.008377 0.42132,1.008377 0.40145,2.098179 0.40145,2.098178 -2.8e-4,8.794616 -2.8e-4,8.79462 -0.68475,2.82222 -0.68474,2.82223 -0.76175,2.11666 -0.76175,2.11667 -1.27036,2.53569 -1.27036,2.5357 -1.38612,2.05415 -1.38612,2.05414 -1.81682,2.08316 -1.81682,2.08315 -2.19373,1.82475 -2.19373,1.82475 -2.21082,1.48093 -2.21081,1.48092 -3.71585,1.77131 -3.71585,1.7713 -3.10445,1.01901 -3.10444,1.01901 -2.68111,0.58678 -2.68111,0.58677 -5.78556,0.25263 -5.78556,0.25263 -2.54,-0.034 z m 25.27151,-66.098903 -26.400403,0.0306 -1.549775,-0.171707 -1.549776,-0.17171 -0.09748,-0.513565 -0.09749,-0.513563 0.690236,-1.04302 0.690237,-1.043017 3.947381,-4.228973 3.94739,-4.228973 3.54722,-3.779128 3.54722,-3.779128 -0.14711,-0.383353 -0.1471,-0.383354 -2.15715,-1.443313 -2.15714,-1.443315 -5.25456,-2.611617 -5.254573,-2.611617 -4.342207,-1.71746 -4.342206,-1.717461 -3.385447,-0.97129 -3.385448,-0.971288 -2.398889,-0.499437 -2.398889,-0.499435 -3.386667,0.0058 -3.386666,0.0058 -2.257778,0.609312 -2.257778,0.609315 -2.058791,0.975403 -2.058792,0.975402 -1.655826,1.579389 -1.655823,1.579389 -1.00772,1.917692 -1.007719,1.917691 -0.460573,1.943586 -0.460575,1.943585 -0.189219,5.291495 -0.189218,5.291494 -0.494008,0.494061 -0.494007,0.494061 -3.164976,0.03851 -3.164975,0.03851 -5.785556,1.135092 -5.785556,1.135092 -1.27,0.199729 -1.27,0.199728 -0.461045,0.2418 -0.461046,0.241799 -0.189002,1.065982 -0.189001,1.065982 -0.137596,0.4703 -0.137595,0.470301 -0.877249,0.30581 -0.87725,0.305811 h -1.055509 -1.055509 l -0.595358,-0.493889 -0.595358,-0.493889 -0.538734,-2.130465 -0.538734,-2.130461 -0.34504,-3.346648 -0.34504,-3.346645 0.156817,-5.811779 0.156816,-5.81178 0.591943,-2.754856 0.591943,-2.754859 0.873075,-2.607363 0.873075,-2.607367 1.133529,-2.255537 1.13353,-2.255534 1.363298,-2.020321 1.363298,-2.020319 1.769423,-2.050764 1.769423,-2.050761 2.40367,-2.112249 2.403671,-2.112249 2.54,-1.679972 2.54,-1.679973 2.254021,-1.136229 2.254022,-1.13623 2.402645,-0.927254 2.402645,-0.927255 3.482987,-1.011565 3.482986,-1.011566 h 14.033946 14.033949 l 4.945775,1.241991 4.945781,1.241991 3.36062,1.124528 3.36062,1.124528 3.52778,1.472543 3.52778,1.472543 4.11341,2.081019 4.1134,2.081018 4.71237,2.826302 4.71237,2.826303 1.14941,0.586387 1.14942,0.586387 0.60814,-0.490778 0.60815,-0.490776 7.90222,-8.000747 7.90222,-8.000745 0.74592,0.0054 0.74591,0.0054 0.20461,0.493889 0.2046,0.493889 0.27461,7.337778 0.27461,7.337778 -0.1665,19.755555 -0.16651,19.755556 -0.18487,2.491421 -0.18487,2.491421 -0.72002,0.471913 -0.72002,0.471912 -26.4004,0.0306 z"
         id="path2653" />
      <path
         style="fill:#000000;fill-opacity:1;stroke-width:0.282222"
         d="m 104.74614,151.03048 -6.067777,0.1256 -3.668889,-0.21062 -3.668889,-0.21062 -3.104445,-0.61448 -3.104444,-0.61449 -3.668889,-0.95781 -3.668889,-0.95781 -3.81,-1.32469 -3.81,-1.32469 -3.527778,-1.53255 -3.527778,-1.53256 -3.524614,-1.8501 -3.524611,-1.85011 -3.389834,-2.0426 -3.38983,-2.0426 -2.024795,-1.17034 -2.024798,-1.17034 h -0.27051 -0.270512 l -6.210683,6.70277 -6.210682,6.70278 -2.11782,2.04611 -2.11782,2.04611 h -0.431525 -0.431526 l -0.296112,-0.91722 -0.296112,-0.91722 -0.07855,-29.49222 -0.07855,-29.492225 1.411111,-0.381451 1.411111,-0.381452 26.759882,-0.147289 26.759883,-0.147289 -0.199757,1.093185 -0.199757,1.093185 -2.708518,3.245556 -2.708515,3.245555 -3.53314,3.951111 -3.53314,3.951114 -1.339026,1.54737 -1.339023,1.54738 v 0.34722 0.34721 l 3.175,1.89113 3.175,1.89112 4.374445,2.18958 4.374444,2.18957 2.856595,1.13415 2.856594,1.13414 2.928961,1.02425 2.928962,1.02425 2.54,0.71308 2.54,0.71309 4.73001,0.14995 4.73001,0.14996 1.7611,-0.33608 1.7611,-0.33608 2.39312,-1.17302 2.39312,-1.17303 1.86339,-1.84318 1.86339,-1.84317 0.7548,-1.55889 0.75479,-1.5589 0.42379,-2.03252 0.4238,-2.03252 0.39992,-3.60525 0.39992,-3.60526 0.33945,-3.338833 0.33945,-3.338838 0.43081,-0.165317 0.43082,-0.165318 1.28056,0.679337 1.28057,0.67934 6.65396,4.659261 6.65397,4.659258 1.46583,0.93993 1.46584,0.93993 0.49638,-0.0956 0.49638,-0.0956 0.52438,-1.40879 0.52439,-1.40878 0.53301,-2.54 0.53301,-2.539997 0.3251,-4.092222 0.3251,-4.092222 0.0366,-0.04272 0.0366,-0.04272 1.88689,-0.199884 1.88689,-0.199887 0.69003,0.690031 0.69003,0.690027 0.50151,1.951465 0.50151,1.951465 0.11391,9.454444 0.11391,9.45445 -0.98208,3.82258 -0.98209,3.82258 -1.09451,2.53875 -1.09451,2.53875 -1.04578,1.87003 -1.04578,1.87002 -1.7407,2.35198 -1.7407,2.35197 -2.35758,2.29886 -2.35758,2.29885 -2.53988,1.79337 -2.53989,1.79337 -2.73274,1.46596 -2.73274,1.46596 -2.86635,1.1417 -2.86636,1.14169 -3.56062,0.97585 -3.56063,0.97586 -2.75764,0.2791 -2.75763,0.2791 z m 21.30778,-65.963358 -25.68222,0.0278 -2.116671,-0.167634 -2.116666,-0.167632 -0.08455,-0.591961 -0.08454,-0.591958 1.195053,-1.511856 1.195053,-1.511856 2.008061,-2.12952 2.00806,-2.129505 4.99532,-5.302729 4.99532,-5.30273 v -0.247444 -0.247444 l -1.05833,-0.834726 -1.05834,-0.834723 -2.54,-1.462148 -2.54,-1.462151 -3.81,-1.850263 -3.809998,-1.850266 -3.319326,-1.366046 -3.319328,-1.366043 -3.595117,-1.171598 -3.595118,-1.171594 -2.963334,-0.6796 -2.963333,-0.6796 -2.963334,-0.168049 -2.963333,-0.168049 -2.771036,0.575699 -2.771035,0.5757 -2.662047,1.29501 -2.66205,1.295011 -1.523032,1.523032 -1.523032,1.523032 -0.869451,1.786639 -0.869447,1.786636 -0.44719,1.693333 -0.447187,1.693334 -0.215375,5.585271 -0.215372,5.585268 -0.461755,0.461755 -0.461752,0.461755 -3.326788,0.05709 -3.326785,0.05708 -5.785555,1.14311 -5.785556,1.143113 -1.27,0.19302 -1.27,0.193023 -0.34531,0.278672 -0.345309,0.278672 -0.180256,1.029973 -0.180257,1.029976 -0.386306,0.616903 -0.386306,0.616907 -1.271735,0.190709 -1.271735,0.190709 -0.729698,-0.183143 -0.729697,-0.183142 -0.535598,-1.21081 -0.535598,-1.210806 -0.489503,-2.800331 -0.489504,-2.80033 -6.49e-4,-7.337778 -6.49e-4,-7.337778 0.638925,-2.963333 0.638924,-2.963333 0.986969,-2.963334 0.986969,-2.963333 1.269236,-2.387253 1.269236,-2.387253 1.608382,-2.249133 1.608358,-2.249131 2.840312,-2.842504 2.840311,-2.842504 2.240621,-1.646807 2.240619,-1.646808 2.68018,-1.534333 2.680179,-1.534333 2.963334,-1.160291 2.963333,-1.160292 3.622876,-1.091346 3.622875,-1.091346 h 13.895793 13.89579 l 4.590971,1.131574 4.590974,1.131574 3.995919,1.305176 3.99592,1.305176 3.93065,1.659621 3.93065,1.659621 3.68935,1.917985 3.68935,1.917985 5.52878,3.298977 5.52878,3.298978 0.39789,0.0067 0.39788,0.0067 8.34248,-8.473372 8.34249,-8.473395 h 0.72898 0.72899 l 0.21105,0.493888 0.21105,0.493889 0.25954,12.7 0.25955,12.700001 -0.2705,16.51 -0.2705,16.51 -0.20839,0.515507 -0.20839,0.51551 -0.73762,0.32987 -0.73762,0.32987 -25.68222,0.0278 z"
         id="path2651" />
      <path
         style="fill:#000000;fill-opacity:1;stroke-width:0.282222"
         d="m 99.948363,151.17391 -0.705556,-0.0354 -3.951111,-0.2179 -3.951111,-0.2179 -2.963334,-0.59944 -2.963333,-0.59945 -3.386667,-0.84557 -3.386666,-0.84558 -3.690708,-1.24517 -3.690708,-1.24518 -3.505959,-1.47931 -3.505959,-1.47932 -3.81,-1.95812 -3.81,-1.95812 -4.85133,-2.90949 -4.851329,-2.9095 -0.849656,-0.43937 -0.849655,-0.43937 h -0.27986 -0.27986 l -6.741953,7.26722 -6.741953,7.26722 -1.622723,1.48167 -1.622724,1.48166 h -0.370395 -0.370395 l -0.226059,-0.49388 -0.226058,-0.49389 -0.195694,-16.08667 -0.195693,-16.08667 -0.03178,-13.76532 -0.03178,-13.765314 0.776111,-0.309391 0.776111,-0.309392 8.325555,-0.231109 8.325556,-0.231109 18.932407,-0.01696 18.932409,-0.01696 0.15524,0.155239 0.155242,0.155242 -0.21984,0.974731 -0.219837,0.97473 -2.06276,2.468364 -2.062756,2.468361 -5.233941,5.877738 -5.233941,5.87775 -0.267084,0.57035 -0.267084,0.57035 0.690417,0.52761 0.690417,0.5276 3.970263,2.26226 3.970263,2.26226 3.226404,1.53238 3.226404,1.53237 2.822222,1.12199 2.822222,1.122 3.839196,1.2816 3.839196,1.28159 2.146128,0.4433 2.146126,0.44329 4.4569,-0.007 4.4569,-0.007 1.27,-0.28924 1.27,-0.28924 2.3248,-1.12133 2.32481,-1.12133 1.83904,-1.72033 1.83904,-1.72034 0.97891,-2.01275 0.9789,-2.01275 0.42165,-2.54 0.42164,-2.54 0.57993,-5.78556 0.57994,-5.785549 0.16172,-0.517804 0.16172,-0.517808 0.74951,0.181715 0.7495,0.181714 3.95111,2.685404 3.95111,2.685404 5.18406,3.533764 5.18407,3.53377 0.38998,-0.38999 0.38999,-0.38999 0.5399,-1.54198 0.5399,-1.54198 0.44767,-2.11667 0.44767,-2.11666 0.33653,-4.26961 0.33653,-4.269613 1.68107,-0.152434 1.68108,-0.152434 0.66861,0.254206 0.66862,0.254206 0.30571,0.781174 0.30571,0.781171 0.53219,2.540001 0.53219,2.54 0.001,8.325553 0.001,8.32555 -0.67276,2.96549 -0.67276,2.96549 -1.05307,2.82007 -1.05306,2.82007 -0.78263,1.55222 -0.78264,1.55222 -1.7536,2.68111 -1.7536,2.68111 -3.28483,3.26142 -3.28482,3.26142 -3.06713,2.04238 -3.06713,2.04239 -3.00065,1.43792 -3.00065,1.43793 -4.09222,1.34904 -4.09222,1.34904 -2.39889,0.45393 -2.39889,0.45392 -6.63222,0.26793 -6.63222,0.26793 -0.705558,-0.0354 z m 27.093337,-66.113821 -24.69445,0.02794 -3.101389,-0.16418 -3.101388,-0.16418 -0.09699,-0.507833 -0.09699,-0.507834 1.11278,-1.467722 1.112782,-1.467722 6.742265,-7.164208 6.74226,-7.164206 0.39976,-0.570569 0.39975,-0.570566 -0.87072,-0.777993 -0.87073,-0.777994 -2.45273,-1.448717 -2.45273,-1.448717 -3.06392,-1.536613 -3.063912,-1.536609 -3.890159,-1.661149 -3.89016,-1.661146 -3.480235,-1.173328 -3.480231,-1.173324 -3.434213,-0.853059 -3.43421,-0.853059 -3.245556,-0.161714 -3.245555,-0.161713 -2.182735,0.45295 -2.182732,0.452947 -2.066321,0.802354 -2.066321,0.802355 -1.610527,1.069007 -1.610526,1.069005 -1.004971,1.169701 -1.004971,1.169698 -0.939746,1.975556 -0.939747,1.975555 -0.337298,1.552222 -0.337297,1.552223 -0.222665,5.461403 -0.222662,5.461401 -0.410086,0.410086 -0.410086,0.410086 -3.502321,0.09193 -3.502322,0.09193 -5.644444,1.13076 -5.644445,1.13076 -1.345906,0.191135 -1.345905,0.191135 -0.386307,0.616906 -0.386306,0.616904 -0.180256,1.029976 -0.180257,1.029973 -0.399297,0.331388 -0.399297,0.331388 -1.731459,0.04975 -1.731459,0.04975 L 27.251966,82.232699 26.847574,81.681293 26.564,80.680477 26.280426,79.67966 25.808333,76.998549 25.33624,74.317438 l -0.01068,-6.914445 -0.01069,-6.914444 0.498224,-2.54 0.498224,-2.54 0.705238,-2.490789 0.705238,-2.490789 1.065098,-2.470517 1.065098,-2.470517 1.916641,-2.940916 1.91664,-2.940917 3.709879,-3.687099 3.709878,-3.687099 2.822223,-1.864615 2.822222,-1.864614 2.551004,-1.282805 2.551001,-1.282805 2.811221,-1.017709 2.811219,-1.017709 2.941723,-0.826106 2.941724,-0.826106 h 13.733684 13.733684 l 4.938376,1.250374 4.938371,1.250375 3.82753,1.278766 3.82753,1.278767 4.05091,1.724959 4.05091,1.724959 3.16378,1.667652 3.16377,1.667651 5.70521,3.391582 5.70521,3.391582 h 0.47254 0.47254 l 8.07692,-8.186497 8.07693,-8.186498 0.74525,-0.339557 0.74524,-0.339556 0.36758,0.502689 0.36757,0.50269 0.19086,2.590586 0.19085,2.590587 -0.10672,26.670001 -0.10672,26.67 -0.2389,0.515507 -0.23889,0.51551 -0.73762,0.326289 -0.73762,0.326288 z"
         id="path2649" />
      <path
         style="fill:#000000;fill-opacity:1;stroke-width:0.282222"
         d="m 103.89947,150.80605 -10.018885,0.096 -2.068097,-0.25744 -2.068099,-0.25744 -4.510258,-1.00726 -4.510255,-1.00727 -4.004979,-1.28391 -4.004979,-1.28392 -3.81,-1.55298 -3.81,-1.55298 -4.092223,-2.0735 -4.092222,-2.07349 -5.474566,-3.25424 -5.474567,-3.25423 -0.54288,-0.1723 -0.542882,-0.17231 -0.584426,0.51933 -0.584426,0.51932 -6.728342,7.24441 -6.728343,7.24441 -1.305727,1.06994 -1.305726,1.06995 -0.36887,-0.50446 -0.36887,-0.50446 -0.15796,-2.30656 -0.157959,-2.30656 -0.17531,-27.55002 -0.175311,-27.550016 0.944749,-0.349433 0.944749,-0.349434 12.135556,-0.234241 12.135555,-0.234239 15.028334,-0.01798 15.028334,-0.01797 v 0.956296 0.956293 l -3.068086,3.629819 -3.068086,3.629815 -4.150733,4.65667 -4.150735,4.65666 -0.548118,0.75731 -0.548118,0.7573 0.92305,0.6922 0.923048,0.6922 2.798876,1.60588 2.798877,1.60587 3.300423,1.65445 3.300425,1.65445 3.355142,1.40709 3.355146,1.40709 3.386666,1.16789 3.386667,1.16789 2.822222,0.6876 2.822219,0.68761 4.81711,2.8e-4 4.81711,2.8e-4 1.53289,-0.45085 1.53289,-0.45085 2.11667,-1.09633 2.11667,-1.09632 1.35058,-1.29449 1.35058,-1.29449 0.9715,-1.46318 0.9715,-1.46318 0.54719,-2.13953 0.5472,-2.13952 0.42923,-3.64507 0.42923,-3.64508 0.33466,-3.567478 0.33465,-3.567478 0.24033,-0.383633 0.24032,-0.38363 1.61154,0.838062 1.61153,0.838064 5.38054,3.794038 5.38053,3.794035 2.79413,1.83737 2.79413,1.83736 0.51926,-0.64126 0.51926,-0.64126 0.54001,-1.74835 0.54001,-1.74834 0.45557,-2.809861 0.45558,-2.809858 0.20658,-3.104444 0.20658,-3.104445 2.17396,-0.08219 2.17396,-0.08219 0.46832,0.905631 0.46832,0.905631 0.52901,2.563224 0.52902,2.563224 0.004,8.383978 0.004,8.38397 -0.96654,3.75158 -0.96654,3.75159 -1.14001,2.72589 -1.14002,2.72589 -1.42122,2.40616 -1.42121,2.40617 -1.6426,2.06461 -1.6426,2.06461 -2.52019,2.35807 -2.52018,2.35807 -2.68111,1.78673 -2.68111,1.78672 -3.52778,1.70366 -3.52778,1.70366 -3.43245,1.12569 -3.43245,1.12569 -2.77644,0.60104 -2.77644,0.60105 -10.01889,0.096 z m 24.13,-65.775134 -23.42444,0.06404 -4.14034,-0.167646 -4.140335,-0.167646 -0.18932,-0.190398 -0.18932,-0.190399 0.190105,-0.598968 0.190105,-0.598972 1.340863,-1.609519 1.340863,-1.609522 6.279939,-6.632222 6.27993,-6.632222 0.45905,-0.676628 0.45904,-0.676631 -1.09721,-0.948461 -1.09721,-0.948461 -2.13752,-1.253124 -2.13753,-1.25312 -4.93889,-2.391277 -4.938887,-2.391275 -2.822223,-1.117332 -2.822222,-1.117332 -3.207865,-1.033825 -3.207865,-1.033825 -2.859913,-0.712631 -2.859913,-0.712634 -3.668889,-0.154192 -3.668889,-0.154189 -2.54,0.607689 -2.54,0.607693 -2.298745,1.111854 -2.298745,1.111856 -1.582471,1.44629 -1.582474,1.446291 -1.133356,2.299411 -1.133356,2.299408 -0.38551,2.116667 -0.385507,2.116667 -0.181117,4.759435 -0.181116,4.759435 -0.264958,0.495077 -0.264959,0.49508 -3.749399,0.146341 -3.749398,0.146343 -4.233333,0.884995 -4.233334,0.884996 -2.54,0.411183 -2.54,0.411184 -0.469217,0.570984 -0.469217,0.570986 -0.191211,1.13177 -0.191212,1.131771 -0.520462,0.278545 -0.520462,0.278542 h -1.679731 -1.67973 l -0.452787,-0.954177 -0.452786,-0.954179 -0.421252,-1.938599 -0.421251,-1.938601 -0.343844,-5.009933 -0.343843,-5.009935 0.333764,-4.303398 0.333765,-4.303401 0.690405,-2.822222 0.690405,-2.822223 0.761455,-2.116666 0.761454,-2.116667 0.982961,-1.975555 0.98296,-1.975556 1.528399,-2.311643 1.5284,-2.311643 2.866305,-3.002131 2.866304,-3.00213 2.982991,-2.24651 2.982993,-2.24651 3.668889,-1.817965 3.668889,-1.817965 1.975555,-0.693777 1.975556,-0.693777 3.332502,-1.005197 3.332506,-1.005197 13.600828,0.0036 13.600831,0.0036 4.566768,1.11328 4.56677,1.113281 3.975184,1.299181 3.97517,1.299182 3.43377,1.411475 3.43376,1.411474 4.39318,2.227833 4.39318,2.227832 5.21694,3.128183 5.21694,3.128183 0.66621,0.167206 0.66621,0.167208 8.52087,-8.504048 8.52087,-8.504048 h 0.47327 0.47327 l 0.36271,0.635 0.36271,0.635 -0.006,28.927778 -0.006,28.927778 -0.32584,0.739191 -0.32584,0.739193 -0.79713,0.21108 -0.79714,0.21108 -23.42444,0.06404 z"
         id="path2647" />
      <path
         style="fill:#000000;fill-opacity:1;stroke-width:0.282222"
         d="m 103.89947,150.79697 -9.736663,0.10785 -1.921973,-0.24256 -1.921973,-0.24257 -3.558503,-0.74595 -3.558501,-0.74595 -4.397304,-1.26142 -4.397302,-1.26143 -4.374444,-1.74392 -4.374445,-1.74392 -4.515556,-2.28414 -4.515555,-2.28414 -5.537866,-3.29958 -5.537866,-3.29957 h -0.438162 -0.438161 l -4.072438,4.30389 -4.072437,4.30388 -3.185873,3.38667 -3.185873,3.38667 -1.264111,1.11274 -1.26411,1.11274 -0.3613,-0.49411 -0.3613,-0.49411 -0.160086,-3.44085 -0.160085,-3.44086 -0.141588,-26.33497 -0.141589,-26.334978 1.050311,-0.471254 1.050311,-0.471252 27.022778,-0.09758 27.022779,-0.09758 -0.0032,0.798255 -0.0032,0.798254 -2.598738,3.104444 -2.598739,3.104445 -4.900496,5.503326 -4.900498,5.50334 -0.260212,0.47831 -0.260212,0.47831 0.975473,0.74403 0.975476,0.74403 3.188897,1.82819 3.188896,1.8282 3.386667,1.65206 3.386667,1.65206 4.233333,1.69262 4.233334,1.69262 3.303157,0.99835 3.303157,0.99835 1.776843,0.32729 1.77684,0.32729 4.68283,-0.0123 4.68283,-0.0124 1.80828,-0.60384 1.80828,-0.60385 1.83445,-1.01523 1.83444,-1.01523 1.59431,-1.62253 1.59432,-1.62254 0.86372,-1.78579 0.86373,-1.78579 0.41484,-2.25778 0.41484,-2.25778 0.59311,-6.06777 0.5931,-6.067778 0.26983,-0.640306 0.26982,-0.640306 0.9883,0.412936 0.98829,0.412934 1.34367,0.914679 1.34368,0.914682 5.92666,4.122029 5.92667,4.12204 1.49093,0.94102 1.49092,0.94101 0.5195,-0.47014 0.51951,-0.47014 0.58642,-1.89355 0.58641,-1.89356 0.41717,-2.257773 0.41716,-2.257778 0.17278,-2.54 0.17279,-2.54 0.14661,-1.199444 0.14661,-1.199445 1.88771,0.0043 1.8877,0.0043 0.34447,0.218864 0.34447,0.218866 0.42268,1.198011 0.42268,1.198008 0.4323,2.278868 0.43229,2.278871 -0.006,7.941602 -0.006,7.9416 -0.5601,2.54 -0.5601,2.54 -0.74108,2.25778 -0.74108,2.25778 -1.34504,2.8734 -1.34505,2.8734 -1.78966,2.62993 -1.78967,2.62994 -2.96634,2.97546 -2.96633,2.97547 -3.06767,2.04648 -3.06767,2.04647 -3.14122,1.53295 -3.14122,1.53295 -3.88979,1.29414 -3.8898,1.29414 -2.74242,0.56236 -2.74243,0.56236 -9.73667,0.10785 z m 22.86,-65.705348 -12.84111,-0.04114 -8.58393,-0.07906 -8.583927,-0.07906 -0.359851,-0.298648 -0.35985,-0.29865 0.164922,-0.473253 0.16492,-0.473256 0.964906,-1.27 0.964907,-1.27 5.849643,-6.208889 5.84964,-6.208889 1.21155,-1.326896 1.21156,-1.326896 -0.16582,-0.522461 -0.16583,-0.522458 -2.18586,-1.421661 -2.18587,-1.42166 -1.86222,-1.022762 -1.86222,-1.022763 -4.516538,-2.097608 -4.516538,-2.097611 -3.075686,-1.156055 -3.075683,-1.156059 -3.724306,-1.118952 -3.724307,-1.118952 -2.473497,-0.463493 -2.4735,-0.463491 -2.974416,0.01053 -2.974419,0.01053 -2.257778,0.579357 -2.257778,0.579354 -2.575345,1.267599 -2.575346,1.267595 -1.573524,1.699593 -1.573522,1.699593 -0.837678,1.762828 -0.837675,1.762825 -0.435799,2.124811 -0.435799,2.124812 -0.196161,5.025757 -0.196162,5.025757 -0.39101,0.39101 -0.391008,0.391011 -2.739376,-0.03057 -2.739373,-0.03057 -7.055555,1.333796 -7.055556,1.333797 -0.615265,0.116174 -0.615265,0.116171 -0.417317,0.417316 -0.417316,0.417319 -0.192615,1.140054 -0.192614,1.140073 -0.430357,0.430358 -0.430356,0.430358 -1.716639,-0.08317 -1.716639,-0.08317 -0.48708,-0.846666 -0.487081,-0.846667 -0.440295,-2.154403 -0.440295,-2.154399 -0.326446,-4.787762 -0.326446,-4.787762 0.31971,-4.205616 0.31971,-4.205614 0.6887,-2.822222 0.6887,-2.822222 0.898188,-2.54 0.898186,-2.54 0.792919,-1.572145 0.792919,-1.572144 1.771829,-2.661189 1.77183,-2.661189 3.400223,-3.401357 3.400223,-3.401358 3.054726,-2.035264 3.054722,-2.035263 2.589722,-1.258818 2.589719,-1.258818 3.124237,-1.11356 3.124237,-1.11356 2.718852,-0.740697 2.71885,-0.740696 13.91247,0.09232 13.912466,0.09232 4.374444,1.169477 4.374449,1.169476 4.23333,1.404108 4.23333,1.404109 3.66889,1.59768 3.66889,1.59768 3.38667,1.765717 3.38666,1.765717 5.53082,3.28883 5.53081,3.288832 0.4677,0.179473 0.4677,0.179474 8.53609,-8.638468 8.5361,-8.638468 h 0.50071 0.50071 l 0.33867,0.776111 0.33866,0.776111 0.0919,23.706667 0.0919,23.706667 -0.24618,5.443017 -0.24619,5.443019 -0.48346,0.483458 -0.48346,0.483461 -6.41067,0.186735 -6.41066,0.186738 z"
         id="path2645" />
    </g>
  </g>
</svg>
