<?xml version="1.0" encoding="UTF-8" standalone="no"?>
<!-- Created with Inkscape (http://www.inkscape.org/) -->

<svg
   width="53.5457mm"
   height="53.727669mm"
   viewBox="0 0 53.5457 53.727669"
   version="1.1"
   id="svg25631"
   inkscape:version="1.1.1 (3bf5ae0d25, 2021-09-20)"
   sodipodi:docname="results_xs_3d.svg"
   xmlns:inkscape="http://www.inkscape.org/namespaces/inkscape"
   xmlns:sodipodi="http://sodipodi.sourceforge.net/DTD/sodipodi-0.dtd"
   xmlns="http://www.w3.org/2000/svg"
   xmlns:svg="http://www.w3.org/2000/svg">
  <sodipodi:namedview
     id="namedview25633"
     pagecolor="#ffffff"
     bordercolor="#666666"
     borderopacity="1.0"
     inkscape:pageshadow="2"
     inkscape:pageopacity="0.0"
     inkscape:pagecheckerboard="0"
     inkscape:document-units="mm"
     showgrid="false"
     fit-margin-top="0"
     fit-margin-left="0"
     fit-margin-right="0"
     fit-margin-bottom="0"
     inkscape:zoom="2.7795821"
     inkscape:cx="177.54468"
     inkscape:cy="138.33015"
     inkscape:window-width="1920"
     inkscape:window-height="1137"
     inkscape:window-x="-8"
     inkscape:window-y="-8"
     inkscape:window-maximized="1"
     inkscape:current-layer="layer1" />
  <defs
     id="defs25628" />
  <g
     inkscape:groupmode="layer"
     id="layer9"
     inkscape:label="colors"
     transform="translate(-2.6402951,-70.037717)">
    <rect
       style="fill:#14b8dd;fill-opacity:1;stroke-width:0.264583"
       id="rect23448"
       width="52.974052"
       height="19.389193"
       x="3.1238921"
       y="98.410774" />
    <rect
       style="fill:#0b527f;fill-opacity:1;stroke-width:0.264583"
       id="rect25366"
       width="51.502552"
       height="27.871967"
       x="3.0373328"
       y="70.192574" />
  </g>
  <g
     inkscape:groupmode="layer"
     id="layer8"
     inkscape:label="mesh"
     transform="translate(-2.6402951,-70.037717)">
    <path
       style="fill:#e6e6e6;stroke-width:0.117416"
       d="M 2.8401421,94.126106 V 70.037717 H 29.481068 56.122014 V 94.126106 118.21451 H 29.481068 2.8401421 Z M 12.583813,112.56966 V 109.1604 H 8.9453481 5.3068961 v 3.40926 3.40927 h 3.638452 3.6384649 z m 10.483707,0 v -3.40926 h -4.008479 -4.008479 v 3.40926 3.40927 h 4.008479 4.008479 z m 10.483706,0 v -3.40926 h -4.008479 -4.008479 v 3.40926 3.40927 h 4.008479 4.008479 z m 10.360363,0 v -3.40926 h -3.946815 -3.9468 v 3.40926 3.40927 h 3.9468 3.946815 z m 9.743659,0 v -3.40926 h -3.638452 -3.638458 v 3.40926 3.40927 h 3.638458 3.638452 z M 12.583813,103.40378 V 99.770956 H 8.9453481 5.3068961 v 3.632824 3.63282 h 3.638452 3.6384649 z m 10.483707,0 v -3.632824 h -4.008479 -4.008479 v 3.632824 3.63282 h 4.008479 4.008479 z m 10.483706,0 v -3.632824 h -4.008479 -4.008479 v 3.632824 3.63282 h 4.008479 4.008479 z m 10.360363,0 v -3.632824 h -3.946815 -3.9468 v 3.632824 3.63282 h 3.9468 3.946815 z m 9.743659,0 v -3.632824 h -3.638452 -3.638458 v 3.632824 3.63282 h 3.638458 3.638452 z M 12.583813,93.958446 V 90.269731 H 8.9453481 5.3068961 v 3.688715 3.68871 h 3.638452 3.6384649 z m 10.483707,0 v -3.688715 h -4.008479 -4.008479 v 3.688715 3.68871 h 4.008479 4.008479 z m 10.483706,0 v -3.688715 h -4.008479 -4.008479 v 3.688715 3.68871 h 4.008479 4.008479 z m 10.360363,0 v -3.688715 h -3.946815 -3.9468 v 3.688715 3.68871 h 3.9468 3.946815 z m 9.743659,0 v -3.688715 h -3.638452 -3.638458 v 3.688715 3.68871 h 3.638458 3.638452 z M 12.583813,84.457219 V 80.76851 H 8.9453481 5.3068961 v 3.688709 3.688709 h 3.638452 3.6384649 z m 10.483707,0 V 80.76851 h -4.008479 -4.008479 v 3.688709 3.688709 h 4.008479 4.008479 z m 10.483706,0 V 80.76851 h -4.008479 -4.008479 v 3.688709 3.688709 h 4.008479 4.008479 z m 10.360363,0 V 80.76851 h -3.946815 -3.9468 v 3.688709 3.688709 h 3.9468 3.946815 z m 9.743659,0 V 80.76851 h -3.638452 -3.638458 v 3.688709 3.688709 h 3.638458 3.638452 z M 12.583813,75.459002 V 72.273298 H 8.9453481 5.3068961 v 3.185704 3.185704 h 3.638452 3.6384649 z m 10.483707,0 v -3.185704 h -4.008479 -4.008479 v 3.185704 3.185704 h 4.008479 4.008479 z m 10.483706,0 v -3.185704 h -4.008479 -4.008479 v 3.185704 3.185704 h 4.008479 4.008479 z m 10.360363,0 v -3.185704 h -3.946815 -3.9468 v 3.185704 3.185704 h 3.9468 3.946815 z m 9.743659,0 v -3.185704 h -3.638452 -3.638458 v 3.185704 3.185704 h 3.638458 3.638452 z"
       id="path194" />
  </g>
  <g
     inkscape:groupmode="layer"
     id="layer7"
     inkscape:label="bed"
     transform="translate(-2.6402951,-70.037717)">
    <path
       style="fill:#ac9d8e;fill-opacity:1;stroke:none;stroke-width:0.215571"
       d="m 12.792953,123.66769 -10.1526579,-0.074 0.0022,-4.73959 c 0.0012,-2.60677 0.05315,-5.16527 0.115643,-5.68556 l 0.11362,-0.94596 1.601027,2.08398 c 3.381578,4.40164 6.7910029,3.49453 9.9561909,2.1491 2.085849,-0.88663 3.371525,-0.27855 7.394663,-5.86439 2.844721,-3.9497 3.925019,-5.28362 4.695578,-5.79797 2.720517,-1.81593 5.835628,-1.4641 8.692112,5.46282 2.411634,5.84803 5.378884,6.74717 8.813819,5.02871 3.246861,-1.62437 5.845492,-4.82377 9.606543,-12.88111 0.862543,-1.84783 2.412273,-3.772884 2.511803,-3.414054 0.0951,0.34294 0.005,23.772564 -0.0239,24.643804 -0.005,0.15975 -23.553186,0.17834 -43.32643,0.0342 z"
       id="path10707"
       sodipodi:nodetypes="cccscsssscssscsc" />
  </g>
  <g
     inkscape:label="Layer 1"
     inkscape:groupmode="layer"
     id="layer1"
     transform="translate(-2.6402951,-70.037717)">
    <g
       id="g16397"
       transform="matrix(8.0957017,0,0,7.7681743,-1367.0955,-717.25032)">
      <path
         style="fill:#3e47cb;stroke-width:0.264583"
         d="m 171.64507,107.04953 v -0.76135 l -0.39338,-0.41392 -0.34773,-0.43103 -0.60114,-0.84525 -0.50983,-0.99935 v -0.67199 -0.672 h 0.26458 0.26458 v 0.66146 0.66145 h 2.24896 2.24896 v -0.66145 -0.66146 h 0.26458 0.26459 v 0.67885 0.67885 l -0.3039,0.57792 -0.30389,0.57792 -0.62215,0.7479 -0.62215,0.74791 v 0.77345 0.77345 h -0.92604 -0.92604 z m 1.32292,-0.40897 v -0.64116 l 0.66146,-0.78609 0.66145,-0.7861 0.14269,-0.32006 -0.14269,-4.3e-4 h -1.71979 -1.71979 l -0.13698,-0.005 0.13698,0.32577 0.66146,0.7861 0.66146,0.78609 v 0.64116 0.64116 h 0.39687 0.39688 z"
         id="path16401"
         sodipodi:nodetypes="cccccccccccccccccccccccccccccccccccccccccccccc" />
      <path
         style="fill:#870014;stroke-width:0.264583"
         d="m 171.64507,107.04953 v -0.76135 l -0.39338,-0.41392 -0.34772,-0.43103 -0.60115,-0.84525 -0.50983,-0.99935 v -0.67199 -0.672 h 0.26458 0.26458 v 0.54656 0.54656 l 0.3039,0.57792 0.30389,0.57792 0.62215,0.7479 0.62215,0.7479 v 0.64116 0.64116 h 0.39687 0.39688 v -0.64116 -0.64116 l 0.62215,-0.7479 0.62215,-0.7479 0.30389,-0.57792 0.30389,-0.57792 v -0.54656 -0.54656 h 0.26458 0.26459 v 0.67885 0.67885 l -0.3039,0.57792 -0.30389,0.57792 -0.62215,0.7479 -0.62215,0.74791 v 0.77345 0.77345 h -0.92604 -0.92604 z"
         id="path16399"
         sodipodi:nodetypes="ccccccccccccccccccccccccccccccccccccccccc" />
    </g>
  </g>
</svg>
