<?xml version="1.0" ?>
<!DOCTYPE svg  PUBLIC '-//W3C//DTD SVG 1.1//EN'  'http://www.w3.org/Graphics/SVG/1.1/DTD/svg11.dtd'>
<!-- Uploaded to: SVG Repo, www.svgrepo.com, Generator: SVG Repo Mixer Tools -->
<svg fill="#000000" width="800px" height="800px" viewBox="0 0 2.33333 2.33333" style="shape-rendering:geometricPrecision; text-rendering:geometricPrecision; image-rendering:optimizeQuality; fill-rule:evenodd; clip-rule:evenodd" xml:space="preserve" xmlns="http://www.w3.org/2000/svg" xmlns:xlink="http://www.w3.org/1999/xlink">
<defs>
<style type="text/css">
   <![CDATA[
    .fil0 {fill:black}
   ]]>
  </style>
</defs>
<g id="Layer_x0020_1">
<path class="fil0" d="M1.97965 1.90275l-1.62354 0c-0.0236102,0 -0.0416654,-0.0180551 -0.0416654,-0.0416654l0 -0.740248c0,-0.0111102 0.00833071,-0.0194449 0.0194409,-0.0194449l0.362484 0c0.00694488,0 0.0152795,0.00416929 0.0180551,0.0111142l0.0999961 0.204157c0.00138976,0.00416535 0.00416929,0.00833071 0.00555512,0.0111102l0.693028 0 0.106941 -0.215268c0.00277559,-0.00694488 0.00972441,-0.0111142 0.0180551,-0.0111142l0.362484 0c0.0111102,0 0.0194449,0.00833465 0.0194449,0.0194449l0 0.740248c0.00138976,0.0236102 -0.0166654,0.0416654 -0.0402756,0.0416654zm-1.62493 -0.762472l0 0.719417c0,0.00138583 0,0.00138583 0.00138976,0.00138583l1.62216 3.93701e-006c0.00138583,0 0.00138583,-0.00138976 0.00138583,-0.00138976l0 -0.719417 -0.329154 0 -0.0972165 0.197217c-0.00555512,0.0111102 -0.0152795,0.0291654 -0.0375,0.0291654l-0.695807 3.93701e-006c-0.0249961,0 -0.0347205,-0.0208346 -0.0402756,-0.0333346l-0.0944409 -0.191657 -0.330539 0 0 -0.0013937zm0.46665 0.187496l0 0z"/>
<path class="fil0" d="M0.333878 1.14028c-0.0114252,0 -0.0266378,-0.0135354 -0.0180551,-0.0291614l0.343043 -0.649976c0.00555512,-0.0111102 0.0152795,-0.0305512 0.0388898,-0.0305512l0.91385 0c0.0259843,0 0.0330748,0.0229016 0.0388858,0.0305512l0.366654 0.648587c0.0131181,0.0230866 -0.0211339,0.0429449 -0.0347244,0.0208346l-0.36526 -0.647197 -0.00694488 -0.0111102 -0.909685 0 -0.00555512 0.0111063 -0.343043 0.647201c-0.00277559,0.00694094 -0.00972047,0.00971654 -0.0180551,0.00971654z"/>
<path class="fil0" d="M1.58939 0.569469l-0.843024 0c-0.0257756,0 -0.0257756,-0.0388858 0,-0.0388858l0.843024 0c0.0257756,0 0.0257756,0.0388858 0,0.0388858z"/>
<path class="fil0" d="M1.65883 0.70002l-0.983295 0c-0.0257756,0 -0.0257756,-0.0388858 0,-0.0388858l0.983295 0c0.0257756,0 0.0257756,0.0388858 0,0.0388858z"/>
<path class="fil0" d="M1.71299 0.829181l-1.09162 0c-0.0257795,0 -0.0257795,-0.0388858 0,-0.0388858l1.09162 -3.93701e-006c0.0257756,0 0.0257717,0.0388898 0,0.0388898z"/>
<path class="fil0" d="M1.80049 0.958343l-1.26662 0c-0.0257756,0 -0.0257756,-0.0388858 0,-0.0388858l1.26662 -3.93701e-006c0.0257795,0 0.0257717,0.0388898 0,0.0388898z"/>
<path class="fil0" d="M1.52689 1.70692l-0.718031 0c-0.0111102,0 -0.0194409,-0.00833071 -0.0194409,-0.0194409l0 -0.172217c0,-0.0257756 0.0388858,-0.0257756 0.0388858,0l0 0.151386 0.679138 -3.93701e-006 0 -0.151382c0,-0.0257756 0.0388858,-0.0257756 0.0388858,0l0 0.172217c0.0013937,0.0111102 -0.00833071,0.0194409 -0.019437,0.0194409z"/>
</g>
</svg>