<?xml version="1.0" encoding="UTF-8" standalone="no"?>
<!-- Created with Inkscape (http://www.inkscape.org/) -->

<svg
   width="53.5457mm"
   height="53.72768mm"
   viewBox="0 0 53.5457 53.72768"
   version="1.1"
   id="svg302"
   inkscape:version="1.1.1 (3bf5ae0d25, 2021-09-20)"
   sodipodi:docname="results_ts_3d.svg"
   xmlns:inkscape="http://www.inkscape.org/namespaces/inkscape"
   xmlns:sodipodi="http://sodipodi.sourceforge.net/DTD/sodipodi-0.dtd"
   xmlns="http://www.w3.org/2000/svg"
   xmlns:svg="http://www.w3.org/2000/svg">
  <sodipodi:namedview
     id="namedview304"
     pagecolor="#ffffff"
     bordercolor="#666666"
     borderopacity="1.0"
     inkscape:pageshadow="2"
     inkscape:pageopacity="0.0"
     inkscape:pagecheckerboard="0"
     inkscape:document-units="mm"
     showgrid="false"
     inkscape:snap-nodes="false"
     fit-margin-top="0"
     fit-margin-left="0"
     fit-margin-right="0"
     fit-margin-bottom="0"
     inkscape:zoom="1.7298721"
     inkscape:cx="180.07112"
     inkscape:cy="145.38647"
     inkscape:window-width="1920"
     inkscape:window-height="1137"
     inkscape:window-x="-8"
     inkscape:window-y="-8"
     inkscape:window-maximized="1"
     inkscape:current-layer="layer6" />
  <defs
     id="defs299" />
  <g
     inkscape:groupmode="layer"
     id="layer6"
     inkscape:label="color"
     transform="translate(-48.249071,-12.049952)">
    <rect
       style="fill:#14b8dd;fill-opacity:1;stroke-width:0.264583"
       id="rect23448"
       width="52.974052"
       height="19.389193"
       x="48.732666"
       y="40.423008" />
    <rect
       style="fill:#0b527f;fill-opacity:1;stroke-width:0.264583"
       id="rect25366"
       width="51.502552"
       height="27.871967"
       x="48.646107"
       y="12.204806" />
  </g>
  <g
     inkscape:groupmode="layer"
     id="layer4"
     inkscape:label="mesh"
     transform="translate(-48.249071,-12.049952)">
    <path
       style="fill:#e6e6e6;stroke-width:0.117416"
       d="M 48.448918,36.138345 V 12.049952 H 75.089844 101.73079 V 36.138345 60.226737 H 75.089844 48.448918 Z m 9.743671,18.443549 v -3.409263 h -3.638465 -3.638452 v 3.409263 3.409262 h 3.638452 3.638465 z m 10.483707,0 v -3.409263 h -4.008479 -4.008479 v 3.409263 3.409262 h 4.008479 4.008479 z m 10.483706,0 v -3.409263 h -4.008479 -4.008479 v 3.409263 3.409262 h 4.008479 4.008479 z m 10.360363,0 v -3.409263 h -3.946815 -3.9468 v 3.409263 3.409262 h 3.9468 3.946815 z m 9.743659,0 v -3.409263 h -3.638452 -3.638458 v 3.409263 3.409262 h 3.638458 3.638452 z M 58.192589,45.416008 v -3.632819 h -3.638465 -3.638452 v 3.632819 3.632821 h 3.638452 3.638465 z m 10.483707,0 v -3.632819 h -4.008479 -4.008479 v 3.632819 3.632821 h 4.008479 4.008479 z m 10.483706,0 v -3.632819 h -4.008479 -4.008479 v 3.632819 3.632821 h 4.008479 4.008479 z m 10.360363,0 v -3.632819 h -3.946815 -3.9468 v 3.632819 3.632821 h 3.9468 3.946815 z m 9.743659,0 v -3.632819 h -3.638452 -3.638458 v 3.632819 3.632821 h 3.638458 3.638452 z M 58.192589,35.970676 v -3.68871 h -3.638465 -3.638452 v 3.68871 3.68871 h 3.638452 3.638465 z m 10.483707,0 v -3.68871 h -4.008479 -4.008479 v 3.68871 3.68871 h 4.008479 4.008479 z m 10.483706,0 v -3.68871 h -4.008479 -4.008479 v 3.68871 3.68871 h 4.008479 4.008479 z m 10.360363,0 v -3.68871 h -3.946815 -3.9468 v 3.68871 3.68871 h 3.9468 3.946815 z m 9.743659,0 v -3.68871 h -3.638452 -3.638458 v 3.68871 3.68871 h 3.638458 3.638452 z M 58.192589,26.469454 v -3.688709 h -3.638465 -3.638452 v 3.688709 3.688709 h 3.638452 3.638465 z m 10.483707,0 v -3.688709 h -4.008479 -4.008479 v 3.688709 3.688709 h 4.008479 4.008479 z m 10.483706,0 v -3.688709 h -4.008479 -4.008479 v 3.688709 3.688709 h 4.008479 4.008479 z m 10.360363,0 v -3.688709 h -3.946815 -3.9468 v 3.688709 3.688709 h 3.9468 3.946815 z m 9.743659,0 v -3.688709 h -3.638452 -3.638458 v 3.688709 3.688709 h 3.638458 3.638452 z M 58.192589,17.471237 v -3.185704 h -3.638465 -3.638452 v 3.185704 3.185704 h 3.638452 3.638465 z m 10.483707,0 v -3.185704 h -4.008479 -4.008479 v 3.185704 3.185704 h 4.008479 4.008479 z m 10.483706,0 v -3.185704 h -4.008479 -4.008479 v 3.185704 3.185704 h 4.008479 4.008479 z m 10.360363,0 v -3.185704 h -3.946815 -3.9468 v 3.185704 3.185704 h 3.9468 3.946815 z m 9.743659,0 v -3.185704 h -3.638452 -3.638458 v 3.185704 3.185704 h 3.638458 3.638452 z"
       id="path194" />
  </g>
  <g
     inkscape:groupmode="layer"
     id="layer2"
     inkscape:label="bed"
     transform="translate(-48.249071,-12.049952)">
    <path
       style="fill:#ac9d8e;fill-opacity:1;stroke:none;stroke-width:0.215571"
       d="m 58.401729,65.679921 -10.152658,-0.07399 0.0022,-4.73959 c 0.0012,-2.606774 0.05315,-5.165275 0.115643,-5.685557 l 0.11362,-0.945965 1.601027,2.08398 c 3.381578,4.401644 6.791003,3.494535 9.956191,2.149107 2.085849,-0.886637 3.371525,-0.278558 7.394663,-5.864396 2.844721,-3.949698 3.925019,-5.28362 4.695578,-5.797965 2.720517,-1.815934 5.835628,-1.464101 8.692112,5.46282 2.411634,5.848024 5.378884,6.747161 8.813819,5.028702 3.246861,-1.624364 5.845492,-4.823769 9.606543,-12.881104 0.862543,-1.847831 2.412273,-3.772884 2.511803,-3.414051 0.0951,0.342934 0.005,23.772558 -0.0239,24.643802 -0.005,0.159747 -23.553186,0.178342 -43.32643,0.03422 z"
       id="path10707"
       sodipodi:nodetypes="cccscsssscssscsc" />
  </g>
  <g
     inkscape:label="Layer 1"
     inkscape:groupmode="layer"
     id="layer1"
     transform="translate(-48.249071,-12.049952)">
    <g
       id="g2293"
       transform="matrix(8.619037,0,0,8.4791182,12.289532,-306.42117)">
      <path
         style="fill:#ec1b23;stroke-width:0.264583"
         d="m 5.0711773,41.401624 0.4145776,-0.79375 0.4145776,-0.79375 0.5670164,-0.858088 0.5670166,-0.858088 0.3677065,-0.0018 0.3677068,-0.0018 0.3662722,0.46302 0.3662723,0.463021 0.670152,1.277712 0.670152,1.277711 -0.097413,0.292238 -0.097413,0.292238 L 8.6588648,40.391886 7.6699267,38.623499 H 7.4411642 7.2124018 L 6.1311965,40.498825 5.0499913,42.37415 c 0.021186,-0.972526 0,0 0.021186,-0.972526 z"
         id="path2299"
         sodipodi:nodetypes="cccccccccccccccccccc" />
      <path
         style="fill:#000000;stroke-width:0.264583"
         d="M 4.5208247,40.740166 V 38.094333 H 4.785408 5.0499913 v 2.38125 2.38125 h 2.38125 2.3812499 v 0.264583 0.264583 H 7.1666579 4.5208247 Z"
         id="path2295" />
      <path
         style="fill:#fe0000;fill-opacity:1;stroke-width:0.400956"
         d="m 112.26008,227.3421 c 0.10946,-3.08736 0.30184,-9.94371 0.4275,-15.23633 l 0.22848,-9.62295 13.27606,-25.05975 13.27607,-25.05976 18.63504,-27.76621 18.63505,-27.766205 h 11.90418 11.90418 l 11.7939,14.666635 11.79391,14.66664 21.82716,40.9109 21.82716,40.9109 -0.56647,22.6089 c -0.13027,5.19899 -5.47268,-4.66469 -5.58844,-4.67519 -0.11577,-0.0105 -14.57256,-25.31583 -32.12619,-56.23409 l -31.9157,-56.21502 h -7.74262 -7.74261 l -33.02777,56.33433 c -18.16528,30.98389 -33.92556,57.86799 -35.02285,59.74246 l -1.99506,3.40813 z"
         id="path15758"
         sodipodi:nodetypes="sscccccccccccssscccsscs"
         transform="matrix(0.03069755,0,0,0.03120411,1.6132522,35.083868)" />
    </g>
  </g>
</svg>
