<?xml version="1.0" encoding="iso-8859-1"?>
<!-- Uploaded to: SVG Repo, www.svgrepo.com, Generator: SVG Repo Mixer Tools -->
<svg version="1.1" id="Layer_1" xmlns="http://www.w3.org/2000/svg" xmlns:xlink="http://www.w3.org/1999/xlink" 
	 viewBox="0 0 512 512" xml:space="preserve">
<path style="fill:#424242;" d="M405.74,479.498h-43.156L229.196,204.495h-25.441l-10.834,160.252l10.834,147.252h201.987v-32.501
	H405.74z M220.004,260.02l41.917,86.421h-41.917L220.004,260.02L220.004,260.02z M220.004,479.498V378.943h57.683l48.774,100.556
	H220.004z"/>
<path style="fill:#707070;" d="M178.311,204.495L44.922,479.498H1.767V512h201.987V204.495H178.311z M187.503,479.498H81.046
	l48.774-100.556h57.683V479.498z M145.584,346.44l41.918-86.421v86.421H145.584z"/>
<polygon style="fill:#2F91ED;" points="344.54,193.094 333.631,219.43 463.446,273.201 474.354,246.865 410.363,206.812 "/>
<rect x="344.641" y="192.565" transform="matrix(-0.9239 -0.3827 0.3827 -0.9239 719.0601 556.6688)" style="fill:#63C1FF;" width="140.508" height="28.507"/>
<rect x="419.861" y="230.606" transform="matrix(-0.3827 0.9239 -0.9239 -0.3827 883.9614 -96.9249)" style="fill:#424242;" width="109.002" height="32.502"/>
<path style="fill:#FF8E00;" d="M5.464,52.645L5.464,52.645c-10.232,24.701,1.498,53.021,26.201,63.252l49.979-48.086L5.464,52.645z"
	/>
<path style="fill:#FFBA00;" d="M71.996,79.107l-3.278-52.662C44.017,16.213,15.697,27.943,5.466,52.645l65.705,27.216L71.996,79.107
	z"/>
<polygon style="fill:#003DA8;" points="50.191,71.171 31.665,115.897 345.581,245.926 364.108,201.199 208.16,115.247 "/>
<g>
	
		<rect x="46.519" y="89.621" transform="matrix(-0.9239 -0.3827 0.3827 -0.9239 372.7949 301.8087)" style="fill:#2F91ED;" width="339.791" height="48.412"/>
	<path style="fill:#2F91ED;" d="M219.468,149.241c-5.144-2.131-10.473-3.132-15.715-3.131l-21.668,41.068l21.668,41.068
		c16.108-0.007,31.39-9.546,37.938-25.353C250.371,181.941,240.421,157.92,219.468,149.241z"/>
</g>
<path style="fill:#63C1FF;" d="M165.815,171.464c-8.679,20.953,1.271,44.974,22.224,53.653c5.144,2.131,10.473,3.132,15.715,3.13
	v-82.136C187.646,146.117,172.363,155.657,165.815,171.464z"/>
<rect x="33.938" y="0.868" transform="matrix(-0.9239 -0.3827 0.3827 -0.9239 69.3216 156.1297)" style="fill:#424242;" width="32.502" height="140.605"/>
</svg>