<?xml version="1.0" encoding="UTF-8" standalone="no"?>
<!-- Uploaded to: SVG Repo, www.svgrepo.com, Generator: SVG Repo Mixer Tools -->

<svg
   width="800"
   height="800"
   viewBox="0 0 20 20"
   version="1.1"
   id="svg1"
   xmlns="http://www.w3.org/2000/svg"
   xmlns:svg="http://www.w3.org/2000/svg">
  <defs
     id="defs1" />
  <rect
     x="0"
     fill="none"
     width="20"
     height="20"
     id="rect1"
     y="0" />
  <g
     id="g1">
    <path
       d="M 11.450487,10.035049 18.644362,1.4795539 4.9572143,9.789708 H 8.6845621 L 1.4547708,18.421314 15.140158,10.020532 Z M 5.3374921,10.278495 2.3383595,10.055446 C 3.7952709,8.8423646 4.8495773,8.0993993 6.587701,6.8833114 8.4191565,5.6019235 10.557307,4.4253415 12.363143,3.0528452 l -3.7265183,-2.24522931 -7,3.00000001 v 3 c 0,2 0.5,3.8999991 1.5,5.5999991 z m 9.8890149,-0.8271146 3.146965,0.024783 c -0.804231,0.7968086 -2.945277,2.4745376 -4.438719,3.6347136 -1.38663,1.077199 -4.4253946,2.695409 -6.1517407,3.935299 1,0.9 2.5965307,2.046096 3.8965307,2.446096 4.2,-1.5 7.1,-5.5 7,-9.9999995 L 18.506061,6.8640197 17.884747,6.441839 Z"
       id="path1"
       style="fill:#000000;fill-opacity:1" />
  </g>
</svg>
