<?xml version="1.0" encoding="UTF-8" standalone="no"?>
<!-- Created with Inkscape (http://www.inkscape.org/) -->

<svg
   width="36.914665mm"
   height="36.914665mm"
   viewBox="0 0 36.914665 36.914665"
   version="1.1"
   id="svg3514"
   inkscape:version="1.1.1 (3bf5ae0d25, 2021-09-20)"
   sodipodi:docname="user_plot_data.svg"
   xmlns:inkscape="http://www.inkscape.org/namespaces/inkscape"
   xmlns:sodipodi="http://sodipodi.sourceforge.net/DTD/sodipodi-0.dtd"
   xmlns="http://www.w3.org/2000/svg"
   xmlns:svg="http://www.w3.org/2000/svg">
  <sodipodi:namedview
     id="namedview3516"
     pagecolor="#ffffff"
     bordercolor="#666666"
     borderopacity="1.0"
     inkscape:pageshadow="2"
     inkscape:pageopacity="0.0"
     inkscape:pagecheckerboard="0"
     inkscape:document-units="mm"
     showgrid="false"
     fit-margin-top="0"
     fit-margin-left="0"
     fit-margin-right="0"
     fit-margin-bottom="0"
     inkscape:zoom="0.64052329"
     inkscape:cx="-169.39275"
     inkscape:cy="197.49477"
     inkscape:window-width="1920"
     inkscape:window-height="1137"
     inkscape:window-x="-8"
     inkscape:window-y="-8"
     inkscape:window-maximized="1"
     inkscape:current-layer="layer1" />
  <defs
     id="defs3511" />
  <g
     inkscape:label="Layer 1"
     inkscape:groupmode="layer"
     id="layer1"
     transform="translate(-30.105773,-96.441308)">
    <g
       id="g3729"
       transform="translate(4.9568846,49.155772)"
       style="fill:#000000">
      <path
         style="fill:#000000;fill-opacity:1;stroke-width:0.0846667"
         d="M 43.60622,84.200202 H 25.148888 V 65.742869 47.285536 h 1.905 1.904999 v 16.764 16.763999 H 45.51122 62.063553 v 1.693333 1.693334 z m 2.074334,-9.313333 h -9.888302 l 0.04969,-1.037167 0.0497,-1.037167 0.211981,-0.846666 0.211982,-0.846667 0.22553,-0.550181 0.22553,-0.550181 0.214388,-0.423485 0.214388,-0.423486 0.422306,-0.626188 0.422306,-0.626188 0.629396,-0.658781 0.629396,-0.658781 0.464294,-0.3582 0.464294,-0.3582 0.313559,0.301699 0.313561,0.301699 0.846666,0.47578 0.846667,0.47578 1.192405,0.378857 1.192404,0.378856 h 0.99271 0.992711 l 0.599321,-0.09299 0.599321,-0.09299 0.999494,-0.448624 0.999494,-0.448624 0.53407,-0.402827 0.53407,-0.402827 0.09555,-0.116013 0.09555,-0.116014 0.41245,0.327409 0.412451,0.327407 0.566199,0.602012 0.566198,0.602011 0.41669,0.617866 0.416691,0.617866 0.214388,0.423486 0.214388,0.423485 0.22553,0.550181 0.22553,0.550181 0.211982,0.846667 0.211981,0.846666 0.0497,1.037167 0.04969,1.037167 z m 0.663008,-8.351885 -0.663008,0.04295 -0.504975,-0.07809 -0.504975,-0.07809 -0.426359,-0.139562 -0.426358,-0.139562 -0.508,-0.25084 -0.508,-0.25084 -0.620417,-0.471053 -0.620417,-0.471053 -0.447732,-0.527762 -0.447732,-0.527761 -0.398267,-0.638994 -0.398268,-0.638994 -0.296574,-0.703068 -0.296573,-0.703067 -0.202577,-0.804334 -0.202577,-0.804333 -0.09638,-0.994833 -0.09638,-0.994834 0.09638,-0.994833 0.09638,-0.994833 0.202577,-0.804334 0.202577,-0.804333 0.296573,-0.703068 0.296574,-0.703067 0.398268,-0.638994 0.398267,-0.638994 0.447732,-0.527762 0.447732,-0.527761 0.620417,-0.474409 0.620417,-0.47441 0.635,-0.299334 0.635,-0.299334 0.550333,-0.143362 0.550334,-0.143361 h 0.846666 0.846667 l 0.550333,0.143361 0.550334,0.143362 0.635,0.299334 0.635,0.299334 0.620417,0.47441 0.620416,0.474409 0.447732,0.527761 0.447733,0.527762 0.398267,0.638994 0.398267,0.638994 0.296574,0.703067 0.296574,0.703068 0.202577,0.804333 0.202577,0.804334 0.09638,0.994833 0.09638,0.994833 -0.09638,0.994834 -0.09638,0.994833 -0.202577,0.804333 -0.202577,0.804334 -0.296574,0.703067 -0.296574,0.703068 -0.398267,0.638994 -0.398267,0.638994 -0.447733,0.527761 -0.447732,0.527762 -0.620416,0.474409 -0.620417,0.474409 -0.635,0.298927 -0.635,0.298926 -0.479992,0.123259 -0.47999,0.123259 z"
         id="path3743" />
      <path
         style="fill:#000000;fill-opacity:1;stroke-width:0.0846667"
         d="M 43.60622,84.200202 H 25.148888 V 65.742869 47.285536 h 1.905 1.904999 v 16.764 16.763999 H 45.51122 62.063553 v 1.693333 1.693334 z m 2.074334,-9.313333 h -9.863667 l 3.39e-4,-0.656167 3.39e-4,-0.656167 0.125944,-0.77653 0.125943,-0.77653 0.221254,-0.705137 0.221252,-0.705136 0.287175,-0.625134 0.287175,-0.625133 0.483336,-0.726409 0.483336,-0.726409 0.589087,-0.620155 0.589086,-0.620156 0.508009,-0.381877 0.508008,-0.381877 0.346024,0.331235 0.346023,0.331235 0.8591,0.465535 0.8591,0.465535 1.142551,0.350305 1.142551,0.350305 1.046349,-6.77e-4 1.046349,-6.77e-4 0.530465,-0.08608 0.530467,-0.08609 0.990434,-0.431222 0.990433,-0.431224 0.654269,-0.498052 0.654268,-0.498052 h 0.07872 0.07871 l 0.751783,0.708274 0.751783,0.708274 0.479418,0.667559 0.479418,0.66756 0.34166,0.635 0.341659,0.635 0.297067,0.889 0.297068,0.888999 0.130347,0.804334 0.130349,0.804333 3.39e-4,0.656167 3.38e-4,0.656166 h -9.863666 z m 0.296333,-8.390305 -0.889,-0.0058 -0.481885,-0.116859 -0.481885,-0.11686 L 43.578385,66.009599 43.032654,65.762153 42.526379,65.418348 42.020106,65.074544 41.49889,64.553329 40.977675,64.032114 40.607318,63.511659 40.236961,62.991206 39.892665,62.3067 39.54837,61.622194 39.295355,60.866996 39.04234,60.111798 38.91128,59.360245 38.780221,58.608688 V 57.360869 56.11305 l 0.131059,-0.751553 0.13106,-0.751553 0.253015,-0.755198 0.253015,-0.755199 0.344295,-0.684505 0.344296,-0.684506 0.370357,-0.520454 0.370357,-0.520454 0.521215,-0.521215 0.521216,-0.521215 0.506273,-0.343804 0.506275,-0.343805 0.541418,-0.24549 0.541418,-0.245491 0.528532,-0.124618 0.528532,-0.124618 h 0.846666 0.846667 l 0.528532,0.124618 0.528531,0.124618 0.541418,0.245491 0.541419,0.24549 0.506274,0.343805 0.506274,0.343804 0.521216,0.521215 0.521214,0.521215 0.370358,0.520454 0.370356,0.520454 0.344296,0.684506 0.344296,0.684505 0.253014,0.755199 0.253016,0.755198 0.131059,0.751553 0.13106,0.751553 v 1.247819 1.247819 l -0.13106,0.751553 -0.131059,0.751553 -0.253016,0.755199 -0.253014,0.755198 -0.344296,0.684506 -0.344296,0.684505 -0.370356,0.520454 -0.370358,0.520454 -0.521214,0.521215 -0.521216,0.521216 -0.506274,0.343804 -0.506274,0.343804 -0.541419,0.245491 -0.541418,0.24549 -0.528531,0.124619 -0.528532,0.124617 -0.889,-0.0058 z"
         id="path3741" />
      <path
         style="fill:#000000;fill-opacity:1;stroke-width:0.0846667"
         d="M 43.60622,84.200202 H 25.148888 V 65.742869 47.285536 h 1.905 1.904999 v 16.764 16.763999 H 45.51122 62.063553 v 1.693333 1.693334 z m 2.074334,-9.313333 h -9.888831 l 0.04922,-0.9525 0.04922,-0.9525 0.127229,-0.592667 0.127229,-0.592666 0.214259,-0.677334 0.214257,-0.677333 0.382496,-0.749317 0.382496,-0.749318 0.395292,-0.553952 0.395293,-0.553952 0.549401,-0.582395 0.549402,-0.582395 0.509828,-0.383243 0.509827,-0.383245 0.346023,0.331512 0.346023,0.33151 0.846667,0.468286 0.846667,0.468286 1.131538,0.347278 1.131537,0.347278 1.112129,-5.08e-4 1.112129,-5.08e-4 0.486445,-0.07967 0.486446,-0.07968 0.986505,-0.430446 0.986504,-0.430447 0.671599,-0.51225 0.671599,-0.512248 0.332461,0.230395 0.33246,0.230395 0.575694,0.606056 0.575693,0.606055 0.398842,0.558926 0.398841,0.558926 0.382496,0.749317 0.382496,0.749317 0.214257,0.677334 0.214259,0.677333 0.127229,0.592667 0.12723,0.592666 0.04922,0.9525 0.04922,0.952536 z m 0.296333,-8.390201 -0.719667,-0.0053 -0.518495,-0.112774 -0.518495,-0.112775 -0.654641,-0.302462 -0.654641,-0.302464 -0.580066,-0.43002 -0.580066,-0.43002 -0.441529,-0.481511 -0.441531,-0.481512 -0.465575,-0.71252 -0.465575,-0.712521 -0.373945,-0.92055 -0.373946,-0.920551 -0.181214,-0.822262 -0.181215,-0.822262 v -1.566333 -1.566334 l 0.181215,-0.822262 0.181214,-0.822261 0.373946,-0.920551 0.373945,-0.920551 0.465575,-0.71252 0.465575,-0.712521 0.441531,-0.481511 0.441529,-0.481511 0.580066,-0.430021 0.580066,-0.43002 0.65132,-0.300929 0.65132,-0.300928 0.56415,-0.11957 0.564149,-0.11957 h 0.677333 0.677334 l 0.564149,0.11957 0.56415,0.11957 0.651319,0.300928 0.651321,0.300929 0.580065,0.43002 0.580066,0.430021 0.44153,0.481511 0.441531,0.481511 0.465575,0.712521 0.465574,0.71252 0.373946,0.920551 0.373945,0.920551 0.181215,0.822261 0.181215,0.822262 v 1.566334 1.566333 l -0.181215,0.822262 -0.181215,0.822262 -0.373945,0.920551 -0.373946,0.92055 -0.465574,0.712521 -0.465575,0.71252 -0.441531,0.481512 -0.44153,0.481511 -0.580066,0.43002 -0.580065,0.43002 -0.651321,0.300929 -0.651319,0.300929 -0.56415,0.119569 -0.564149,0.11957 -0.719667,-0.0053 z"
         id="path3739" />
      <path
         style="fill:#000000;fill-opacity:1;stroke-width:0.0846667"
         d="M 43.60622,84.200202 H 25.148888 V 65.742869 47.285536 h 1.905 1.904999 v 16.764 16.763999 H 45.51122 62.063553 v 1.693333 1.693334 z m 2.074334,-9.313333 h -9.863667 l 5.08e-4,-0.5715 5.08e-4,-0.5715 0.12358,-0.804334 0.123579,-0.804333 0.176777,-0.635 0.176777,-0.635 0.450319,-0.931333 0.450319,-0.931333 0.422341,-0.592667 0.422342,-0.592667 0.413984,-0.459885 0.413984,-0.459886 0.618134,-0.491625 0.618135,-0.491624 0.341321,0.327971 0.341321,0.327972 0.860878,0.468511 0.860877,0.468511 1.135821,0.3557 1.13582,0.355701 1.488846,-0.03642 1.488847,-0.03642 1.100435,-0.484701 1.100435,-0.4847 0.664924,-0.509208 0.664922,-0.509208 0.193844,0.127011 0.193843,0.12701 0.521213,0.482552 0.521213,0.482553 0.551669,0.728088 0.551668,0.728089 0.499713,1.016 0.499713,1.016 0.175291,0.635 0.175293,0.635 0.123579,0.804333 0.12358,0.804334 5.08e-4,0.5715 5.08e-4,0.5715 h -9.863667 z m 0.508,-8.494727 -1.185334,0.02606 -0.439982,-0.123108 -0.439981,-0.123108 -0.549556,-0.24918 -0.549555,-0.24918 -0.396362,-0.272705 -0.396363,-0.272705 -0.572582,-0.540144 -0.572581,-0.540144 -0.428458,-0.619785 -0.428456,-0.619785 -0.291739,-0.58591 -0.291737,-0.585911 -0.228491,-0.635 -0.228491,-0.635 -0.161999,-0.828502 -0.162,-0.828503 V 57.36087 56.012208 l 0.162,-0.828502 0.161999,-0.828502 0.228491,-0.635 0.228491,-0.635 0.291737,-0.585911 0.291739,-0.585911 0.428456,-0.619784 0.428458,-0.619785 0.593905,-0.56026 0.593904,-0.56026 0.505681,-0.326837 0.505681,-0.326837 0.689562,-0.277342 0.689563,-0.277341 h 1.354666 1.354667 l 0.689562,0.277341 0.689563,0.277342 0.50568,0.326837 0.505681,0.326837 0.593905,0.56026 0.593905,0.56026 0.428457,0.619785 0.428457,0.619784 0.291738,0.585911 0.291738,0.585911 0.228491,0.635 0.22849,0.635 0.162,0.828502 0.161999,0.828502 v 1.348662 1.348662 l -0.161999,0.828503 -0.162,0.828502 -0.22849,0.635 -0.228491,0.635 -0.291738,0.585911 -0.291738,0.58591 -0.428457,0.619785 -0.428457,0.619785 -0.593905,0.56026 -0.593905,0.56026 -0.505681,0.326837 -0.50568,0.326837 -0.689563,0.271981 -0.689562,0.271981 z"
         id="path3737" />
      <path
         style="fill:#000000;fill-opacity:1;stroke-width:0.0846667"
         d="M 43.60622,84.200202 H 25.148888 V 65.742869 47.285536 h 1.905 1.904999 v 16.764 16.763999 H 45.51122 62.063553 v 1.693333 1.693334 z m 2.074334,-9.313333 h -9.889539 l 0.05211,-0.910786 0.05211,-0.910785 0.131899,-0.634381 0.1319,-0.634381 0.221943,-0.677334 0.221942,-0.677333 0.361137,-0.719667 0.361135,-0.719666 0.447808,-0.635 0.447807,-0.635 0.641984,-0.642575 0.641982,-0.642576 0.354759,-0.234768 0.354759,-0.234769 0.373288,0.32701 0.373288,0.327011 0.920509,0.479991 0.920509,0.479992 1.016,0.311417 1.016,0.311418 0.770612,0.04497 0.770613,0.04497 0.816506,-0.09629 0.816508,-0.0963 1.019519,-0.451813 1.019521,-0.451814 0.560385,-0.41527 0.560387,-0.41527 0.148141,-0.110848 0.14814,-0.110848 0.579501,0.498812 0.5795,0.498811 0.473322,0.585703 0.473322,0.585703 0.256426,0.381 0.256425,0.381 0.337773,0.677334 0.337774,0.677333 0.221904,0.677333 0.221904,0.677333 0.1319,0.634382 0.131899,0.634381 0.05211,0.910785 0.05211,0.910786 z m 0.296333,-8.474867 -0.635,-0.0053 L 44.822369,66.29376 44.302851,66.180777 43.70322,65.928839 43.10359,65.676901 42.549712,65.281663 41.995835,64.886423 41.571258,64.461846 41.14668,64.037269 40.717706,63.429571 40.288732,62.821873 39.995247,62.242764 39.701762,61.663655 39.41729,60.80343 39.132818,59.943203 38.998853,59.145116 38.864887,58.34703 v -0.986161 -0.986161 l 0.133966,-0.798085 0.133965,-0.798087 0.284472,-0.860224 0.284472,-0.860225 0.293485,-0.579109 0.293485,-0.579109 0.428974,-0.607698 0.428974,-0.607698 0.424578,-0.424577 0.424577,-0.424578 0.553877,-0.395238 0.553878,-0.395239 0.595625,-0.250255 0.595625,-0.250255 0.565857,-0.119927 0.565857,-0.119928 h 0.592666 0.592667 l 0.565857,0.119928 0.565857,0.119927 0.595625,0.250255 0.595625,0.250255 0.553877,0.395239 0.553878,0.395238 0.424577,0.424578 0.424578,0.424577 0.428973,0.607698 0.428975,0.607698 0.293484,0.579109 0.293485,0.579109 0.284473,0.860225 0.284471,0.860224 0.133966,0.798087 0.133965,0.798085 v 0.986161 0.986161 l -0.133965,0.798086 -0.133966,0.798087 -0.284471,0.860224 -0.284473,0.860225 -0.293485,0.579108 -0.293484,0.579109 -0.428975,0.607698 -0.428973,0.607699 -0.424578,0.424577 -0.424577,0.424577 -0.553878,0.395239 -0.553877,0.395239 -0.595625,0.250255 -0.595625,0.250255 -0.565857,0.119927 -0.565857,0.119927 -0.635,-0.0053 z"
         id="path3735" />
      <path
         style="fill:#000000;fill-opacity:1;stroke-width:0.0846667"
         d="M 43.60622,84.200202 H 25.148888 V 65.742869 47.285536 h 1.905 1.904999 v 16.764 16.763999 H 45.51122 62.063553 v 1.693333 1.693334 z m 2.061864,-9.313333 h -9.876136 l 0.05811,-0.898844 0.05811,-0.898844 0.118051,-0.617 0.118052,-0.617 0.265078,-0.791323 0.265079,-0.791322 0.383587,-0.7276 0.383587,-0.727601 0.434998,-0.584733 0.434999,-0.584733 0.59852,-0.592667 0.598521,-0.592666 0.352788,-0.2425 0.352788,-0.2425 0.218524,0.259702 0.218524,0.2597 0.736644,0.421383 0.736643,0.421382 0.423333,0.183135 0.423333,0.183134 0.825853,0.247016 0.825853,0.247017 0.655813,0.09204 0.655815,0.09204 0.677333,-0.05371 0.677333,-0.05371 0.465667,-0.09089 0.465667,-0.09089 0.885101,-0.416254 0.885101,-0.416254 0.427232,-0.266216 0.427232,-0.266216 0.298437,-0.280432 0.298439,-0.280432 0.538642,0.441128 0.538643,0.441128 0.605648,0.738104 0.605648,0.738105 0.374171,0.653965 0.37417,0.653965 0.273581,0.684205 0.273582,0.684205 0.172735,0.677333 0.172736,0.677333 0.08559,0.762 0.08559,0.762 6.77e-4,0.402167 6.77e-4,0.402167 h -9.876136 z m 0.310505,-8.55587 -0.890702,-0.0045 -0.635,-0.191384 -0.635,-0.191384 -0.508,-0.260838 -0.508,-0.260838 -0.635,-0.511704 -0.635,-0.511703 L 41.13314,63.899725 40.734393,63.400803 40.390869,62.835351 40.047346,62.2699 39.851064,61.826072 39.654782,61.382245 39.43298,60.705075 39.211178,60.027907 39.080366,59.320054 38.949554,58.612201 v -1.251294 -1.251293 l 0.130812,-0.707854 0.130812,-0.707853 0.221802,-0.67717 0.221802,-0.677169 0.196282,-0.443828 0.196282,-0.443827 0.343523,-0.565452 0.343524,-0.565451 0.398747,-0.498922 0.398747,-0.498923 0.635,-0.511777 0.635,-0.511777 0.565489,-0.285389 0.565488,-0.285389 0.618143,-0.171296 0.618143,-0.171296 h 0.85007 0.850071 l 0.618142,0.171296 0.618143,0.171296 0.565489,0.285389 0.565489,0.285389 0.634999,0.511777 0.635,0.511777 0.398747,0.498923 0.398747,0.498922 0.343524,0.565451 0.343524,0.565452 0.196281,0.443827 0.196282,0.443828 0.221802,0.677169 0.221802,0.67717 0.130813,0.707853 0.130812,0.707854 v 1.251293 1.251294 l -0.130812,0.707853 -0.130813,0.707853 -0.221802,0.67717 -0.221802,0.67717 -0.196282,0.443827 -0.196281,0.443828 -0.343524,0.565451 -0.343524,0.565451 -0.398747,0.498922 -0.398747,0.498923 -0.635,0.511777 -0.634999,0.511777 -0.565489,0.28539 -0.565489,0.285388 -0.618143,0.171297 -0.618142,0.171296 -0.890702,-0.0045 z"
         id="path3733" />
      <path
         style="fill:#000000;fill-opacity:1;stroke-width:0.0846667"
         d="M 43.60622,84.200202 H 25.148888 V 65.742869 47.285536 h 1.905 1.904999 v 16.764 16.763999 H 45.51122 62.063553 v 1.693333 1.693334 z m 2.086437,-9.313333 h -9.87577 l 6.78e-4,-0.359834 6.77e-4,-0.359833 0.08657,-0.762 0.08657,-0.762 0.166954,-0.706112 0.166954,-0.706113 0.257352,-0.648554 0.257351,-0.648554 0.389903,-0.677333 0.389903,-0.677334 0.358347,-0.467175 0.358348,-0.467176 0.475169,-0.482821 0.475168,-0.482822 0.428651,-0.338829 0.428651,-0.338829 0.253947,0.289229 0.253946,0.289229 0.663768,0.382862 0.663769,0.382862 0.481192,0.212805 0.481191,0.212806 0.861285,0.266765 0.861285,0.266766 1.100667,0.0396 1.100666,0.0396 0.606932,-0.08504 0.606932,-0.08504 0.799824,-0.350776 0.799824,-0.350775 0.642575,-0.382405 0.642573,-0.382407 0.249949,-0.284675 0.249948,-0.284676 0.522785,0.452732 0.522784,0.452733 0.464427,0.536062 0.464426,0.536064 0.310929,0.465667 0.310929,0.465666 0.363232,0.719667 0.363232,0.719667 0.203092,0.641258 0.203093,0.641259 0.128016,0.674842 0.128016,0.674843 0.05951,0.864065 0.05951,0.864066 h -9.87577 z m 0.495897,-8.66406 -1.185334,0.02606 -0.429457,-0.120414 -0.429457,-0.120414 -0.490928,-0.217111 -0.490929,-0.217112 -0.548251,-0.391224 -0.548251,-0.391225 -0.469216,-0.476748 -0.469215,-0.47675 -0.399838,-0.592667 -0.399836,-0.592666 -0.255235,-0.508 -0.255234,-0.508 -0.229577,-0.635 -0.229577,-0.635 -0.161999,-0.828502 -0.162,-0.828503 v -1.348662 -1.348662 l 0.162,-0.828502 0.161999,-0.828502 0.229577,-0.635 0.229577,-0.635 0.255234,-0.508 0.255235,-0.508 0.399836,-0.592667 0.399838,-0.592667 0.476113,-0.483758 0.476113,-0.483758 0.603921,-0.424116 0.603919,-0.424116 0.688486,-0.276927 0.688486,-0.276926 h 1.354666 1.354667 l 0.688486,0.276926 0.688485,0.276927 0.60392,0.424116 0.60392,0.424116 0.476114,0.483758 0.476113,0.483758 0.399837,0.592667 0.399837,0.592667 0.255234,0.508 0.255235,0.508 0.229577,0.635 0.229576,0.635 0.162,0.828502 0.161999,0.828502 v 1.348662 1.348662 l -0.161999,0.828503 -0.162,0.828502 -0.229576,0.635 -0.229577,0.635 -0.255235,0.508 -0.255234,0.508 -0.399837,0.592666 -0.399837,0.592667 -0.476113,0.483758 -0.476114,0.483759 -0.60392,0.424116 -0.60392,0.424116 -0.688485,0.271566 -0.688486,0.271566 z"
         id="path3731" />
    </g>
  </g>
</svg>
